<?xml version="1.0" encoding="UTF-8"?>
<!DOCTYPE svg PUBLIC "-//W3C//DTD SVG 1.1//EN" "http://www.w3.org/Graphics/SVG/1.1/DTD/svg11.dtd">
<!-- Creator: CorelDRAW 2021 (64-Bit) -->
<svg xmlns="http://www.w3.org/2000/svg" xml:space="preserve" width="4.81871in" height="4.57163in" version="1.1" style="shape-rendering:geometricPrecision; text-rendering:geometricPrecision; image-rendering:optimizeQuality; fill-rule:evenodd; clip-rule:evenodd"
viewBox="0 0 1155.8 1096.53"
 xmlns:xlink="http://www.w3.org/1999/xlink"
 xmlns:xodm="http://www.corel.com/coreldraw/odm/2003">
 <defs>
  <style type="text/css">
   <![CDATA[
    .fil0 {fill:#E5132B}
    .fil1 {fill:#F75E70}
   ]]>
  </style>
 </defs>
 <g id="Layer_x0020_1">
  <metadata id="CorelCorpID_0Corel-Layer"/>
  <g id="_1952017833488">
   <path class="fil0" d="M-0 541.25l174.46 -0.04c-0.03,6.71 0.06,13.45 0.27,20.22 13.4,-1.02 33.08,-0.07 43.74,-0l75.79 0.19 240.69 -0.4c36.4,1.52 49.66,4.73 52.96,33.44l0.54 65.62 386.24 0.68 6.52 2.31 0.38 -121.95 174.21 0.03c-7.02,-13.07 -153.49,-142.92 -167.77,-159.15 -11.33,-12.88 -79.15,-67.36 -81.84,-80.8 -4.34,-21.65 -1.03,-134.54 -0.2,-163.59l-136.33 -1.37 -0.11 39.38c-54.15,-38.43 -143.5,-131.14 -191.65,-175.8 -15.72,10.17 -89.38,82.85 -108.06,100.8l-361.27 337.59c-14.05,12.45 -103.85,94.37 -108.57,102.87zm587.42 -112.75l79.05 0.78 0.61 -79.3 -79.23 -0.46 -0.44 78.97zm-98.46 98.84l79.28 0.45 -0.13 -78.5 -78.37 -0.78 -0.78 78.84zm98.53 -0.37l79.03 0.85 0.24 -79.16 -78.37 -0.19 -0.9 78.49zm-98.75 -98.23l78.99 0.17 0.56 -78.46 -78.95 -0.73 -0.6 79.02z"/>
   <path class="fil1" d="M112.03 604.06l-2.64 11.26c-2.71,48.36 148.69,55.02 162.25,135.52l10.44 22.96 5.46 3.34c6.45,3.92 -1.39,0.11 5.99,3.65 16.72,8.03 44.91,4.76 63.92,4.63l96.31 -56.02 345.53 13.86 -264.04 351.22c117.46,-0 247.14,5.04 363.1,-0.67l5.6 -1.39c12.58,-13 13.73,-7.67 22.71,-26.98l0.31 -3.82c18.98,-87.54 50.54,-244.9 54.66,-332.43 1.4,-29.82 -8.48,-37.84 -33.31,-46.66l-386.24 -0.68 -0.54 -65.62c-3.29,-28.71 -16.55,-31.92 -52.96,-33.44l-240.69 0.4 -75.79 -0.19c-13.25,-0.08 -40.43,-1.53 -52.16,1.14 -4.16,0.95 -13.99,6.09 -15.69,7.35l-12.21 12.56z"/>
   <path class="fil0" d="M78.45 644.92l-2.64 10.33c-2.71,44.35 56.65,333.83 70.2,407.65l10.44 21.06 5.46 3.06c6.45,3.6 -1.39,0.1 5.99,3.35 16.72,7.36 44.91,4.37 63.92,4.24l269.84 0.05c117.46,-0 247.14,4.62 363.1,-0.62l5.6 -1.27c12.58,-11.92 13.73,-7.03 22.71,-24.74l0.31 -3.5c18.98,-80.27 50.54,-224.58 54.66,-304.85 1.4,-27.35 -8.48,-34.7 -33.31,-42.79l-386.24 -0.62 -0.54 -60.17c-3.29,-26.33 -16.55,-29.27 -52.96,-30.66l-240.69 0.37 -75.79 -0.17c-13.25,-0.08 -40.43,-1.41 -52.16,1.04 -4.16,0.87 -13.99,5.58 -15.69,6.74l-12.21 11.52zm366.9 142.95l205.11 0c13.99,0 25.44,10.5 25.44,23.33l0 0c0,12.83 -11.45,23.33 -25.44,23.33l-205.11 0c-13.99,0 -25.44,-10.5 -25.44,-23.33l0 -0c0,-12.83 11.45,-23.33 25.44,-23.33z"/>
  </g>
 </g>
</svg>
