<?xml version="1.0" encoding="utf-8"?>
<!-- Generator: Adobe Illustrator 25.4.1, SVG Export Plug-In . SVG Version: 6.00 Build 0)  -->
<svg version="1.1" id="Layer_1" xmlns="http://www.w3.org/2000/svg" xmlns:xlink="http://www.w3.org/1999/xlink" x="0px" y="0px"
	 viewBox="0 0 512 512" style="enable-background:new 0 0 512 512;" xml:space="preserve">
<style type="text/css">
	.st0{fill:#FFFFFF;stroke:#E4132B;stroke-width:13;stroke-miterlimit:10;}
	.st1{fill:#E4132B;}
	.st2{fill:#FFFFFF;stroke:#545454;stroke-width:10;stroke-miterlimit:10;}
	.st3{fill:none;stroke:#545454;stroke-width:10;stroke-miterlimit:10;}
	.st4{font-family:'Impact';}
	.st5{font-size:112.6453px;}
</style>
<path class="st0" d="M434.8,414.8c-41.7,2.3-249.2,0-249.2,0s-31.8,8.2-31.8-22.5c0-30.8,0-164.7,0-164.7l0.2-0.2
	c3.2-0.2,6.8-1,10.7-2l122.5-130c0,0,18.2-33.1,43.1,0c25,33.1,131.5,130,131.5,130s4.5,0,10.4-1.2l1,1.2v159.8
	C473.3,385.1,476.5,412.4,434.8,414.8z"/>
<path class="st1" d="M452.8,40.3v108.8l-58.9-58.9V40.3C393.9,40.3,425.6,19.8,452.8,40.3z"/>
<g>
	<g>
		<path class="st1" d="M506.4,201.9c-1.5,21.3-20.4,28.3-32.7,30.6c-6,1.1-10.4,1.1-10.4,1.1s-106.5-93-131.5-124.8
			c-24.9-31.8-43.1,0-43.1,0L166.1,233.6c-3.9,1-7.5,1.7-10.7,1.9c-38.5,3.6-34.6-42.8-34.6-42.8s163.3-161,174.7-170.1
			s31.8,0,31.8,0L506.4,201.9z"/>
	</g>
</g>
<g>
	<path class="st1" d="M185.9,417h-21c-6.7,0-12.2-5.5-12.2-12.2V282.3c0-6.7,5.5-12.2,12.2-12.2h21c6.7,0,12.2,5.5,12.2,12.2v122.5
		C198,411.5,192.6,417,185.9,417z"/>
</g>
<g>
	
		<image style="overflow:visible;opacity:0.15;enable-background:new    ;" width="314" height="189" xlink:href="C:\Users\Amaan\Desktop\icons\94D3723E.png"  transform="matrix(0.9986 0 0 0.9986 17.2205 94.0099)">
	</image>
	<g>
		<path class="st2" d="M321.7,274.9H26.8c-1.5,0-2.7-1.2-2.7-2.7V103c0-1.5,1.2-2.7,2.7-2.7h294.8c1.5,0,2.7,1.2,2.7,2.7v169.2
			C324.4,273.7,323.2,274.9,321.7,274.9z"/>
		<path class="st3" d="M321.7,274.9H26.8c-1.5,0-2.7-1.2-2.7-2.7V103c0-1.5,1.2-2.7,2.7-2.7h294.8c1.5,0,2.7,1.2,2.7,2.7v169.2
			C324.4,273.7,323.2,274.9,321.7,274.9z"/>
	</g>
</g>
<text transform="matrix(1 0 0 1 77.7856 229.6504)" class="st1 st4 st5">SELL</text>
</svg>
