<svg xmlns="http://www.w3.org/2000/svg" viewBox="0 0 708.1 177.8"><defs><style>.cls-1{fill:#38d200}.cls-2{fill:#0473ea}.cls-3{fill:#525355}</style></defs><g data-name="Layer 2"><g data-name="Layer 1"><path d="M86.7 175.2l-74.5-48.5S2.8 121.3.7 111.3c-3-14 6.9-26.1 6.9-26.1l96.7 63a16.1 16.1 0 1 1-17.6 27" class="cls-1"/><path d="M16.1 74.8S4.7 68 4.7 52 16 29.3 16 29.3L56.8 2.6a16.1 16.1 0 1 1 17.6 27L40.1 52l58.5 38s10.5 6 12.6 16.3c2.9 14.2-6.9 26-6.9 26z" class="cls-2"/><path d="M92.8 36a15.9 15.9 0 0 0-9.2 3L63.7 52l19.9 13a16.3 16.3 0 0 0 9.2 3 15.9 15.9 0 0 0 0-31.8" class="cls-1"/><path d="M15.9 177.8a15.9 15.9 0 0 0 9.2-3l19.9-13L25 149a16.2 16.2 0 0 0-9-3 15.9 15.9 0 1 0 0 31.8" class="cls-2"/><path d="M175.5 127.3a16.8 16.8 0 0 0 11.2-3.7v5.9a20.4 20.4 0 0 1-11.7 3.3c-10.8 0-18.3-7.5-18.3-18.2s7.7-18.2 18.4-18.2a18.6 18.6 0 0 1 11.3 3.6v6.5a14.6 14.6 0 0 0-11-4.5c-7.4 0-12.7 5.2-12.7 12.7s5.4 12.7 12.8 12.7m23.4 4.8H193V86l5.8 3.6V103a14 14 0 0 1 12.2-6.6c8.9 0 13.6 6.4 13.6 15v20.8h-6v-19.7c0-6.8-3-10.5-9-10.5-6.5 0-10.8 5.6-10.8 12.6zm37.1-17.5c0 7.3 5 12.7 12.2 12.7s12.3-5.4 12.3-12.7-5.1-12.8-12.3-12.8-12.2 5.4-12.2 12.8m24.5 11.5a15.3 15.3 0 0 1-12.9 6.6 17.2 17.2 0 0 1-17.6-18c0-10.6 7.4-18.4 17.6-18.4a15.3 15.3 0 0 1 13 6.8V97h5.8v35.1h-5.9zm20.6 6h-5.8V97h5.8v7.5c2.8-5.2 7.3-8 12.9-8v6.5c-7-1-12.9 3.7-12.9 12.4zm44.4-20h21.7c-.6-6-4.3-10.4-10.6-10.4-6.4 0-10.2 4.4-11.1 10.4m27.6 4.7h-27.7c.8 6.3 5.8 10.5 12.8 10.5a21.5 21.5 0 0 0 12.6-3.9v5.6a22 22 0 0 1-12.6 3.8c-11 0-19-7.2-19-18 0-10.5 6.7-18.5 17.3-18.5 10.2 0 16.8 7.5 16.8 17.6a20 20 0 0 1-.2 3m12.3 15.2h-5.8V97h5.8v7.4c2.8-5.2 7.3-8 12.9-8v6.5c-7-1-13 3.7-13 12.4zm19.5-20h21.7c-.5-6-4.3-10.4-10.5-10.4-6.4 0-10.3 4.5-11.2 10.4m27.7 4.7h-27.8c1 6.3 6 10.5 13 10.5a21.5 21.5 0 0 0 12.4-3.9v5.6a22 22 0 0 1-12.5 3.8c-11 0-19-7.2-19-18 0-10.5 6.7-18.5 17.3-18.5 10.1 0 16.7 7.5 16.7 17.6a21.4 21.4 0 0 1-.2 3m10.2-2c0 7 5 12.5 12.2 12.5s12.3-5.4 12.3-12.6-5-12.9-12.3-12.9-12.2 5.4-12.2 12.8m24.5 11.4a15.2 15.2 0 0 1-13 6.7 17.2 17.2 0 0 1-17.5-18c0-10.6 7.4-18.3 17.6-18.3a15.2 15.2 0 0 1 13 6.8V86l5.8 3.6v42.7h-5.9zM304 120.5c0 5 3 7 6.8 7a14 14 0 0 0 8.2-2.7v5.6a15.1 15.1 0 0 1-8.7 2.5c-7.5 0-12-3.3-12-12.8V86l5.7 3.6z" class="cls-3"/><path d="M313.4 96.6a4.5 4.5 0 1 0-4.9 7.5h.1a4.5 4.5 0 0 0 4.8 0l5.8-3.6zm-144.6-20c4 0 7-1.7 7-5 0-2-1-3.4-3.6-4.4l-8.3-3.4c-4.3-1.8-6.6-4.3-6.6-8.8 0-6.2 4.9-10 12-10a17.7 17.7 0 0 1 10.7 3.2v6a16.6 16.6 0 0 0-10.6-4.4c-3.7 0-6.4 1.7-6.4 4.5 0 2.2 1 3.5 3.8 4.5l8.4 3.4c4.4 1.9 6.5 4.6 6.5 8.4 0 6.7-5.4 10.8-13 10.8a20 20 0 0 1-12-3.6v-6.2a17.3 17.3 0 0 0 12 5m24-7.6c0 5 3 6.8 6.8 6.8a14 14 0 0 0 8.2-2.5V79a15 15 0 0 1-8.7 2.5c-7.5 0-12-3.3-12-12.8V38l5.7-3.6zm22.7-5.7c0 7.3 5.1 12.6 12.2 12.6S240 70.6 240 63.3c0-7.4-5.1-12.8-12.3-12.8s-12.2 5.4-12.2 12.8M240 74.8a15.4 15.4 0 0 1-13 6.6 17.2 17.2 0 0 1-17.5-18c0-10.6 7.3-18.4 17.6-18.4a15.3 15.3 0 0 1 12.9 6.8v-6h5.9v35H240zm20.6 6h-5.8v-35h5.8v6a14.1 14.1 0 0 1 12.1-6.8c9 0 13.6 6.5 13.6 15v20.8h-5.8V61.1c0-6.8-3-10.5-9.2-10.5-6.5 0-10.7 5.6-10.7 12.6zm37-17.5c0 7.3 5.1 12.6 12.3 12.6s12.3-5.3 12.3-12.6c0-7.4-5.2-12.8-12.3-12.8s-12.3 5.4-12.3 12.8m24.6 11.4a15.2 15.2 0 0 1-13 6.7 17.2 17.2 0 0 1-17.5-18c0-10.6 7.3-18.4 17.6-18.4a15.2 15.2 0 0 1 13 7V38l5.7-3.6v46.4h-5.9zm82.4-11.4c0 7.3 5 12.6 12.2 12.6S429 70.6 429 63.3c0-7.4-5.1-12.8-12.3-12.8s-12.2 5.4-12.2 12.8M429 74.7a15.2 15.2 0 0 1-12.9 6.7 17.2 17.2 0 0 1-17.6-18c0-10.6 7.4-18.4 17.6-18.4a15.2 15.2 0 0 1 13 7V38l5.8-3.6v46.4H429zm-88.8-11.4c0 7.3 5 12.6 12.2 12.6s12.3-5.3 12.3-12.6c0-7.4-5-12.8-12.3-12.8s-12.2 5.4-12.2 12.8m24.5 11.5a15.4 15.4 0 0 1-13 6.6 17.2 17.2 0 0 1-17.5-18c0-10.6 7.3-18.4 17.6-18.4a15.3 15.3 0 0 1 13 6.8v-6h5.8v35h-5.9zm20.6 6h-5.8v-35h5.8V53c2.8-5.2 7.3-8 13-8v6.5c-7-1-13 3.7-13 12.4z" class="cls-3"/><path d="M200.9 53a4.5 4.5 0 1 0 4.8-7.3v-.1a4.5 4.5 0 0 0-4.9 0l-5.8 3.7zm297.7 54.8h3.5v27h-3.5zm25 20.1c0-1.7-1-3-3.3-4l-7-2.7c-3.2-1.3-5-3.2-5-6.5 0-4.5 4-7.4 9.2-7.4a13 13 0 0 1 8.3 2.6v3.6a12.4 12.4 0 0 0-8.2-3.3c-3.4 0-5.8 1.5-5.8 4.2 0 1.8 1 3 3.2 4l7 2.6c3.4 1.4 5 3.5 5 6.3 0 5-4.2 8-10 8a14.9 14.9 0 0 1-9.2-3v-3.7a13.5 13.5 0 0 0 9.4 3.8c3.6 0 6.4-1.5 6.4-4.5m8.9-29.2h3.4v36.2h-3.4zm22.8 33.4c6.1 0 10.5-4.5 10.5-10.7s-4.4-10.8-10.5-10.8S545 115 545 121.4s4.3 10.7 10.4 10.7m-.4 3.2c-8 0-13.5-6-13.5-13.9 0-8.2 5.6-14 13.5-14a11.6 11.6 0 0 1 10.8 6.6v-6.3h3.5V135h-3.5v-6.3a11.5 11.5 0 0 1-10.8 6.7m22-.4v-27.2h3.6v6.1a10.4 10.4 0 0 1 9.5-6.5c4.7 0 7.5 2.7 8.7 7a10.8 10.8 0 0 1 10.1-7c6.7 0 10 5 10 12V135h-3.4v-15c0-6.2-2.4-9.3-7.3-9.3s-8.4 4.4-8.4 10.1V135h-3.5v-15c0-6.2-2.4-9.3-7.2-9.3-5 0-8.6 4.7-8.6 10.7V135zm49.7-27.2h3.5V135h-3.5zm32.5 21.2v3.5a15.1 15.1 0 0 1-9.2 3c-8.3 0-14-6-14-14s5.8-14 14-14a13.6 13.6 0 0 1 9 3v3.8a11.6 11.6 0 0 0-9-3.6c-6.2 0-10.6 4.4-10.6 10.7a10.4 10.4 0 0 0 10.8 10.8 13.2 13.2 0 0 0 9-3.2m-161.4-27.8a2.4 2.4 0 0 1 2.3-2.4 2.8 2.8 0 0 1 1.6.5l2.7 1.9-2.6 1.8a2.9 2.9 0 0 1-1.7.6 2.4 2.4 0 0 1-2.3-2.4M627 103l-2.7-2 2.7-1.8a2.7 2.7 0 0 1 1.6-.5 2.4 2.4 0 0 1 0 4.9 2.8 2.8 0 0 1-1.6-.6M509.9 79c4.1 0 7-1.8 7-5 0-2-1-3.5-3.6-4.6L505 66c-4.4-1.8-6.8-4.4-6.8-9 0-6 5-10 12.3-10a17.9 17.9 0 0 1 10.7 3.3v6a16.9 16.9 0 0 0-10.7-4.4c-3.8 0-6.4 1.7-6.4 4.7 0 2 1 3.3 3.8 4.4l8.4 3.4c4.5 2 6.6 4.7 6.6 8.5 0 6.7-5.4 11-13.1 11a20.2 20.2 0 0 1-12-3.7v-6.3a17.7 17.7 0 0 0 12 5.1m109.7-13.5c0 7.4 5 12.8 12.3 12.8s12.4-5.4 12.4-12.8-5.2-13-12.4-13-12.3 5.6-12.3 13M644.2 77a15.4 15.4 0 0 1-13 6.8c-10.4 0-17.8-7.7-17.8-18.2 0-10.7 7.4-18.5 17.8-18.5a15.3 15.3 0 0 1 13 7V39.8l5.9-3.6v46.9h-5.9zm15-29.3h5.8v35.5h-5.8zm-1.3-8.1a3.8 3.8 0 0 1 3.8-4 4 4 0 0 1 2.5.9l4.2 3-4.2 3a4.1 4.1 0 0 1-2.5.8 3.7 3.7 0 0 1-3.8-3.7m-124.5 26c0 7.3 5.1 12.7 12.3 12.7s12.5-5.5 12.5-12.8c0-7.5-5.2-13-12.5-13s-12.3 5.5-12.3 13M558.2 77a15.5 15.5 0 0 1-13 6.7c-10.4 0-17.8-7.7-17.8-18.2 0-10.8 7.4-18.6 17.8-18.6a15.5 15.5 0 0 1 13 6.8v-6.2h5.9V83h-6zm18.2-11.6c0 7.3 5.1 12.8 12.3 12.8s12.5-5.5 12.5-12.8c0-7.5-5.2-13-12.5-13s-12.3 5.5-12.3 13M601.2 77a15.6 15.6 0 0 1-13 6.7c-10.4 0-17.8-7.7-17.8-18.2 0-10.8 7.4-18.6 17.8-18.6a15.5 15.5 0 0 1 13 6.8v-6.2h5.9V83h-6zm76.3-11.8c0-7.3 5-12.7 12.3-12.7s12.4 5.4 12.4 12.7c0 7.5-5.2 13-12.5 13s-12.2-5.5-12.2-13M708 47.6h-6v6.2a15.3 15.3 0 0 0-13-6.9c-10.3 0-17.7 7.7-17.7 18.2 0 10.8 7.4 18.6 17.8 18.6a15.5 15.5 0 0 0 13-6.7v17.4l5.9-3.6z" class="cls-3"/></g></g></svg>