<svg xmlns="http://www.w3.org/2000/svg" id="Layer_1" width="380" height="130" data-name="Layer 1" viewBox="10 10 380 120">
  <defs>
    <style>
      .cls-1{fill:#1b6031}.cls-2,.cls-3{fill:#fff}.cls-3{fill-rule:evenodd}
    </style>
  </defs>
  <path d="M27.16 109.76h-.43V106a2.38 2.38 0 0 0 .43.6v1.79zm2.84-1.67l.44.12v10.17A1.56 1.56 0 0 1 29 119.9H16.36a2.09 2.09 0 0 1-2.12-2v-10.76a1.85 1.85 0 0 1 0-.23c0-2.08 2.22-3.7 4.22-3.73.5 0 4.23-.06 4.23 2.8v3.79h-4.58c-1.16 0-2-.78-2-1.27v-1.66a1.24 1.24 0 0 1 0-.27c0-1 1.18-1.88 2.64-1.88h.18v3.15c1.89-.07 3.4-.87 3.34-1.87-.17-2.64-3.8-2.35-3.8-2.35a3.77 3.77 0 0 0-3.79 3.28 3.2 3.2 0 0 0 3.18 3.29H28.3c.06 0 1.74.1 1.74-1.5v-.52zm-11.55-3s-2 .19-1.82 1.39 1.82 1.3 1.82 1.3zm19.55-.22a1.91 1.91 0 0 0-.36-1.08c-.93-1.14-3-1.86-5.27-1.86-2.23 0-4.33.72-5.27 1.86a2 2 0 0 0-.35 1.08c0 1.39 1.86 2.57 4.14 3v6.32a7.59 7.59 0 0 1 1.5-.15 7.67 7.67 0 0 1 1.48.15v-6.33c2.29-.43 4.13-1.6 4.13-3zm-.4 3.52v1.37h.43V106a2.66 2.66 0 0 1-.43.6zm89.41 0v1.37h.44V106a2.66 2.66 0 0 1-.43.6zm12.5-1.49a3.76 3.76 0 0 0-3.79-3.28s-3.62-.29-3.79 2.35c-.07 1 1.44 1.8 3.34 1.87v-3.15h.18c1.45 0 2.63.84 2.63 1.88a2.45 2.45 0 0 1 0 .27v1.65c0 .48-.84 1.26-2 1.26h-4.56V106c0-2.87 3.73-2.81 4.23-2.81 2 0 4.22 1.65 4.22 3.73a1.85 1.85 0 0 1 0 .23v10.75a2.08 2.08 0 0 1-2.12 2h-12.66a1.56 1.56 0 0 1-1.45-1.53V108.2l.43-.12v.6c0 1.61 1.67 1.5 1.74 1.5h10.45a3.2 3.2 0 0 0 3.18-3.28zm-3.81.91s1.55 0 1.82-1.3-1.82-1.39-1.82-1.39zm-19.15.58v-1.8a2.38 2.38 0 0 1-.43-.6v3.76h.43zm10.87-3.52a1.91 1.91 0 0 0-.36-1.08c-.93-1.14-3-1.86-5.27-1.86-2.23 0-4.33.72-5.27 1.86a2 2 0 0 0-.35 1.08c0 1.39 1.86 2.57 4.14 3v6.32a7.57 7.57 0 0 1 1.48-.15 7.67 7.67 0 0 1 1.5.15v-6.33c2.29-.43 4.16-1.6 4.16-3zm-8 3.31v.51c0 1.6-1.68 1.5-1.74 1.5H36.49c-.07 0-1.74.1-1.74-1.5v-.61l-.43.12v10.17a1.56 1.56 0 0 0 1.45 1.53h82.65a1.56 1.56 0 0 0 1.45-1.53v-10.17l-.44-.12zM46.75 39.51h60.7a6.08 6.08 0 0 1 6.18 6V100a6.08 6.08 0 0 1-6.18 6h-60.7a6.08 6.08 0 0 1-6.18-6V45.47a6.08 6.08 0 0 1 6.18-5.96zM71.18 23.58a7.36 7.36 0 0 0-.05 1.16c0 .34 0 .55-.14.5s-.14-.53-.24-.71a3.31 3.31 0 0 1-.09-.92c0-.43.41-.44.41-.44s.14.3.11.4zm10.69-5.28c-.27 0-.63.28-1.41.52s-.7.47-1 .87 0 .31.22.24.52-.27.82-.42 1.28-.54 1.42-.6.16-.18.3-.47-.08-.16-.35-.13zm1.26 5.55s.24-.23.43-.38 0-.3 0-.3l-.37-.33c-.18-.15-.24-.07-.36 0s-.18.2-.32.33 0 .27 0 .27l.4.36c.16.2.22.05.22.05zm.06 3c.2.19.26 0 .26 0s.24-.24.42-.39 0-.3 0-.3l-.36-.32c-.18-.15-.24-.08-.36 0s-.19.21-.33.33 0 .27 0 .27.18.22.37.42zm3.7 3a4.36 4.36 0 0 1 .26 3.52c-.6 1.23-1.27 1.33-1.47 1.33a1 1 0 0 1-.77-.31c-.13-.19-.17 0-.25.05a1.27 1.27 0 0 1-1 .32 1.35 1.35 0 0 1-.92-.35c-.08-.1-.16-.12-.22 0a1.33 1.33 0 0 1-.92.41 1.41 1.41 0 0 1-1.09-.5 13.52 13.52 0 0 1-4.2 1.34 8.37 8.37 0 0 1-3.5-.88c-.23-.16-.4-.11-.42 0s-.74 1.46-1.52 1.12a2.52 2.52 0 0 1-1-1.42 15.36 15.36 0 0 0-1.06 1.29.89.89 0 0 1-1.66-.3A2.72 2.72 0 0 1 67.9 33a1.45 1.45 0 0 1-.22-1.93 6.37 6.37 0 0 1 1.12-1.33.78.78 0 0 1-.11-.18c-.32-.72.07-3.24.64-3.6s.42 0 .23.33-.19.44-.26 1.56 1.2.6 1.59-.22a4.24 4.24 0 0 1 1.36-1.9c.52-.26.36-.7.32-1s-.16-1.93-.16-2.4.23-.62.51-1 .36-.1.36.34a31.38 31.38 0 0 0 .26 3.21c.1.32.13.46.4.55s.34-.09.34-.09l1.1-1a2.61 2.61 0 0 1 .83-.47s0-.1-.54-.27-.88-.1-1.35-.29-.49-.16-.26-1.1 1.09-.76 1.58-.82 2.55 0 3.5 0h2.54c.3 0 .69 0 .49.22s-.65.67-.61.82-.38.36-.74.4a10.53 10.53 0 0 0-2.82.75 1.08 1.08 0 0 1 .24 1c0 .28-.35.43-.5.46s-.07-.09-.07-.4-.36-.38-.75-.4a.51.51 0 0 0-.2 0 4.47 4.47 0 0 0-.91.93c-.26.27-.46.55-.13.68a1.75 1.75 0 0 0 .8 0c1.74 0 3-1.18 3.94-1.62s1.59.2 1.62 1.4-1.45 4.57-4.72 4.57A4.22 4.22 0 0 1 73 27.54c-.07-.23-.23-.9-.8-.59s-1.36 2-1.81 2.74a1 1 0 0 1-1.4.3c-.64.34-.99 1.42-.33 1.73s.87-.11 1.26-.5 1.53-2.07 1.9-2.19a1.35 1.35 0 0 1 1.52.34 6.7 6.7 0 0 0 5 1.92c1.83-.07 4.28-1.31 4.8-1.48s1-.34.68-.54-.9-.22-1.1-.43a1.31 1.31 0 0 0-1.12-.2c-.3.12-.79.22-.53 0a2.21 2.21 0 0 1 1.94-.83c.92.2 1.67 1 2.51.85.48-.07.72-.26.74 0s-.32 1.21-.83 1.29a7.37 7.37 0 0 0-2.55.77c-1.57.72-5.17 3.06-8.48 1.25 0 0-.62-.64-1.06-.39a1.52 1.52 0 0 1-2 .14s-.48-.69-.69-.37-1 2.07-2 2.06a1.48 1.48 0 0 1-.61-.15c-.28.34-.49 1.34-.06 1.44a1.6 1.6 0 0 0 1.48-.73 9.7 9.7 0 0 1 .87-1l.06-.07a3.53 3.53 0 0 1 .34-.32c.34-.28.82-.44 1.64 0a7.52 7.52 0 0 0 4 1.42c1.81 0 4.08-.24 4.67-1.3 0 0 .2-.1.23 0a.83.83 0 0 0 .91.67c.64 0 .93-.27 1-.62 0-.18.36-.14.36 0s.12.58.67.58.76-.24.81-.53.28-.26.31 0c.05.41.26.53.8.53s.68-.57.53-1.1a7.76 7.76 0 0 0-.62-1.39c-.07-.12-.07-.24.1-.43s.21-.19.24-.46.3-.41.5-.09zm-15 .61l.31.29c.31.28.43.09.43.09a.75.75 0 0 1 .17-.17c.1-.07 0-.25-.06-.32s-.19-.12-.42-.33-.24-.19-.44.05a.25.25 0 0 0 .02.41zm5.55-7.16a39 39 0 0 1 1.32-.54c.68-.24.7-.45.52-.52a25.21 25.21 0 0 0-4.25.07c-.14.22.25.25.77.41a16.89 16.89 0 0 1 1.66.6zM75.11 28a2.16 2.16 0 0 0 .9 1 3.54 3.54 0 0 0 3.22-.09 3.31 3.31 0 0 0 1.61-3.34c-.06-1.25-1.42-.06-2.1.47a3.68 3.68 0 0 1-2.6 1.21c-1.57-.08-1.1.41-1.03.75zm-3.17 5.92a6.22 6.22 0 0 1-.51-.38c-.24-.2-.38-.1-.6.15a.27.27 0 0 0 0 .41l.35.32c.32.29.45.08.45.08a3.25 3.25 0 0 0 .37-.23c.1-.13 0-.27-.06-.4zm-3-12.31a4.27 4.27 0 0 1 .06-2.47c-.77-1.83-.78-3.68 1.08-4.33 2.73-1 5.16 1.92 6.33 3.14a10.17 10.17 0 0 1 .67 1c.22-.36.57-.82.68-1 1.17-1.22 3.6-4.09 6.33-3.14 1.9.67 2 2.72.84 4l-.25.3c.2 0 .87.06 1.24 1s-.52 2.67-.77 3.2a2.74 2.74 0 0 0-.37 1.27c0 .34.2 1.1 0 1.2s-.09 0-.36-.59a2.8 2.8 0 0 1 .08-1.95 4.65 4.65 0 0 0 .36-2.16c-.06-1-1-.83-1.3-.75s-.14-.27-.14-.27.25-.29.53-.69a4 4 0 0 0 .16-2.14.33.33 0 0 1 0-.1 1.83 1.83 0 0 0-2-1.22c-2.51.13-4.85 3.37-4.87 3.4s-.33.05-.35 0-2.48-3.07-4.9-3.3a1.93 1.93 0 0 0-1.99 1 1.33 1.33 0 0 0 0 .69c.11.37.22.27.5.11a1.16 1.16 0 0 1 1.1.18c.25.22 1.17 1.23.47 3.24s-2 .74-2.35.39-.27-.23-.35 0a2 2 0 0 0 .11 1 3.81 3.81 0 0 1 .16 1.15c0 .3-.14.34-.31.34s-.52-.37-.83-.73-.24-1.33-.33-1.46-.08-.25-.22-.35a.2.2 0 0 1 0-.32c.09-.05.34.08.39.3a.67.67 0 0 0 .44.48c.13-.02.22-.09.15-.46zm1.3-1.6l.36.67c.19.37.72.29 1 .06a.73.73 0 0 0 .06-.84 1 1 0 0 0-.8-.5c-.4 0-.36 0-.56.32s-.06.29-.06.29zm15.7-8.32c-3.39-1.48-7 2.71-8.66 4.46l-.18.21-.19-.21c-1.67-1.75-5.27-5.94-8.65-4.46a5.38 5.38 0 0 0-3 7.37c1.16 2.67 2.53 5.11 2.74 6.23a4.64 4.64 0 0 1 0 1.79s.34.63.38 0a6.08 6.08 0 0 0-.28-3c-.54-1.65-2.36-5.84-1.71-8A4.07 4.07 0 0 1 70.53 13c1.42.11 3.32.59 6.3 3.8a.27.27 0 0 0 .44 0c3-3.2 4.88-3.68 6.3-3.79A4.07 4.07 0 0 1 87.75 16c.65 2.15-1.16 6.34-1.71 8a6 6 0 0 0-.27 3c0 .63.37 0 .37 0a4.55 4.55 0 0 1 0-1.79c.2-1.12 1.57-3.56 2.74-6.23a5.39 5.39 0 0 0-2.94-7.34zm-9.19 2.7c-.25 0-.11.2-.1.43s.12.25.33.33a.28.28 0 0 0 .36-.1 1.2 1.2 0 0 0-.1-.63c-.07-.17-.24-.1-.49-.06zm.13-2.91c.26.09.32.1.36 0s.08-3 .08-3.27 0-.38-.21-.29-.4.22-.44.39a23.83 23.83 0 0 0-.07 2.4c.03.3.02.64.28.73zm-.7 2.44a.85.85 0 0 0 .74-.47s.5.7 1 .38a1.36 1.36 0 0 0 .75-1.38c0-.68-.06-.94-.2-1s-.16-.06-.3 0a.6.6 0 0 0-.3.55c0 .26 0 .49.2.56a.29.29 0 0 1 .1.44.68.68 0 0 1-.63.25c-.44-.1-.56-.66-.57-.8s-.14-.13-.15 0-.2.82-.6.79-.57-.58-.57-.73-.26-.2-.26 0 .1 1.32.8 1.37zM83 35.27c-.2-.08-.41.19-.61.32a13.12 13.12 0 0 1-1.38.49 2.3 2.3 0 0 0-.53.31c0 .08-.36.54-.47.73s.23.05.36 0 1-.46 1.66-.67.81-.32.83-.43a1.5 1.5 0 0 1 .39-.43c.15-.1-.05-.24-.25-.32zm3.13.78s-.24-.24-.5-.46-.33-.1-.49 0-.26.3-.45.46 0 .37 0 .37.28.23.55.5.37 0 .37 0 .33-.32.58-.53-.06-.34-.06-.34zm-15.9-10.38c.15.11.37 0 .27-.4s0-.62-.08-.8-.14-.53-.25-.57-.15.2-.07.52a4.16 4.16 0 0 1 0 1.07c0 .1.04.13.12.17z" class="cls-1"/>
  <path d="M53.89 61.16v.11l.06-.2s-.04.03-.06.09zM66.43 76.63a12.29 12.29 0 0 0 .75 2.14 18.06 18.06 0 0 1 .49 2.23c0 .36.27.9.28.25a8.31 8.31 0 0 0-.24-2.81 12.47 12.47 0 0 1-.9-2.24 8.18 8.18 0 0 1-.17-1.6 1.5 1.5 0 0 0-.09-.57s-.45.23-.1 2.6zM59.2 47.66a2.85 2.85 0 0 0-.43-.15c-.56-.19-1.11.32-.86.58s.7.28 1.07.53 1 .55 1.07 1.11.46 1.76 1.52 1.81 1.73-.42 1.73-1.37a1.42 1.42 0 0 1-1.47-.42 4.07 4.07 0 0 1-.42-.65 17.89 17.89 0 0 1-.6-2c-.06-.33-.24-.62.12-.46s.69.41 1 .36.54.48.26.79-.84.86-.45 1a.51.51 0 0 0 .17 0c4.65-2.68 12.05-3.83 19.6-2.54 8 1.35 14.49 5 17.74 9.32v-3h3.17c-3.68-4.73-11.61-8.5-21.11-9.46-8.06-.82-15.81.66-20.69 3.48-.07-.64-.47-2.13-1.79-2.13S57.5 46 57.5 46a1.07 1.07 0 0 1 1.15.26 3.39 3.39 0 0 1 .55 1.4zM68.5 102.64l-.77-2.25 1.99-1.4-2.45.01-.76-2.26-.75 2.26h-2.46l2 1.4-.77 2.24 2-1.4 1.98 1.4zM79.29 102.64l-.77-2.25 2-1.4-2.46.01-.76-2.26-.76 2.26h-2.46l1.99 1.4-.76 2.24 2-1.4 2 1.4zM90.08 102.64l-.76-2.25 2-1.4-2.47.01-.76-2.26-.76 2.26h-2.45l1.98 1.4-.76 2.24 2-1.4 1.98 1.4zM100.87 102.64l-.76-2.25 1.99-1.4-2.46.01-.76-2.26-.76 2.26h-2.46l2 1.4-.77 2.24 1.99-1.4 2 1.4zM57.7 102.64l-.76-2.25 2-1.4-2.47.01-.76-2.26-.75 2.26h-2.47l1.99 1.4-.75 2.24 1.98-1.4 2 1.4zM84 93.57a.27.27 0 0 0 .21-.22 2.11 2.11 0 0 1 .21-.85c.2-.32.5-.51.33-.29s-.28.93-.08 1.13a.61.61 0 0 0 .39.17c1.38-.06 1.79-.27 2.33-1a9.17 9.17 0 0 1 2.44-2.54 33.06 33.06 0 0 0 3-1.87c.58-.54 1-2-.41-2.2-1.16-.18-1.45-1.4-1.8-2.4a5.25 5.25 0 0 0-1.1-1.63 12.43 12.43 0 0 0-2.27.43A18.25 18.25 0 0 0 84 83.72c-.94.52-.79 1 .38 1.94s1 .47 2.27 1.11.22 1.63.22 1.63-1.17 1.3-1.34 1.44-.57.69-1.83.26-2.07-.43-2.52.07-1.43 1.06-1.71 1.83c-.22.57.14.93.67 1.17a.33.33 0 0 0 .41-.2 2.34 2.34 0 0 1 .43-1c.31-.32.64-.52.4-.25a2.09 2.09 0 0 0-.38 1.4.65.65 0 0 0 .53.35H81.88c.14 0 .39 0 .45-.22a3 3 0 0 1 .62-1.19c.31-.27.62-.42.39-.2a1.91 1.91 0 0 0-.46 1.32.57.57 0 0 0 .41.35c.2.03.44.05.7.04z" class="cls-2"/>
  <path d="M60.23 85.2a30.09 30.09 0 0 1 .43 3.22c0 1-.34 1.12-.91 1.48s-1.2 0-2.53 0a2.23 2.23 0 0 0-2.1 1.21 2 2 0 0 0 .28 2l.08.06c.1 0 .29 0 .32-.18a2.84 2.84 0 0 1 .38-1c.22-.27.49-.46.32-.24s-.5 1.25-.2 1.51a.74.74 0 0 0 .28.18l.41.06a.24.24 0 0 0 .2-.2c0-.24-.06-.58.16-.86s.49-.46.32-.24a1.41 1.41 0 0 0 0 1.22.49.49 0 0 0 .27.15h.24a.52.52 0 0 0 .48-.24c-.24-1.27.06-1.74.76-2.17a3.33 3.33 0 0 1 2.27-.1 8.45 8.45 0 0 0 .91.21 1.28 1.28 0 0 1-.95 0 3 3 0 0 0-2.11.17 1.85 1.85 0 0 0-.46 2.14 1.07 1.07 0 0 0 .48.57 1.65 1.65 0 0 1 .16-.9c.22-.28.49-.46.33-.24a1.42 1.42 0 0 0-.07 1.27 1.46 1.46 0 0 0 .35.24 4.51 4.51 0 0 0 .58.11c.05-.24 0-.72.18-1s.49-.46.32-.23a1.43 1.43 0 0 0 0 1.2.61.61 0 0 0 .27.16 7.42 7.42 0 0 0 .76 0 .19.19 0 0 0 .15-.17c.05-.24 0-.73.17-1s.5-.46.33-.24a1.45 1.45 0 0 0 0 1.22.79.79 0 0 0 .61.18h.5c2 0 2.2-2.5 2.39-3a.11.11 0 0 0 0-.06 2.56 2.56 0 0 1 2-1.82 17.63 17.63 0 0 0 2.89-1.79 2.44 2.44 0 0 0 .89-2 11.09 11.09 0 0 1 1.25-3.74c.26-.35.21 0 .08.38a19.8 19.8 0 0 0-.72 2.73c-.1.8.42.8.42.8 4.9.27 10.21-2.41 12.14-3.42a10.32 10.32 0 0 1 3.84-1.09 1.93 1.93 0 0 1-.48-.42c-.39-.39-1.46-1.58-1.46-1.58 1 .18 1.2.88 3.2 3.09S96.47 87 98.26 87s1.74 1.9 1.74 2.94-.09 1.1-.47 1.21S99 91 97.82 91c-1.64 0-1.9 1.21-1.93 2.06a1.57 1.57 0 0 0 1 1.49c.13 0 .36.07.4-.13a2.12 2.12 0 0 1 .27-1c.27-.34.53-.43.33-.16s-.34 1.12-.1 1.37a.81.81 0 0 0 .5.2h.24a.28.28 0 0 0 .27-.2c.06-.27 0-.7.26-1s.55-.5.36-.27-.33 1-.12 1.24a.7.7 0 0 0 .41.2h.35a.26.26 0 0 0 .23-.2 1.77 1.77 0 0 1 .2-.9c.22-.28.49-.46.32-.24s-.28.93-.08 1.12a.79.79 0 0 0 .59.18c2-.14 2-3 1.93-4.72a12.19 12.19 0 0 1 .8-4.22c.42-1.33 0-1.6-.32-1.88s-.08-.25-1.6-.22-2.14-2.42-2.44-2.98.31-2.33.31-2.33c.73-3.06-.05-3.65-.52-4.52a1.54 1.54 0 0 1 .04-1.47c1.47-1.66 2.13-4 .51-5.78-1.9-2.16-5-2-8-1.74s-6.24 1-8 1.24c-5.05.64-8.05-.9-8.05-3.08A2.1 2.1 0 0 1 77.8 61a11.06 11.06 0 0 1 1.66-.29 6.17 6.17 0 0 0 3-.8 4.52 4.52 0 0 1 3.16.05 5.46 5.46 0 0 0 1.58.04 6.46 6.46 0 0 1-3.09.08 3.37 3.37 0 0 0-2.62.7l.17.16c1.81 1.58 4.58.88 5.84.42 1.87-.67 3.57 0 3.65-.39s-.57-.14-1.83-1a8.42 8.42 0 0 0-4.69-1.91c-2.45 0-3 1.12-4 1.12-.62.05-1.14.09-1.82.17a8.8 8.8 0 0 0-2.07.48 3.2 3.2 0 0 0-2.28 3.22c0 3.82 4.86 5.11 9.73 4.49 1.41-.17 4.44-.83 7.38-1.15s5.55-.22 6.54.92a2.61 2.61 0 0 1 0 3.72c-.55.26-1.18-.4-2.6-.87s-4.24.2-6.77.93-6.3.32-8 .13-6.09-1.36-8.17-1.71c-.12.33.23.38.21.73v.24a10.18 10.18 0 0 1-.1 2.57c-.17 1.15-1.15 2-1.14 2.14s-.13 1.89-.24 2.76a10.77 10.77 0 0 1-1.3 2.88.39.39 0 0 1-.38.06 2.21 2.21 0 0 1 0-.77c0-.11.12-.13.26-.22s0-.27-.1-.32-.22.18-.48.53a3.67 3.67 0 0 0-.5 1.47c-.05.4-.09.67-.25.7a1.07 1.07 0 0 0-.63.33c-.2.23-.22.36-.33.35s-.08-.25-.1-.3-.15-1-.2-1.76a18 18 0 0 0-1.3-3.45 12.89 12.89 0 0 1 0-3c0-.18 0-.24-.31.09-.09.1-.12.11-.13.09l-.12.14a4.82 4.82 0 0 0-.63 2.17 9.08 9.08 0 0 0-.09 2.81c.13 1.64 1.18 2.12 1.66 2.75.15.2.88 1.25.89 1.1a.8.8 0 0 1 .18-.44c.1-.1.25.08.21.15a1.11 1.11 0 0 0-.07.48 4.29 4.29 0 0 1-.1 1.2c-.14.29-.29.25-.29.25v-.2a2.11 2.11 0 0 0-.33-1.42.5.5 0 0 0-.4-.22v.27a6.13 6.13 0 0 1-.29 2 3.73 3.73 0 0 1-.93 1.06 6.13 6.13 0 0 0-.11-1.25 1.86 1.86 0 0 0-.83-1.11.72.72 0 0 0-.63-.12l.08.17a3.45 3.45 0 0 1 .21 1.76c0 .49-.5.99-.5 1.28s-.05 1.67-.1 1.8-.44.27-.44.27a1.74 1.74 0 0 0 .11-.5 10 10 0 0 0 0-2.12c-.06-.34-1.1-.84-1.77-1.14a2.15 2.15 0 0 1-1-1c-.12-.24-.07.14-.05.4zM53.51 55.37c.07-.08-2.41-2.79-2.43-2.79a2.58 2.58 0 0 0 0 2.09l.27.3a2.93 2.93 0 0 0 2.16.4zM56.33 52.79a3.16 3.16 0 0 1-1.67-.74 2.9 2.9 0 0 0-1.6-.58.43.43 0 0 1-.2 0c-.24 0-.32.16-.28.33s.32.32.29.41-.07.17-.12.13c-.24-.27-.67-.71-1-.47s-.46.47-.21.76L53.6 55a.53.53 0 0 0 .81.08.83.83 0 0 0 0-1.06 4.07 4.07 0 0 0 1 .06 1.47 1.47 0 0 0 1.12-1.28zM61.29 47.12a.76.76 0 0 0-.06.63c.11.26.17.37.32.3a.8.8 0 0 0 .37-.33c.08-.15.2-.18 0-.3s-.58-.42-.63-.3zM55.68 72.75a6.88 6.88 0 0 0-1 2.34 6.07 6.07 0 0 0 1.41 4.76l.06.1s.07-.18.11-.34a.7.7 0 0 0-.18-.73c-.21-.22-.1-.37-.1-.37a.43.43 0 0 1 .28.1c.16.1.29.41.4.14s.44-1.26.44-1.26a15.92 15.92 0 0 0 .26-1.59 25.43 25.43 0 0 0 0-2.89 6.58 6.58 0 0 0-.16-1.24c-.08-.22-.32-.63-.43-.22a6 6 0 0 1-.3 1.21c-.12.25-.33.41-.42.37s-.21 0-.08-.24a.7.7 0 0 0 .13-.43c0-.11-.19 0-.3 0a1.36 1.36 0 0 0-.19.25z" class="cls-2"/>
  <path d="M56.87 80.84a2.18 2.18 0 0 0 .35 1.17 2.08 2.08 0 0 0 1.07.87l-.19-.6.81.48a4.45 4.45 0 0 1 .11-2.59 4.56 4.56 0 0 0 .44-3.29c-.44-1-.44-.87-.44-.87l.19-.12a2.82 2.82 0 0 1 .66 1.21 12.5 12.5 0 0 1 0 3c0 .2-.07.39-.09.58a5.57 5.57 0 0 1 0 .56 5.89 5.89 0 0 0 1.09 3.35 1.17 1.17 0 0 0 1.16.62s-.15-.28.06-.36c.37-.15 1.34 1.45 1.34 1.45s.15-.12.25-.87a3.55 3.55 0 0 0-.87-2.13 3.48 3.48 0 0 1-.5-1 .56.56 0 0 1 .22.24 2.48 2.48 0 0 0 1.29.74 2.89 2.89 0 0 1 1.47 1c.14.28.61.71.65.59a3.2 3.2 0 0 0 .23-1.28 2.48 2.48 0 0 0-.42-1.43 3.06 3.06 0 0 0-1-.93 2.4 2.4 0 0 0-.13-.56c-.09-.22-.36-.14-.36-.14a1.75 1.75 0 0 1-.1.4c-.07.14-.36-.06-.36-.06a1.46 1.46 0 0 1 .11-.31 6.29 6.29 0 0 0 0-1.7 3.39 3.39 0 0 0-.74-1.41 2.61 2.61 0 0 1-.37-1.23v-.81c0 .02-.28.1-.49.72a2 2 0 0 0 .18 1.36 9.38 9.38 0 0 0 .68 1c.14.18 0 .55 0 .43s-.08-.2-.3-.47-.65-.85-.86-1.17a3.73 3.73 0 0 1-.18-1.47c0-.22 0-.37-.12-.36a.26.26 0 0 0-.1.13 7 7 0 0 0-.33 1.67c0 .2-.2.06-.2-.08a6.68 6.68 0 0 0-.23-1.63 2.72 2.72 0 0 0-1.14-1.42c-.58-.46-.82-.66-.9-1s-.36-.15-.58.3a4.29 4.29 0 0 0-.29 2.5 4.38 4.38 0 0 1-1 2.8 4.92 4.92 0 0 0-.06 2.13z" class="cls-2"/>
  <path d="M63.42 75.57a1.55 1.55 0 0 0-.1 1.59 6.69 6.69 0 0 0 .64 1c.09.12.3.26.28-.15a4 4 0 0 0-.41-1.26 2.27 2.27 0 0 1-.16-.82c-.01-.22-.13-.6-.25-.35zM67.42 72.43c-.2-.45-.38 1.19-.38 1.19 0 .46-.07.56-.08 1a7.38 7.38 0 0 0 .71 2.73 12.24 12.24 0 0 1 .68 2.26c.05.26.2.3.2.3a2.15 2.15 0 0 0 .3-.45 5.46 5.46 0 0 0 .3-1.9 7.26 7.26 0 0 0-.77-2.36 13.63 13.63 0 0 1-.96-2.77zM71.35 72.41c-.06-.4-.28-1.4-.35-1.55a4.36 4.36 0 0 1-.06-.81c.24 0 .3.57.3.57a14.69 14.69 0 0 1 .62 2.29c0 .13.25 0 .36-.19a12.36 12.36 0 0 0 .11-2.18s0-.3-.06-.57a.45.45 0 0 0 0-.16 18.92 18.92 0 0 0-.7-2.76c-.13-.37-.24.41-.4.62a1.51 1.51 0 0 0-.33 1.1c0 .58-.32-.1-.32-.1a9.33 9.33 0 0 0-.38-1.44c-.22-.56-.9-1.51-1.53-1.59s-.51.3-.46.53.22.19.52.45a5.61 5.61 0 0 1 1.06 2 16.88 16.88 0 0 1 .47 2.13c0 .08 0 .21.07.34s.28.86.33 1a5.94 5.94 0 0 1 .44.88c.28.46.4.03.3-.56zM67 60.11c-.19.27.22.19.22.19a1.39 1.39 0 0 1 .65-.1 2.52 2.52 0 0 1 1.39.42 4.32 4.32 0 0 1 1.23 1.12c.07.16.26 0 .26 0a2.17 2.17 0 0 0-.16-.8 2.11 2.11 0 0 0-1.6-1.22 2.16 2.16 0 0 0-2 .4z" class="cls-2"/>
  <path d="M67.56 62.13c-.3.36 0 .25 0 .25a2.77 2.77 0 0 1 1.29.11c.84.27 1.22 1.55 1.33 1.87a20.32 20.32 0 0 0 .07 2.21 6.89 6.89 0 0 0 .36.73c.12.19.14.11.2 0a6.64 6.64 0 0 0 .5-1.49 6.69 6.69 0 0 0-.49-3.19 2 2 0 0 0-2.15-1.22 1.65 1.65 0 0 0-1.1.73zM67.85 71.93A3.39 3.39 0 0 0 68 73v.06a8.79 8.79 0 0 0 .38 1c.22.48 1.28 2.82 1.39 3.34a6.1 6.1 0 0 1 .13 1.42.19.19 0 0 0 .1.18 1.09 1.09 0 0 0 .51-.47 7.83 7.83 0 0 0 .49-2.28 1.64 1.64 0 0 1 .27-1 .46.46 0 0 0-.19-.5s-.11.21-.06-.71a4.18 4.18 0 0 0-.59-1.84l-.24-.36-.01-.07a5.9 5.9 0 0 1-.53-1.25A5.89 5.89 0 0 0 69.5 69a6.28 6.28 0 0 0-.82-1.74c-.21-.11-.29 0-.29.14v1.75a1.12 1.12 0 0 0-.17.72c0 .59 0 .81.25 1a2.9 2.9 0 0 1 .33.9 5 5 0 0 1 .61 1.52c0 .5.2 1.22.17 1.31s-.13 0-.21-.14a4.1 4.1 0 0 1-.17-.69 3.11 3.11 0 0 0-.42-.94c-.11-.2-.21-.42-.29-.6a4.24 4.24 0 0 0-.49-1.06c-.18-.11-.22 0-.18.13a1.66 1.66 0 0 1 .03.63zM65.31 65.83h-.33s-.11.29-.13.38a.59.59 0 0 0 .37.05c.23-.05.4-.4.1-.43zM58.77 66.13c-.31.08-.1.4.14.45a.51.51 0 0 0 .36-.09 3.21 3.21 0 0 0-.17-.36s0-.07-.33 0z" class="cls-2"/>
  <path d="M69 63.31a1.22 1.22 0 0 0-1.12-.12c-.39.1-.54.44-.83.22s-.13-.41 0-.69a3.59 3.59 0 0 0 0-1.16c0-.17-.32.11-.32.11s-.46.15-.6 0-.27-.6-.8-.28a3 3 0 0 1-1.77-.2 4.4 4.4 0 0 1-1.28-1.08 3.66 3.66 0 0 1-.1-1.12c0-.16.09.13.14-.25s.32-.56.48-.36a1.17 1.17 0 0 1 .15.23.94.94 0 0 0 .24-.51c-.01-.28.07-.38.2-.41a1.17 1.17 0 0 0 .32-.12 4.14 4.14 0 0 1-.13.56c-.05.1-.53.45-.56.86s-.21.18-.23.41a1 1 0 0 0 .1.7c.13.14.19.14.19.14s0-.46.26-.63l.26-.16a1.57 1.57 0 0 0-.13.44c0 .15.29.43.29.43a1.63 1.63 0 0 1 .4-.74 1.18 1.18 0 0 1 .7-.33H65a1.81 1.81 0 0 0-.52.49c-.17.25-.3.43-.22.66s.16.28.16.28a1.25 1.25 0 0 1 .27-.54.63.63 0 0 1 .58-.13.47.47 0 0 0-.29.29c-.06.2-.21.27 0 .45a.71.71 0 0 0 .87.06c.21-.23.77-1.36 1.19-1.49a4.27 4.27 0 0 1 1.6-.3c.52.08.36 0 .36 0s-.37-.76-1.06-.67-.87.67-1.2.19-.68-1.21-1.31-1.13.13-.28-.32-.46-.05-.74-.87-.9-1.16 0-1.32-.12a1.47 1.47 0 0 0-1-.2c-.63 0-.94-.26-1.58.18s-.58.69-.58.69a1.8 1.8 0 0 0-1 .18c-.31.23-.81.4-.89.7s-1.19.24-1.32 1.16v.2s-1 .13-1 .33-.44.36 0 .73c0 .25-.42.18-.57.24a1.85 1.85 0 0 0-1 1.2l-.06.19a1.24 1.24 0 0 0 0 .16.56.56 0 0 0 0 .36c.09.2.17.15.29 0s.3-.2.36-.1.09.15 0 .25a2.08 2.08 0 0 0-.64.93c0 .3-.22.4-.21.68a1.89 1.89 0 0 1 0 .24v2.19a.23.23 0 0 0 .3 0c.12-.06.39-.2.38 0s0 .27-.11.33a1.82 1.82 0 0 0-.56 1V69.19c0 .12.09.29.1.28l.3-.28c.1-.08.35-.37.43-.2s0 .2-.16.45a4.64 4.64 0 0 0-.4 1.68v.6a8.94 8.94 0 0 0 .34 1.21c.25.69.55 1.07.77-.23a.1.1 0 0 1 0-.08c0-.22.1-.5.13-.7a5.07 5.07 0 0 1 .37-1.45c.21-.37.08-1.07.33-1.37.13-.14.07-.36-.18-.3s-.2 0-.19-.14.26-.37 0-.31-.36.14-.4.2-.18.13-.22 0 .1-.3.43-.6.47-.43.5-.65.15-.92.15-1-.14-.07-.24-.06a.43.43 0 0 0-.27.32c-.05.2-.23.1-.24-.1s.35-.6.46-.72.11-.13.1-.31-.06-.25-.21-.17a.42.42 0 0 1-.43.05c-.15-.08.08-.15.18-.23s.32-.36.48-.53a.48.48 0 0 0 .15-.3v-.92c-.06-.07-.08.1-.24.2s-.14.23-.35.26-.24-.07-.24-.12.18-.23.28-.36.25-.51.39-.73 0-.52.38-.5l.15-.14c-.44-.3-.55-.55-.4-.7s.43.22.44.15c.9.06 1.39 0 1.67.19l.3.06s.09-.38-.07-.56h.59c.21 0 .34-.31.13-.55l-.29-.3a.78.78 0 0 1 .53.18 2.3 2.3 0 0 0 .26.23 1.65 1.65 0 0 0-.13-.56 1.25 1.25 0 0 1-.13-.33.72.72 0 0 1 .55.46l.22.55a3.85 3.85 0 0 0 .15-.63 2.85 2.85 0 0 1 .06-.34 1.53 1.53 0 0 1 .31.42 3.37 3.37 0 0 0 .24.4s0-1.15.08-1.33l.05-.35a2.48 2.48 0 0 0 .29.43c.16.18.21.18.21.18a4.6 4.6 0 0 1 0-.6c0-.1 0-.24.16-.2s.2.69.16 1.23a.91.91 0 0 1-.61.78c-1.21.35-1.12 1.24-1.74 1.32h-2a.85.85 0 0 0-1 .78 6.71 6.71 0 0 0 0 2.18 13 13 0 0 0 .19 2.8c.29.75 1.29 2.74 1.4 3.3a3.38 3.38 0 0 0 1.66 2.62 19.82 19.82 0 0 1 1.9 1c.1.15.36.39.54.1s.73-.92.46-1.41a1.42 1.42 0 0 0-.32-.42c-.15-.11-.37-.14-.31-.33a.23.23 0 0 1 .28-.11.68.68 0 0 0 .65-.1c.14-.11.6-.17.59.08s-.35.28-.3.56-.14.36.18.7.2.83.35 1.1c0 0 .36.38.85-.2a1.19 1.19 0 0 0 .18-.3s2-1.67 2.22-2.93a14.89 14.89 0 0 0 .2-3.06 4.07 4.07 0 0 0 .08-3s-.5-1.3.23-1.63 1.3-.11 1.47.26l.17.38s.44-.84-.08-1.13zM62.55 70a1.31 1.31 0 0 0 1.16-.46.38.38 0 0 1 .2-.13c.09 0 .08.08.08.18 0 .57-.64 1-1.43 1s-1.32-.32-1.32-.88c0-.1 0-.17.07-.19a.26.26 0 0 1 .17.12c.25.36.6.36 1.08.36zm-3.69-3c-.55 0-.86-.66-.91-.74s.33-.38 1.15-.46a1.73 1.73 0 0 1 1.41.52.68.68 0 0 0 .42.12c.18 0 .18-.1-.1-.39a2.16 2.16 0 0 1-.35-.29 2.1 2.1 0 0 0-1-.46l-.38-.1s-.06-.38.4-.26.7.07.43-.17-.48-.55-.8-.58-.34 0-.54 0-.22-.28 0-.28h.23c.53 0 .46-.25 1.09.17s1.43.9 1.57 1 .37.52.06.52-.58.12-.26.36.63.22.66.45a2.64 2.64 0 0 1 .06.9c-.09.11-.18 0-.23-.19s0-.49-.26-.66a1.13 1.13 0 0 0-.26 0c-.28 0-.24.22-.26.43.16.3-1.2.03-2.13.1zm5.68 4.4a3.51 3.51 0 0 0-.88.08c-.18 0-.68.26-.68.26h-.42a4.52 4.52 0 0 0-.67-.08 2.52 2.52 0 0 0-.65.05c-.2 0-.52 0-.52-.23s.24-.33.57-.28a17 17 0 0 0 2.73 0c.26 0 .68-.28.8-.17s.18.34-.28.34zm.77-4.71c-1 0-2.33.47-2.1.05a5.41 5.41 0 0 1 .34-.5 1 1 0 0 0 0-.2c0-.34-.06-.34-.15-.37s-.17 0-.07-.1c.27-.29-.06-.26-.38-.2s-.14-.37 0-.53a7.25 7.25 0 0 1 .8-.78c.55-.49.8-.22 1.32-.27s.28.31-.52.45a1.11 1.11 0 0 0-.77.57c-.18.3.65.26.39.48l-.2.13-.06.09c-.1.16-.18.36 0 .38a1.74 1.74 0 0 1 1.06-.37c.83 0 1.24.25 1.2.34s-.31.77-.86.79zM59.44 49.5a3.43 3.43 0 0 0-1.16-.85 3.91 3.91 0 0 0-1.44-.37 1 1 0 0 0-1 .94v.11a.91.91 0 0 0-.41-.09 1 1 0 0 0-1 .94c0 .08.08.28-.08.23a1.42 1.42 0 0 0-.57-.1c-.54.02-1 .34-.92.85a.07.07 0 0 0 0 .06h.15a3 3 0 0 1 1.8.65 2.94 2.94 0 0 0 1.58.7 2.59 2.59 0 0 0 .51 0 1 1 0 0 0 .89-1 .3.3 0 0 0 0-.1 1 1 0 0 0 .43.06 1.28 1.28 0 0 0 1.05-1.1c0-.24.25-.21.3-.4a.6.6 0 0 0-.12-.52zm-2.15 2a1.71 1.71 0 0 1-1.09-.5 1.65 1.65 0 0 0-1.2-.37c-.41 0-.13-.24-.13-.24H55a2.09 2.09 0 0 1 1.39.42 2 2 0 0 0 1 .55c.2-.03.4.23-.1.18z" class="cls-2"/>
  <path d="M39.9 115.12V115v-1.3c0-.2.07-.31.23-.35h.18c.07 0 .1 0 .1-.06s0-.06-.12-.06h-1.65c-.1 0-.13 0-.13.06s0 .06.1.06h.24c.2 0 .25.15.26.35s0 .37 0 1.3v2.31c0 .31-.06.31-.18.34h-.32s0 .06.12.06h1.77c.07 0 .12 0 .12-.06s0 0-.1 0h-.31c-.18 0-.22-.17-.24-.34s0-.74 0-1.31v-.53h2.33v1.84c0 .31-.06.31-.18.34h-.32s0 .06.13.06h1.77c.07 0 .12 0 .12-.06s0 0-.1 0h-.31c-.18 0-.22-.17-.24-.34s0-.74 0-1.31v-1-1.3c0-.2.06-.31.22-.35h.18c.07 0 .1 0 .1-.06s0-.06-.12-.06H41.9c-.1 0-.13 0-.13.06s0 .06.1.06H42c.19 0 .25.15.26.35s0 .37 0 1.3v.13z" class="cls-3"/>
  <path d="M45.53 116.49l.42 1a.09.09 0 0 1 0 .12h-.07 1.16c.15 0 .23 0 .23-.06s0 0-.08 0h-.21c-.1 0-.25-.1-.46-.56l-1.37-3.2c-.05-.12-.07-.17-.15-.17s-.1.07-.16.2l-1.41 3.28c-.1.26-.2.43-.45.46h-.22s0 .06.1.06h1.23s.08 0 .08-.06 0 0-.08 0h-.08c-.16 0-.21-.06-.21-.15a.86.86 0 0 1 .08-.32l.29-.7zm-1.16-.29l.52-1.31.51 1.32z" class="cls-3"/>
  <path d="M47.13 116.29v1.1c0 .22 0 .26-.16.28h-.28s0 .06.1.06h1.57c1 0 1.43-.57 1.43-1.13a1.28 1.28 0 0 0-1-1.12 1.17 1.17 0 0 0 .61-.92c0-.27-.17-.77-1.15-.77H46.59h.3c.17.05.22.1.23.28s0 .31 0 1.1zm.7-2.09v-.08a.9.9 0 0 1 .24 0 .73.73 0 0 1 .67.79.68.68 0 0 1-.24.55.76.76 0 0 1-.43.1.79.79 0 0 1-.25 0v-.06zm0 1.6h.23a.74.74 0 0 1 .46.13 1.14 1.14 0 0 1 .51.92.65.65 0 0 1-.66.74 1.07 1.07 0 0 1-.38-.06c-.17-.07-.19-.17-.19-.52z" class="cls-3"/>
  <path d="M50.1 116.29a11 11 0 0 1 0 1.13c0 .15 0 .23-.16.25h-.27s0 .06.1.06H51.34c.06 0 .11 0 .11-.06s0 0-.09 0h-.27c-.16 0-.2-.1-.22-.25s0-.63 0-1.13v-.92-1.1c0-.17.06-.26.2-.28h.16c.06 0 .1 0 .1-.06s-.06 0-.13 0h-1.58s0 .06.09.06h.2c.11 0 .17.1.18.27v1.1zM51.94 116.29v1.1c0 .22-.05.26-.16.28h-.28s0 .06.11.06H53.17c1 0 1.43-.57 1.43-1.13a1.28 1.28 0 0 0-1-1.12 1.17 1.17 0 0 0 .6-.92c0-.27-.16-.77-1.14-.77H51.4 51.7c.18.05.23.1.23.28v1.1zm.7-2.09v-.08a.82.82 0 0 1 .23 0 .72.72 0 0 1 .67.79.68.68 0 0 1-.24.55.73.73 0 0 1-.42.1.83.83 0 0 1-.26 0v-.06zm0 1.6h.23a.77.77 0 0 1 .47.13 1.15 1.15 0 0 1 .5.92.65.65 0 0 1-.66.74 1.07 1.07 0 0 1-.38-.06c-.17-.07-.19-.17-.19-.52zM55.9 117.18c0 .21-.08.45-.25.49a.69.69 0 0 1-.18 0h-.1s.05.07.11.07h1.25c.09 0 .15 0 .15-.07s0 0-.1 0h-.25c-.11 0-.2-.09-.2-.2v-.29l.33-2.43c.22.46.59 1.23.64 1.36s.56 1.1.7 1.38.16.3.22.3.08-.04.22-.33l1.34-2.77.37 2.68v.27s-.07 0-.07.07 0 0 .18.06 1.08 0 1.24 0 .16 0 .16-.07 0 0-.1 0a1.4 1.4 0 0 1-.38-.06c-.18-.06-.25-.24-.3-.62l-.56-3.78c0-.13-.05-.2-.1-.2s-.1 0-.14.16l-1.66 3.49-1.67-3.45c-.08-.16-.12-.2-.17-.2s-.08.07-.1.17z" class="cls-3"/>
  <path d="M61.71 116.29v1.1c0 .22 0 .26-.16.28h-.28s0 .06.11.06h2.3c.2 0 .25 0 .29-.13a3.68 3.68 0 0 0 .07-.58L64 117s-.05 0-.06.08-.1.32-.23.38a1.5 1.5 0 0 1-.51.07c-.55 0-.71-.08-.73-.43v-1.2h.84c.2 0 .27.1.3.2a1.28 1.28 0 0 1 0 .2h.05s.06-.07.06-.11v-.35-.38l-.08.06a.4.4 0 0 1-.26.08h-.94c-.12 0 0 0 0-.06v-1.3h.84c.27 0 .31.1.36.2a.49.49 0 0 1 0 .19v.07s0-.07.06-.1 0-.28 0-.33a2.35 2.35 0 0 1 0-.34v-.05a.32.32 0 0 0-.09 0h-2.44.3c.17.05.22.1.24.28v2zM65.61 116.29v1.1c0 .22 0 .26-.16.28h-.28s0 .06.11.06H66.85c.06 0 .1 0 .1-.06s0 0-.08 0h-.28c-.16 0-.19-.12-.21-.27s0-.63 0-1.11v-2.1H67c.48 0 .62.16.63.3 0 .07 0 .1.06.1s.05 0 .05-.09v-.62-.1h-.15a1.54 1.54 0 0 1-.36 0H65a4.63 4.63 0 0 1-.54 0 1.33 1.33 0 0 1-.23-.07l-.06.1a5 5 0 0 0-.12.64v.09l.06-.07a.71.71 0 0 1 .09-.17c.08-.12.2-.16.52-.16h.8zM68.49 116.29v1.1c0 .22 0 .26-.16.28h-.28s0 .06.11.06h1.5c.06 0 .1 0 .1-.06a.06.06 0 0 0-.06 0h-.27c-.16 0-.18-.12-.2-.28a10.55 10.55 0 0 1 0-1.1v-.08h.48a.13.13 0 0 1 .1 0c.08.08.3.43.52.71a2.72 2.72 0 0 0 .73.77 1.22 1.22 0 0 0 .59.1h.51c.07 0 .11 0 .11-.06a.07.07 0 0 0-.07 0h-.14a1.08 1.08 0 0 1-.58-.35c-.32-.32-.7-.79-1.18-1.38.53-.42.75-.76.75-1.15a.87.87 0 0 0-.38-.71 1.89 1.89 0 0 0-1-.22H67.95 68.24c.18.05.23.1.25.28v2zm.69-2.06v-.08h.3a.82.82 0 0 1 .83.93.87.87 0 0 1-.35.77.5.5 0 0 1-.37.1 1.7 1.7 0 0 1-.41 0v-.1z" class="cls-3"/>
  <path d="M73.6 117.86a2.09 2.09 0 0 0 2.25-2.12 1.93 1.93 0 0 0-2.2-1.95 2.05 2.05 0 0 0-2.25 2 2 2 0 0 0 2.2 2.07zm.22-.28a1.7 1.7 0 0 1-1.63-1.91c0-1.29.71-1.6 1.3-1.6a1.65 1.65 0 0 1 1.56 1.86c0 1.48-.85 1.65-1.23 1.65z" class="cls-3"/>
  <path d="M76 116.29a10.66 10.66 0 0 1 0 1.1c0 .16 0 .26-.15.28h-.28s0 .06.11.06h1.55c.06 0 .1 0 .1-.06s0 0-.08 0h-.28c-.16 0-.2-.12-.21-.27v-3.17-.1a.75.75 0 0 1 .23 0 .82.82 0 0 1 .53.2 1 1 0 0 1 .32.77.82.82 0 0 1-.72.85q-.18 0-.18.06s0 .06.07.06h.16a1.28 1.28 0 0 0 1.35-1.26.88.88 0 0 0-.27-.6 1.4 1.4 0 0 0-1-.3h-1.77.3c.17.05.22.1.23.28s0 .3 0 1.1zM80.77 117.86a2.09 2.09 0 0 0 2.23-2.12 1.93 1.93 0 0 0-2.2-1.95 2.05 2.05 0 0 0-2.25 2 2 2 0 0 0 2.22 2.07zm.21-.28a1.7 1.7 0 0 1-1.62-1.91c0-1.29.7-1.6 1.3-1.6a1.65 1.65 0 0 1 1.56 1.86c0 1.48-.85 1.65-1.22 1.65z" class="cls-3"/>
  <path d="M84 115.37v-1.1c0-.17.06-.26.21-.28H84.4 82.75h.27c.18.05.22.1.24.28v2a10.66 10.66 0 0 1 0 1.1c0 .16 0 .26-.15.28h-.28s0 .06.1.06h2.38c.28 0 .3 0 .34-.14a4.35 4.35 0 0 0 .08-.6v-.12s-.06 0-.06.08a.56.56 0 0 1-.14.31c-.13.14-.34.15-.63.15s-.62 0-.71-.1-.2-.3-.2-1zM86.18 116.29a11 11 0 0 1 0 1.13c0 .15 0 .23-.16.25h-.27s0 .06.1.06h1.58s.1 0 .1-.06 0 0-.08 0h-.28c-.16 0-.2-.1-.22-.25s0-.63 0-1.13v-.92-1.1c0-.17.06-.26.2-.28h.16c.06 0 .09 0 .09-.06s0 0-.11 0h-1.58s0 .06.08.06h.2c.11 0 .16.1.17.27s0 .31 0 1.1zM89 116.29v1.1c0 .22 0 .26-.16.28h-.27s0 .06.1.06H90.24c.06 0 .1 0 .1-.06s0 0-.08 0h-.28c-.15 0-.18-.12-.2-.27a10.88 10.88 0 0 1 0-1.11v-2.1h.67c.49 0 .63.16.64.3 0 .07 0 .1.07.1s0 0 0-.09v-.62-.1h-.14a1.64 1.64 0 0 1-.37 0h-2.18a4.63 4.63 0 0 1-.54 0 1.33 1.33 0 0 1-.23-.07l-.06.1c-.06.11-.12.56-.12.64v.09s.05 0 .06-.07a.71.71 0 0 1 .09-.17c.09-.12.2-.16.52-.16h.8z" class="cls-3"/>
  <path d="M92.87 116.49h.06l.41 1a.08.08 0 0 1 0 .12h-.07 1.17c.16 0 .23 0 .23-.06s0 0-.07 0h-.2c-.1 0-.26-.1-.46-.56-.35-.79-1.24-2.91-1.37-3.2-.06-.12-.08-.17-.16-.17s-.1.07-.16.2l-1.4 3.28c-.12.26-.2.43-.45.46h-.22s0 .06.1.06h1.22s.1 0 .1-.06 0 0-.09 0h-.07c-.17 0-.22-.06-.22-.15a.86.86 0 0 1 .08-.32l.3-.7zm-1.15-.29l.52-1.31.51 1.32z" class="cls-3"/>
  <path d="M95.05 115c.11.09.67.72 1.26 1.28s1.23 1.19 1.57 1.5a.36.36 0 0 0 .22.11s.09 0 .09-.16l.06-3.28c0-.3 0-.39.19-.43a.56.56 0 0 1 .17 0H97.25h.09a.92.92 0 0 1 .28 0c.13 0 .18.14.18.46l.06 2.3c-.08-.06-.79-.8-1.16-1.16-.78-.76-1.58-1.6-1.65-1.65s-.17-.17-.24-.17-.09.07-.09.17v3.08c0 .45 0 .6-.17.64H94.22s0 .06.12.06H95.62c.07 0 .12 0 .12-.06s0 0-.09 0a.9.9 0 0 1-.28 0c-.1 0-.17-.16-.18-.56zM100.13 116v1.31c0 .31 0 .31-.17.34h-.32s0 .06.12.06h.77a4.3 4.3 0 0 1 .46 0h.43c1.12 0 1.63-.67 1.63-1.33a1.49 1.49 0 0 0-1.11-1.32 1.35 1.35 0 0 0 .62-1.07c0-.33-.2-.93-1.3-.93h-1.58c-.09 0-.13 0-.13.06s0 .06.1.06h.24c.2 0 .25.15.26.35s0 .37 0 1.3zm.74-2.47v-.11a.65.65 0 0 1 .2 0c.53 0 .77.55.77 1a.78.78 0 0 1-.25.64.64.64 0 0 1-.44.12h-.3v-.07zm1.4 3.21a.72.72 0 0 1-.74.78.9.9 0 0 1-.44-.08c-.2-.07-.22-.17-.22-.58v-1.45h.27a.91.91 0 0 1 .51.14 1.48 1.48 0 0 1 .62 1.21z" class="cls-3"/>
  <path d="M105.28 116.49h.06l.41 1a.08.08 0 0 1 0 .12h-.06 1.15c.15 0 .23 0 .23-.06s0 0-.07 0h-.2c-.1 0-.26-.1-.46-.56a271.8 271.8 0 0 1-1.37-3.2c-.06-.12-.08-.17-.16-.17s-.1.07-.16.2l-1.4 3.28c-.12.26-.2.43-.45.46h-.22s0 .06.1.06h1.22s.08 0 .08-.06 0 0-.07 0h-.08c-.17 0-.22-.06-.22-.15a.86.86 0 0 1 .08-.32l.3-.7zm-1.16-.29l.52-1.31.51 1.32z" class="cls-3"/>
  <path d="M107.8 115c.1.09.67.72 1.26 1.28s1.23 1.19 1.57 1.5a.31.31 0 0 0 .22.11s.08 0 .08-.16l.07-3.28c0-.3 0-.39.19-.43a.52.52 0 0 1 .17 0h-1.38.08a1 1 0 0 1 .29 0c.12 0 .17.14.18.46v2.3c-.08-.06-.8-.8-1.16-1.16-.78-.76-1.59-1.6-1.66-1.65s-.16-.17-.23-.17-.09.07-.09.17v3.08c0 .45 0 .6-.16.64h-.33s0 .06.12.06H108.3c.07 0 .12 0 .12-.06s0 0-.1 0a1 1 0 0 1-.28 0c-.1 0-.17-.16-.18-.56z" class="cls-3"/>
  <path d="M112.57 115.37v-1.1c0-.17.06-.26.2-.28H112.88h-1.56.3c.17.05.22.1.23.28s0 .31 0 1.1v2.02c0 .22 0 .26-.16.28h-.28s0 .06.1.06H113.02c.08 0 .12 0 .12-.06s0 0-.08 0h-.26c-.13 0-.18-.12-.2-.27s0-.64 0-1.11v-.47l.07.07c.1.16 1.15 1.36 1.37 1.56a1.12 1.12 0 0 0 .7.33 2.12 2.12 0 0 0 .38 0h.47c.09 0 .13 0 .13-.06s0 0-.08 0a.76.76 0 0 1-.33-.07 2.59 2.59 0 0 1-.73-.56 30.44 30.44 0 0 1-1.46-1.53c.17-.2 1-1 1.14-1.11a1.52 1.52 0 0 1 .57-.39.89.89 0 0 1 .32-.06h-1.3.09a.1.1 0 0 1 .07.1c0 .1-.11.22-.27.39s-.94 1-1.12 1.14z" class="cls-3"/>
  <path d="M36.53 129.92a.85.85 0 0 0 .24.29 1.18 1.18 0 0 0 .36.15 1.61 1.61 0 0 0 .44.05 1.08 1.08 0 0 0 .3 0 1 1 0 0 0 .29-.12.84.84 0 0 0 .24-.22.55.55 0 0 0 .09-.32.49.49 0 0 0-.07-.25.58.58 0 0 0-.17-.18.84.84 0 0 0-.23-.12l-.24-.07-.77-.2-.29-.1a.7.7 0 0 1-.25-.14.76.76 0 0 1-.17-.23.75.75 0 0 1-.07-.35 1.33 1.33 0 0 1 .05-.3.76.76 0 0 1 .18-.31 1.21 1.21 0 0 1 .37-.26 1.77 1.77 0 0 1 1.08 0 1.08 1.08 0 0 1 .4.2 1 1 0 0 1 .29.33 1 1 0 0 1 .1.47h-.33a.9.9 0 0 0-.1-.34 1 1 0 0 0-.2-.25.85.85 0 0 0-.3-.15 1.27 1.27 0 0 0-.34 0 1.15 1.15 0 0 0-.33 0 .86.86 0 0 0-.28.1.69.69 0 0 0-.2.23.59.59 0 0 0-.06.3.78.78 0 0 0 0 .23.41.41 0 0 0 .12.14.46.46 0 0 0 .16.1 1.17 1.17 0 0 0 .2.07l.84.2a2.06 2.06 0 0 1 .35.13 1.1 1.1 0 0 1 .28.17.67.67 0 0 1 .19.25.8.8 0 0 1 .07.36 1 1 0 0 1 0 .16.51.51 0 0 1-.06.2.89.89 0 0 1-.13.23.63.63 0 0 1-.23.19 1.5 1.5 0 0 1-.36.15 2 2 0 0 1-.52.06 2.54 2.54 0 0 1-.57-.07 1.21 1.21 0 0 1-.44-.22.93.93 0 0 1-.28-.37 1.16 1.16 0 0 1-.1-.55h.34a1 1 0 0 0 .1.37z" class="cls-1"/>
  <path d="M37.5 130.8a2.25 2.25 0 0 1-.6-.07 1.6 1.6 0 0 1-.49-.24 1.12 1.12 0 0 1-.32-.42 1.41 1.41 0 0 1-.1-.6v-.12h.57v.12a1 1 0 0 0 .07.4.72.72 0 0 0 .2.24 1.11 1.11 0 0 0 .32.12 1.41 1.41 0 0 0 .68 0 1 1 0 0 0 .26-.1.54.54 0 0 0 .19-.19.41.41 0 0 0 .07-.25.32.32 0 0 0 0-.19.33.33 0 0 0-.13-.13.78.78 0 0 0-.2-.11l-.23-.07-.8-.19a1.89 1.89 0 0 1-.31-.1.84.84 0 0 1-.28-.18.79.79 0 0 1-.2-.27.87.87 0 0 1-.07-.4 1.39 1.39 0 0 1 0-.33.93.93 0 0 1 .2-.37 1.22 1.22 0 0 1 .42-.28 1.81 1.81 0 0 1 1.16 0 1.18 1.18 0 0 1 .45.22 1.13 1.13 0 0 1 .3.38 1.08 1.08 0 0 1 .13.52v.12h-.57v-.12a.73.73 0 0 0-.07-.3 1.12 1.12 0 0 0-.18-.2.75.75 0 0 0-.25-.12 1.15 1.15 0 0 0-.61 0 .54.54 0 0 0-.23.1.41.41 0 0 0-.16.16.53.53 0 0 0-.05.26.47.47 0 0 0 0 .17.36.36 0 0 0 .07.1.5.5 0 0 0 .14.08l.17.06.85.2.37.13a1.25 1.25 0 0 1 .32.2.82.82 0 0 1 .22.29 1 1 0 0 1 .08.4 1.21 1.21 0 0 1 0 .19.88.88 0 0 1-.07.23 2.35 2.35 0 0 1-.14.25 1 1 0 0 1-.27.23 1.59 1.59 0 0 1-.4.16 2.15 2.15 0 0 1-.5.02zm-1.25-1.2a.87.87 0 0 0 .07.37.8.8 0 0 0 .25.32.93.93 0 0 0 .4.2 2.21 2.21 0 0 0 1 0 1.42 1.42 0 0 0 .33-.14.64.64 0 0 0 .19-.17.93.93 0 0 0 .12-.19.77.77 0 0 0 0-.17.92.92 0 0 0 0-.15.67.67 0 0 0-.06-.3.49.49 0 0 0-.16-.2 1 1 0 0 0-.25-.17 2.12 2.12 0 0 0-.33-.1l-.84-.22a.79.79 0 0 1-.22-.07.59.59 0 0 1-.2-.12.72.72 0 0 1-.14-.19.62.62 0 0 1-.05-.27.86.86 0 0 1 .08-.38.79.79 0 0 1 .23-.25 1 1 0 0 1 .33-.14 1.51 1.51 0 0 1 .73 0 1.2 1.2 0 0 1 .34.17 1 1 0 0 1 .24.29 1.22 1.22 0 0 1 .09.27h.08a.9.9 0 0 0-.08-.28 1 1 0 0 0-.24-.29 1.22 1.22 0 0 0-.36-.18 1.52 1.52 0 0 0-1 0 .9.9 0 0 0-.32.22.69.69 0 0 0-.16.27.92.92 0 0 0 0 .26.9.9 0 0 0 0 .29.94.94 0 0 0 .14.19.92.92 0 0 0 .2.13l.29.1.77.19.25.07a1.15 1.15 0 0 1 .27.14 1 1 0 0 1 .2.2.69.69 0 0 1 .08.33.64.64 0 0 1-.11.39 1.1 1.1 0 0 1-.27.26 1.42 1.42 0 0 1-.33.13 1.65 1.65 0 0 1-.8 0 1.09 1.09 0 0 1-.4-.16.84.84 0 0 1-.28-.34 1 1 0 0 1-.09-.37zM41.21 130.61v-.45a.81.81 0 0 1-.35.38 1 1 0 0 1-.51.14 1.19 1.19 0 0 1-.4-.07.77.77 0 0 1-.27-.19.67.67 0 0 1-.15-.29 1.62 1.62 0 0 1-.05-.4v-1.6h.31v1.61a.76.76 0 0 0 .15.51.63.63 0 0 0 .51.17.61.61 0 0 0 .34-.08.72.72 0 0 0 .22-.23 1 1 0 0 0 .14-.31 2.46 2.46 0 0 0 0-.37v-1.31h.3v2.49z" class="cls-1"/>
  <path d="M40.34 130.8a1.25 1.25 0 0 1-.45-.07.84.84 0 0 1-.31-.23.81.81 0 0 1-.18-.33 1.56 1.56 0 0 1 0-.44V128h.55v1.75a.71.71 0 0 0 .13.43.54.54 0 0 0 .41.13.45.45 0 0 0 .27-.07.47.47 0 0 0 .19-.18.65.65 0 0 0 .12-.28 1.32 1.32 0 0 0 0-.34V128h.56v2.74h-.53v-.21a.83.83 0 0 1-.18.13 1.1 1.1 0 0 1-.58.14zm-.74-2.56v1.49a1.4 1.4 0 0 0 0 .37.55.55 0 0 0 .13.24.53.53 0 0 0 .22.15.85.85 0 0 0 .41.06.71.71 0 0 1-.56-.22.9.9 0 0 1-.19-.59v-1.5zm1.74 2.24v-2.24h-.06v1.19a1.72 1.72 0 0 1 0 .39 1 1 0 0 1-.07.21h.13v.45zM42.57 127.16v1.43a.58.58 0 0 1 .13-.23 1.18 1.18 0 0 1 .21-.18.77.77 0 0 1 .25-.1 1.24 1.24 0 0 1 .27 0 1.12 1.12 0 0 1 .5.1 1.09 1.09 0 0 1 .35.29 1.17 1.17 0 0 1 .2.42 1.68 1.68 0 0 1 .07.5 1.7 1.7 0 0 1-.07.51 1.17 1.17 0 0 1-.2.42 1.2 1.2 0 0 1-.35.28 1.12 1.12 0 0 1-.5.1 1 1 0 0 1-.54-.14.83.83 0 0 1-.35-.4v.48h-.28v-3.45zm1.64 1.84a1 1 0 0 0-.15-.34.75.75 0 0 0-.25-.25.7.7 0 0 0-.37-.09.88.88 0 0 0-.4.09.93.93 0 0 0-.28.25 1.17 1.17 0 0 0-.15.34 1.58 1.58 0 0 0 0 .38 1.72 1.72 0 0 0 0 .39 1.3 1.3 0 0 0 .15.34.78.78 0 0 0 .27.24.88.88 0 0 0 .41.09.7.7 0 0 0 .37-.09.64.64 0 0 0 .26-.24 1 1 0 0 0 .15-.33 1.74 1.74 0 0 0 0-.4 1.58 1.58 0 0 0 0-.37z" class="cls-1"/>
  <path d="M43.44 130.8a1.1 1.1 0 0 1-.6-.16.52.52 0 0 1-.17-.12v.21h-.53V127h.55v1.16l.17-.13a.91.91 0 0 1 .28-.11 1 1 0 0 1 .3 0 1.18 1.18 0 0 1 .56.08 1.26 1.26 0 0 1 .4.32 1.3 1.3 0 0 1 .22.46 2.08 2.08 0 0 1 .08.54 1.91 1.91 0 0 1-.08.54 1.3 1.3 0 0 1-.22.46 1.2 1.2 0 0 1-.4.32 1.18 1.18 0 0 1-.56.16zm-.15-.26a1 1 0 0 0 .59-.08.93.93 0 0 0 .31-.25 1.21 1.21 0 0 0 .17-.38 1.84 1.84 0 0 0 .07-.47 1.53 1.53 0 0 0-.07-.47 1.2 1.2 0 0 0-.18-.39.92.92 0 0 0-1-.3.94.94 0 0 1 .66.1.86.86 0 0 1 .29.27 1.28 1.28 0 0 1 .16.38 1.58 1.58 0 0 1 .05.41 1.63 1.63 0 0 1-.05.41 1.11 1.11 0 0 1-.16.39 1 1 0 0 1-.29.28.91.91 0 0 1-.56.1zm-.9-.06V130h.16a.92.92 0 0 1-.09-.23 2 2 0 0 1-.05-.42 1.84 1.84 0 0 1 .05-.4.92.92 0 0 1 .09-.24h-.13v-1.42zm1-2.06a.78.78 0 0 0-.35.08.93.93 0 0 0-.23.21 1.36 1.36 0 0 0-.13.3 2 2 0 0 0 0 .35 2.2 2.2 0 0 0 0 .36 1 1 0 0 0 .14.3.61.61 0 0 0 .22.2.73.73 0 0 0 .66 0 .58.58 0 0 0 .3-.22 1 1 0 0 0 .13-.3 1.65 1.65 0 0 0 0-.36 1.56 1.56 0 0 0 0-.35 1 1 0 0 0-.13-.3.7.7 0 0 0-.21-.21.62.62 0 0 0-.35-.06zM46.67 128.6a.61.61 0 0 0-.15-.17.68.68 0 0 0-.21-.1.88.88 0 0 0-.24 0h-.21l-.19.07a.53.53 0 0 0-.13.13.37.37 0 0 0-.06.21.29.29 0 0 0 .05.17.49.49 0 0 0 .13.12l.17.08.17.05.4.1a1.11 1.11 0 0 1 .26.06 1.26 1.26 0 0 1 .23.13.65.65 0 0 1 .16.21.61.61 0 0 1 .06.28.68.68 0 0 1-.1.35.84.84 0 0 1-.22.23 1.13 1.13 0 0 1-.32.13 2.21 2.21 0 0 1-.35 0 1.14 1.14 0 0 1-.72-.21.91.91 0 0 1-.31-.67h.3a.66.66 0 0 0 .23.47.85.85 0 0 0 .5.15.93.93 0 0 0 .24 0 .83.83 0 0 0 .22-.09.8.8 0 0 0 .17-.15.38.38 0 0 0 .06-.22.32.32 0 0 0-.05-.19.46.46 0 0 0-.12-.12l-.18-.09-.2-.05-.4-.1a1.71 1.71 0 0 1-.26-.1.78.78 0 0 1-.22-.11.65.65 0 0 1-.15-.18.76.76 0 0 1 0-.27.67.67 0 0 1 .08-.33.77.77 0 0 1 .23-.22 1.34 1.34 0 0 1 .3-.12 2 2 0 0 1 .34 0 1.22 1.22 0 0 1 .34 0 1.13 1.13 0 0 1 .29.15.67.67 0 0 1 .19.25 1 1 0 0 1 .09.36h-.31a.62.62 0 0 0-.1-.23z" class="cls-1"/>
  <path d="M46.12 130.8a1.3 1.3 0 0 1-.79-.23 1 1 0 0 1-.36-.76v-.13h.55v.11a.48.48 0 0 0 .18.37.65.65 0 0 0 .43.13h.2l.19-.07a.43.43 0 0 0 .12-.1.24.24 0 0 0 0-.16.22.22 0 0 0 0-.12.3.3 0 0 0-.08-.08l-.16-.08h-.19l-.39-.09-.29-.09a1.09 1.09 0 0 1-.25-.15.55.55 0 0 1-.18-.22.76.76 0 0 1 0-.71.77.77 0 0 1 .25-.26 1.17 1.17 0 0 1 .35-.14 1.42 1.42 0 0 1 .74 0 1 1 0 0 1 .33.16 1.14 1.14 0 0 1 .23.3 1.12 1.12 0 0 1 .09.4v.1h-.5v-.12a.59.59 0 0 0-.04-.19.45.45 0 0 0-.1-.13.44.44 0 0 0-.17-.07.88.88 0 0 0-.4 0l-.15.06-.09.09a.29.29 0 0 0 0 .14.29.29 0 0 0 0 .1l.1.09.14.06.12-.03.41.09a1.2 1.2 0 0 1 .27.07 1 1 0 0 1 .27.16.75.75 0 0 1 .27.58.76.76 0 0 1-.1.41.87.87 0 0 1-.28.27 1 1 0 0 1-.37.15 1.55 1.55 0 0 1-.35.07zm-.89-.87a.72.72 0 0 0 .25.44 1.16 1.16 0 0 0 1 .14.78.78 0 0 0 .28-.11.61.61 0 0 0 .2-.2.58.58 0 0 0 .07-.27.56.56 0 0 0-.05-.23.65.65 0 0 0-.13-.16.87.87 0 0 0-.2-.12 1 1 0 0 0-.22 0l-.42-.1-.18-.05-.19-.1a.83.83 0 0 1-.17-.14.44.44 0 0 1-.08-.25.48.48 0 0 1 .08-.27.52.52 0 0 1 .18-.18l.19-.07a1.17 1.17 0 0 0-.26.1.58.58 0 0 0-.17.18.53.53 0 0 0-.07.26.54.54 0 0 0 .05.22.42.42 0 0 0 .1.13.63.63 0 0 0 .2.1l.24.09.39.08.2.07.22.09a.61.61 0 0 1 .16.16.55.55 0 0 1 .06.26.52.52 0 0 1-.08.29.7.7 0 0 1-.2.18.93.93 0 0 1-.26.1 1.15 1.15 0 0 1-.26 0 1 1 0 0 1-.6-.18.79.79 0 0 1-.25-.44zm1.6-1.21h.06a.85.85 0 0 0-.06-.17.49.49 0 0 0-.16-.21.7.7 0 0 0-.24-.13 1.3 1.3 0 0 0-.56 0 .93.93 0 0 1 .48 0 .64.64 0 0 1 .25.11.74.74 0 0 1 .18.21.48.48 0 0 1 .05.19zM48.06 127.16v.49h-.3v-.5zm0 1v2.49h-.3v-2.49z" class="cls-1"/>
  <path d="M48.18 130.73h-.55V128h.55zm-.3-.25v-2.24zm.3-2.71h-.55V127h.55zm-.3-.25v-.23zM50.75 130.61v-.47a.9.9 0 0 1-.14.22 1.73 1.73 0 0 1-.21.17l-.26.11a1.45 1.45 0 0 1-.28 0 1.06 1.06 0 0 1-.84-.39 1.38 1.38 0 0 1-.21-.42 1.86 1.86 0 0 1 0-1 1.38 1.38 0 0 1 .2-.42 1 1 0 0 1 .36-.29 1.07 1.07 0 0 1 .49-.1 1.27 1.27 0 0 1 .28 0 .87.87 0 0 1 .25.1 1.12 1.12 0 0 1 .2.18.59.59 0 0 1 .14.23v-1.43H51v3.45zm-1.66-.86a.85.85 0 0 0 .14.34.82.82 0 0 0 .25.24.75.75 0 0 0 .37.09.86.86 0 0 0 .41-.09.78.78 0 0 0 .27-.24 1 1 0 0 0 .15-.34 1.74 1.74 0 0 0 0-.39 1.58 1.58 0 0 0 0-.38 1 1 0 0 0-.15-.34.93.93 0 0 0-.27-.25.86.86 0 0 0-.41-.09.75.75 0 0 0-.37.09 1 1 0 0 0-.25.24.79.79 0 0 0-.14.34 1.2 1.2 0 0 0-.05.38 1.31 1.31 0 0 0 .05.39z" class="cls-1"/>
  <path d="M49.85 130.8a1.23 1.23 0 0 1-.55-.12 1.08 1.08 0 0 1-.39-.32 1.42 1.42 0 0 1-.23-.46 1.9 1.9 0 0 1-.07-.54 2 2 0 0 1 .07-.54 1.53 1.53 0 0 1 .23-.46 1.12 1.12 0 0 1 .4-.32 1.2 1.2 0 0 1 .55-.12 1.06 1.06 0 0 1 .31 0 1.17 1.17 0 0 1 .28.11l.16.13V127h.55v3.69h-.52v-.22c-.06 0-.11.09-.18.13a1.48 1.48 0 0 1-.3.12 1.15 1.15 0 0 1-.3.08zm0-2.63a1 1 0 0 0-.44.1 1.05 1.05 0 0 0-.3.24 1.13 1.13 0 0 0-.19.38 1.89 1.89 0 0 0-.06.47 1.73 1.73 0 0 0 .06.47 1.13 1.13 0 0 0 .2.38.81.81 0 0 0 .3.25.92.92 0 0 0 .5.09.92.92 0 0 1-.5-.11 1.11 1.11 0 0 1-.29-.28 1.17 1.17 0 0 1-.17-.38 1.93 1.93 0 0 1-.05-.42 1.31 1.31 0 0 1 .1-.36 1.12 1.12 0 0 1 .14-.38 1.09 1.09 0 0 1 .29-.28 1 1 0 0 1 .68-.09.88.88 0 0 0-.27-.08zm1 2.31v-3.19 1.43h-.13a.9.9 0 0 1 .08.23 1.4 1.4 0 0 1 .05.41 1.51 1.51 0 0 1-.05.42.9.9 0 0 1-.08.23h.14v.13zm-1-2.06a.65.65 0 0 0-.31.08.7.7 0 0 0-.21.21.79.79 0 0 0-.12.3 1.34 1.34 0 0 0-.05.35 1.29 1.29 0 0 0 .05.35.79.79 0 0 0 .13.3.66.66 0 0 0 .87.2.57.57 0 0 0 .23-.19 1 1 0 0 0 .13-.3 1.47 1.47 0 0 0 0-.35 1.34 1.34 0 0 0 0-.35 1 1 0 0 0-.13-.3.78.78 0 0 0-.23-.2.72.72 0 0 0-.35-.08zM52.12 127.16v.49h-.31v-.5zm0 1v2.49h-.31v-2.49z" class="cls-1"/>
  <path d="M52.24 130.73h-.55V128h.54zm-.3-.25H52v-2.24h-.05zm.3-2.71h-.55V127h.54zm-.3-.25H52v-.23h-.05zM53 128.5a.75.75 0 0 1 .21-.26 1.28 1.28 0 0 1 .31-.15 1.64 1.64 0 0 1 .4 0 1.83 1.83 0 0 1 .33 0 1.08 1.08 0 0 1 .29.13.5.5 0 0 1 .21.24.8.8 0 0 1 .09.41v1.32c0 .12.06.18.17.18a.16.16 0 0 0 .1 0v.26h-.19a.47.47 0 0 1-.19 0 .2.2 0 0 1-.1-.09.34.34 0 0 1 0-.14.9.9 0 0 1 0-.18l-.18.22a.9.9 0 0 1-.19.15.64.64 0 0 1-.24.1 1.37 1.37 0 0 1-.3 0 1.14 1.14 0 0 1-.34-.05.58.58 0 0 1-.26-.13.49.49 0 0 1-.18-.22.81.81 0 0 1-.07-.33.65.65 0 0 1 .12-.41.7.7 0 0 1 .31-.22 1.72 1.72 0 0 1 .42-.11l.5-.06a.86.86 0 0 0 .16 0 .25.25 0 0 0 .12 0 .23.23 0 0 0 .07-.1.43.43 0 0 0 0-.17.62.62 0 0 0-.05-.26.29.29 0 0 0-.14-.15.67.67 0 0 0-.2-.1h-.26a.71.71 0 0 0-.47.14.53.53 0 0 0-.2.44h-.3a1.06 1.06 0 0 1 .05-.48zm1.52.75a.24.24 0 0 1-.11.08h-.14l-.4.06a1.42 1.42 0 0 0-.38.07.7.7 0 0 0-.27.15.34.34 0 0 0-.11.28.46.46 0 0 0 0 .21.47.47 0 0 0 .13.15.52.52 0 0 0 .18.1.44.44 0 0 0 .2 0 1.27 1.27 0 0 0 .34 0 .92.92 0 0 0 .27-.16.63.63 0 0 0 .2-.24.72.72 0 0 0 .06-.33v-.39z" class="cls-1"/>
  <path d="M53.6 130.8a1.36 1.36 0 0 1-.36-.05.78.78 0 0 1-.53-.43.94.94 0 0 1-.07-.37.74.74 0 0 1 .14-.48.9.9 0 0 1 .36-.27 1.85 1.85 0 0 1 .45-.11l.4-.1h.24a.13.13 0 0 0 .08 0 .37.37 0 0 0 0-.11.49.49 0 0 0 0-.19.25.25 0 0 0-.08-.11l-.17-.07h-.23a.62.62 0 0 0-.4.12.39.39 0 0 0-.14.34v.03h-.55v-.13a1 1 0 0 1 .1-.42 1 1 0 0 1 .24-.3 1.19 1.19 0 0 1 .36-.18 2 2 0 0 1 .78 0 1.11 1.11 0 0 1 .34.14.79.79 0 0 1 .25.3.94.94 0 0 1 .1.47V130.25l.18-.1v.56h-.31a.62.62 0 0 1-.25 0 .36.36 0 0 1-.16-.14v-.08a1.24 1.24 0 0 1-.22.18 1 1 0 0 1-.26.11 1.34 1.34 0 0 1-.28.02zm-.16-1.43l-.2.07a.52.52 0 0 0-.26.18.5.5 0 0 0-.09.33.68.68 0 0 0 0 .27.44.44 0 0 0 .14.18.51.51 0 0 0 .22.11 1 1 0 0 0 .39 0 1.08 1.08 0 0 1-.32 0 1.13 1.13 0 0 1-.21-.12.7.7 0 0 1-.16-.19.66.66 0 0 1-.06-.27.47.47 0 0 1 .15-.37 1 1 0 0 1 .32-.18zm1.08.68h.11v.12a.81.81 0 0 0 0 .16v.09a.36.36 0 0 0 .15 0h.06a.28.28 0 0 1-.27-.3v-1.32a.7.7 0 0 0-.07-.35.48.48 0 0 0-.17-.2.77.77 0 0 0-.25-.1 1.62 1.62 0 0 0-.66 0 1 1 0 0 0-.28.13.76.76 0 0 0-.17.22.53.53 0 0 0-.06.2h.05a.62.62 0 0 1 .23-.42.88.88 0 0 1 .55-.17 2 2 0 0 1 .27 0 .62.62 0 0 1 .26.1.47.47 0 0 1 .18.21.66.66 0 0 1 .07.3.56.56 0 0 1 0 .21.29.29 0 0 1-.06.1h.1v.52a.86.86 0 0 1-.1.4zm-.15-.6l-.25.05h-.27a1.9 1.9 0 0 0-.36.08.56.56 0 0 0-.23.12.24.24 0 0 0-.07.2.41.41 0 0 0 0 .15l.1.1a.29.29 0 0 0 .14.08.67.67 0 0 0 .46 0 .58.58 0 0 0 .23-.13.74.74 0 0 0 .16-.2.64.64 0 0 0 .06-.28zM55.88 128.12v.58a.88.88 0 0 1 .36-.46.94.94 0 0 1 .58-.16v.3a1.16 1.16 0 0 0-.38.06.85.85 0 0 0-.48.48 1 1 0 0 0-.07.36v1.33h-.3v-2.49z" class="cls-1"/>
  <path d="M56 130.73h-.55V128H56v.29a1.19 1.19 0 0 1 .18-.15 1.06 1.06 0 0 1 .66-.17H57v.55h-.13a.85.85 0 0 0-.33.05.72.72 0 0 0-.25.16.63.63 0 0 0-.16.25.75.75 0 0 0-.06.31zm-.3-.25h.05v-1.2a.94.94 0 0 1 .08-.41v-.05h-.12v-.58zm1-2.27a.73.73 0 0 0-.39.14l-.13.1.22-.11a.94.94 0 0 1 .3-.07zM57.55 128.12l.83 2.12.76-2.12h.3L58.37 131l-.13.26a.53.53 0 0 1-.13.16.51.51 0 0 1-.16.09h-.48v-.26h.2a.4.4 0 0 0 .18 0 .28.28 0 0 0 .1-.08.54.54 0 0 0 .1-.12l.07-.16.11-.3-1-2.47z" class="cls-1"/>
  <path d="M57.71 131.65H57.35v-.49H57.58a.28.28 0 0 0 .21 0h.08a.86.86 0 0 0 .07-.1 1.16 1.16 0 0 0 .06-.15l.09-.23-1-2.61h.59l.73 1.89.68-1.9h.58l-1.15 3-.13.29a.67.67 0 0 1-.16.2.71.71 0 0 1-.2.1 1 1 0 0 1-.32 0zm-.11-.26h.32a.3.3 0 0 0 .11-.07.42.42 0 0 0 .1-.14 2.65 2.65 0 0 0 .12-.25l.13-.35-.91-2.35.94 2.36-.13.32c0 .06 0 .12-.07.17a.51.51 0 0 1-.11.16.64.64 0 0 1-.16.11.53.53 0 0 1-.29 0zm1.63-3.16l-.85 2.35.88-2.35zM63 128.15a1.16 1.16 0 0 1 .37.29 1.25 1.25 0 0 1 .23.41 1.75 1.75 0 0 1 .07.51 1.7 1.7 0 0 1-.07.5 1.42 1.42 0 0 1-.23.43 1.13 1.13 0 0 1-.37.27 1.16 1.16 0 0 1-.51.1 1.15 1.15 0 0 1-.5-.1 1 1 0 0 1-.37-.28 1.22 1.22 0 0 1-.23-.42 1.7 1.7 0 0 1-.08-.51 1.75 1.75 0 0 1 .08-.51 1.09 1.09 0 0 1 .23-.41 1.06 1.06 0 0 1 .37-.29 1.15 1.15 0 0 1 .5-.1 1.16 1.16 0 0 1 .5.1zm-.89.24a.9.9 0 0 0-.27.23 1.06 1.06 0 0 0-.16.34 1.3 1.3 0 0 0 0 .78 1 1 0 0 0 .16.34.78.78 0 0 0 .27.24.79.79 0 0 0 .38.1.8.8 0 0 0 .39-.1.75.75 0 0 0 .26-.24 1 1 0 0 0 .17-.34 1.3 1.3 0 0 0 0-.78 1.09 1.09 0 0 0-.17-.34.86.86 0 0 0-.26-.24.8.8 0 0 0-.39-.09.79.79 0 0 0-.34.09z" class="cls-1"/>
  <path d="M62.53 130.8a1.23 1.23 0 0 1-.55-.12 1.06 1.06 0 0 1-.4-.31 1.4 1.4 0 0 1-.27-.46 1.9 1.9 0 0 1 .01-1.09 1.35 1.35 0 0 1 .27-.47A1.23 1.23 0 0 1 62 128a1.37 1.37 0 0 1 1.12 0 1.23 1.23 0 0 1 .4.31 1.25 1.25 0 0 1 .25.47 1.61 1.61 0 0 1 .09.54 1.63 1.63 0 0 1-.09.55 1.22 1.22 0 0 1-.25.46 1.14 1.14 0 0 1-.41.31 1.25 1.25 0 0 1-.58.16zm0-2.63a1.06 1.06 0 0 0-.45.1 1 1 0 0 0-.32.25 1.12 1.12 0 0 0-.21.37 1.49 1.49 0 0 0-.07.46 1.45 1.45 0 0 0 .07.47 1.09 1.09 0 0 0 .21.38.87.87 0 0 0 .32.25 1.2 1.2 0 0 0 .91 0 1.11 1.11 0 0 0 .32-.25 1.17 1.17 0 0 0 .2-.38 1.66 1.66 0 0 0 .08-.47 1.78 1.78 0 0 0-.07-.47 1.12 1.12 0 0 0-.21-.38 1 1 0 0 0-.33-.26 1 1 0 0 0-.45-.1zm0 2.38a.87.87 0 0 1-.44-.11 1 1 0 0 1-.31-.27 1.2 1.2 0 0 1-.18-.38 1.54 1.54 0 0 1-.06-.43 1.47 1.47 0 0 1 .06-.42 1.07 1.07 0 0 1 .49-.66 1 1 0 0 1 .89 0 1.19 1.19 0 0 1 .31.28 1.21 1.21 0 0 1 .18.38 1.64 1.64 0 0 1 .06.42 1.77 1.77 0 0 1-.06.43 1.21 1.21 0 0 1-.18.37 1.16 1.16 0 0 1-.3.27.91.91 0 0 1-.46.11zm0-2.13a.69.69 0 0 0-.32.08.76.76 0 0 0-.23.21 1.17 1.17 0 0 0-.19.65 1.12 1.12 0 0 0 .05.36 1 1 0 0 0 .14.3.63.63 0 0 0 .23.2.66.66 0 0 0 .65 0 .57.57 0 0 0 .23-.2.85.85 0 0 0 .15-.3 1.2 1.2 0 0 0 .05-.36 1.1 1.1 0 0 0-.05-.35.85.85 0 0 0-.15-.3.52.52 0 0 0-.23-.2.66.66 0 0 0-.32-.08zM64.83 128.38v2.23h-.3v-2.22h-.43v-.26h.43v-.23a1.37 1.37 0 0 1 0-.29.85.85 0 0 1 .09-.24.45.45 0 0 1 .19-.14.67.67 0 0 1 .3-.06h.26v.26h-.23a.36.36 0 0 0-.19 0 .19.19 0 0 0-.1.1.33.33 0 0 0 0 .15 1.15 1.15 0 0 0 0 .19v.22h.5v.26z" class="cls-1"/>
  <path d="M65 130.73h-.6v-2.23H64v-.5h.42v-.1a1.58 1.58 0 0 1 0-.32.57.57 0 0 1 .11-.27.59.59 0 0 1 .24-.2 1 1 0 0 1 .49-.06.34.34 0 0 1 .13 0h.1v.51H65.04a.08.08 0 0 0 0 .05.22.22 0 0 0 0 .1v.3h.49v.5H65zm-.31-.25h.06v-2.77a.65.65 0 0 1 .05-.2.36.36 0 0 1 .15-.14.54.54 0 0 1 .35 0h-.13a.6.6 0 0 0-.25 0 .38.38 0 0 0-.14.1.75.75 0 0 0-.07.19 2.13 2.13 0 0 0 0 .27v.35zM67.73 127.16v1.5h2v-1.5h.33v3.45h-.33v-1.66h-2v1.67h-.33v-3.44z" class="cls-1"/>
  <path d="M70.23 130.73h-.58v-1.67h-1.8v1.67h-.57V127h.58v1.49h1.79V127h.58zm-.33-.25h.1v-3.19h-.1v1.49h-2.3v-1.49h-.07v3.19h.08v-1.67h2.3zM71 128.5a.75.75 0 0 1 .21-.26 1.12 1.12 0 0 1 .31-.15 1.61 1.61 0 0 1 .39 0 1.83 1.83 0 0 1 .33 0 .86.86 0 0 1 .29.13.57.57 0 0 1 .22.24.81.81 0 0 1 .08.41v1.32a.16.16 0 0 0 .18.18.15.15 0 0 0 .09 0v.26h-.19a.5.5 0 0 1-.19 0 .31.31 0 0 1-.1-.09.58.58 0 0 1-.06-.14v-.18a1.28 1.28 0 0 1-.17.22.84.84 0 0 1-.18.15.72.72 0 0 1-.24.1 1.47 1.47 0 0 1-.32 0 1.13 1.13 0 0 1-.32-.05.68.68 0 0 1-.27-.13.67.67 0 0 1-.18-.22.81.81 0 0 1-.06-.33.71.71 0 0 1 .11-.41.77.77 0 0 1 .31-.22 1.8 1.8 0 0 1 .43-.11l.5-.06a.86.86 0 0 0 .16 0 .28.28 0 0 0 .12 0 .36.36 0 0 0 .07-.1.43.43 0 0 0 0-.17.62.62 0 0 0-.05-.26.41.41 0 0 0-.14-.15.78.78 0 0 0-.2-.1h-.27a.71.71 0 0 0-.47.14.55.55 0 0 0-.19.44h-.3a.76.76 0 0 1 .1-.48zm1.52.75a.23.23 0 0 1-.12.08h-.14l-.4.06a1.43 1.43 0 0 0-.37.07.75.75 0 0 0-.28.15.38.38 0 0 0-.11.28.46.46 0 0 0 0 .21.44.44 0 0 0 .12.15.52.52 0 0 0 .18.1.51.51 0 0 0 .2 0 1.26 1.26 0 0 0 .34 0 .85.85 0 0 0 .28-.16.75.75 0 0 0 .19-.24.88.88 0 0 0 .07-.33v-.39z" class="cls-1"/>
  <path d="M71.64 130.8a1.36 1.36 0 0 1-.36-.05.75.75 0 0 1-.52-.42.92.92 0 0 1-.08-.38.78.78 0 0 1 .14-.48.9.9 0 0 1 .36-.27 1.94 1.94 0 0 1 .46-.1l.41-.07h.24a.09.09 0 0 0 .07 0 .22.22 0 0 0 0-.12.36.36 0 0 0 0-.19.2.2 0 0 0-.1-.11l-.16-.06h-.23a.65.65 0 0 0-.4.12.46.46 0 0 0-.14.35h-.55v-.14a1.13 1.13 0 0 1 .1-.42 1.05 1.05 0 0 1 .25-.3 1.19 1.19 0 0 1 .36-.17 1.81 1.81 0 0 1 .77 0 1.22 1.22 0 0 1 .35.14.81.81 0 0 1 .25.29 1.06 1.06 0 0 1 .1.47V130.26l.19-.1v.57h-.32a.55.55 0 0 1-.24 0 .42.42 0 0 1-.16-.13.36.36 0 0 1 0-.09 1 1 0 0 1-.22.18 1.09 1.09 0 0 1-.27.11 1.25 1.25 0 0 1-.3 0zm-.14-1.43a1.14 1.14 0 0 0-.22.07.55.55 0 0 0-.26.18.52.52 0 0 0-.09.33.54.54 0 0 0 .06.27.37.37 0 0 0 .13.18.46.46 0 0 0 .22.11 1 1 0 0 0 .39 0 1 1 0 0 1-.32 0 .94.94 0 0 1-.22-.12.9.9 0 0 1-.15-.19.6.6 0 0 1-.06-.27.5.5 0 0 1 .14-.37 1.06 1.06 0 0 1 .33-.18zm.4 1.15h-.1zm.67-.47h.11v.12a.78.78 0 0 0 0 .16.14.14 0 0 0 0 .09.33.33 0 0 0 .14 0H73a.27.27 0 0 1-.27-.3v-1.32a.88.88 0 0 0-.07-.36.64.64 0 0 0-.17-.19.77.77 0 0 0-.25-.1 1.67 1.67 0 0 0-.67 0 .84.84 0 0 0-.27.13.62.62 0 0 0-.17.22.6.6 0 0 0-.06.19.62.62 0 0 1 .23-.41.9.9 0 0 1 .55-.17 2.4 2.4 0 0 1 .28 0 .63.63 0 0 1 .25.1.49.49 0 0 1 .2.21.67.67 0 0 1 .05.3.48.48 0 0 1 0 .22.19.19 0 0 1-.05.1h.1v.51a.93.93 0 0 1-.09.4zm-.16-.6h-.49a2 2 0 0 0-.35.08.77.77 0 0 0-.24.12.29.29 0 0 0-.06.2.33.33 0 0 0 0 .14.47.47 0 0 0 .1.12.46.46 0 0 0 .13.07.67.67 0 0 0 .46 0 .62.62 0 0 0 .24-.13.72.72 0 0 0 .16-.2.68.68 0 0 0 0-.28zM74 127.16v1.43a.59.59 0 0 1 .14-.23.86.86 0 0 1 .2-.18.77.77 0 0 1 .25-.1 1.24 1.24 0 0 1 .27 0 1.12 1.12 0 0 1 .5.1 1 1 0 0 1 .35.29 1.17 1.17 0 0 1 .2.42 1.68 1.68 0 0 1 .07.5 1.7 1.7 0 0 1-.07.51 1.17 1.17 0 0 1-.2.42 1.08 1.08 0 0 1-.35.28 1.12 1.12 0 0 1-.5.1 1 1 0 0 1-.54-.14.72.72 0 0 1-.34-.4v.48h-.27v-3.45zm1.6 1.84a1.16 1.16 0 0 0-.15-.34.89.89 0 0 0-.26-.25.7.7 0 0 0-.37-.09.79.79 0 0 0-.4.09.82.82 0 0 0-.27.25 1.19 1.19 0 0 0-.15.34 2.33 2.33 0 0 0 0 .38 2.58 2.58 0 0 0 0 .39 1.33 1.33 0 0 0 .16.34.7.7 0 0 0 .27.24.79.79 0 0 0 .4.09.7.7 0 0 0 .37-.09.75.75 0 0 0 .26-.24 1.28 1.28 0 0 0 .14-.33 1.74 1.74 0 0 0 0-.4 1.58 1.58 0 0 0 0-.37z" class="cls-1"/>
  <path d="M74.82 130.8a1.1 1.1 0 0 1-.6-.16.66.66 0 0 1-.17-.12v.21h-.53V127h.55v1.16l.17-.13a1 1 0 0 1 .28-.11 1.17 1.17 0 0 1 1.25.4 1.5 1.5 0 0 1 .22.46 2 2 0 0 1 .08.54 1.91 1.91 0 0 1-.08.54 1.24 1.24 0 0 1-.23.46 1.07 1.07 0 0 1-.38.32 1.28 1.28 0 0 1-.56.16zm-.15-.26a1.1 1.1 0 0 0 .6-.08 1 1 0 0 0 .3-.25 1.11 1.11 0 0 0 .18-.38 1.49 1.49 0 0 0 .07-.47 1.53 1.53 0 0 0-.07-.47 1.21 1.21 0 0 0-.18-.39 1 1 0 0 0-.31-.25 1 1 0 0 0-.67-.06 1 1 0 0 1 .67.1.86.86 0 0 1 .29.27 1.14 1.14 0 0 1 .16.38 1.48 1.48 0 0 1 .05.41 2 2 0 0 1 0 .41 1.19 1.19 0 0 1-.17.38 1 1 0 0 1-.3.29.91.91 0 0 1-.62.1zm-.9-.06V130H74a.92.92 0 0 1-.09-.23 2.37 2.37 0 0 1-.05-.42 2.17 2.17 0 0 1 .05-.4.92.92 0 0 1 .09-.24h-.12v-1.42zm1-2.06a.71.71 0 0 0-.34.08.67.67 0 0 0-.23.21.81.81 0 0 0-.13.3 1.63 1.63 0 0 0-.05.35 1.72 1.72 0 0 0 .05.36.81.81 0 0 0 .13.3.65.65 0 0 0 .23.2.71.71 0 0 0 .65 0 .58.58 0 0 0 .2-.2.88.88 0 0 0 .14-.3 1.59 1.59 0 0 0 0-.36 1.45 1.45 0 0 0 0-.35 1 1 0 0 0-.13-.3.53.53 0 0 0-.21-.2.62.62 0 0 0-.26-.08zM76.92 127.16v.49h-.3v-.5zm0 1v2.49h-.3v-2.49z" class="cls-1"/>
  <path d="M77.05 130.73h-.56V128h.56zm-.31-.25h.06v-2.24h-.06zm.31-2.71h-.56V127h.56zm-.31-.25h.06v-.23h-.06zM78 127.16v1.43a.58.58 0 0 1 .13-.23.91.91 0 0 1 .21-.18.77.77 0 0 1 .25-.1 1.24 1.24 0 0 1 .27 0 1 1 0 0 1 .49.1.91.91 0 0 1 .35.29 1 1 0 0 1 .2.42 1.68 1.68 0 0 1 .08.5 1.7 1.7 0 0 1-.07.51 1 1 0 0 1-.21.42 1 1 0 0 1-.35.28 1 1 0 0 1-.5.1 1 1 0 0 1-.53-.14.78.78 0 0 1-.35-.4v.48h-.27v-3.45zm1.65 1.84a1.16 1.16 0 0 0-.14-.34.89.89 0 0 0-.26-.25.7.7 0 0 0-.37-.09.86.86 0 0 0-.41.09.93.93 0 0 0-.27.25.79.79 0 0 0-.14.34 1.2 1.2 0 0 0 0 .38 1.31 1.31 0 0 0 0 .39.85.85 0 0 0 .14.34.78.78 0 0 0 .27.24.86.86 0 0 0 .41.09.7.7 0 0 0 .37-.09.75.75 0 0 0 .26-.24 1.28 1.28 0 0 0 .14-.33 1.74 1.74 0 0 0 0-.4 1.58 1.58 0 0 0 0-.37z" class="cls-1"/>
  <path d="M78.88 130.8a1.1 1.1 0 0 1-.6-.16.66.66 0 0 1-.17-.12v.21h-.53V127h.55v1.16l.16-.13a.92.92 0 0 1 .29-.11 1 1 0 0 1 .3 0 1.15 1.15 0 0 1 .55.12 1.12 1.12 0 0 1 .39.32 1.33 1.33 0 0 1 .23.46 2 2 0 0 1 .07.54 1.9 1.9 0 0 1-.07.54 1.17 1.17 0 0 1-.23.46 1.08 1.08 0 0 1-.39.32 1.2 1.2 0 0 1-.55.12zm-.15-.26a1 1 0 0 0 .59-.08.93.93 0 0 0 .31-.25 1 1 0 0 0 .18-.38 1.73 1.73 0 0 0 .06-.47 1.89 1.89 0 0 0-.06-.47 1.33 1.33 0 0 0-.18-.39 1.1 1.1 0 0 0-.31-.25 1 1 0 0 0-.44-.09h-.21a1.05 1.05 0 0 1 .65.1 1 1 0 0 1 .3.28 1.09 1.09 0 0 1 .15.38 1.84 1.84 0 0 1 0 .41 1.4 1.4 0 0 1 0 .41 1.14 1.14 0 0 1-.16.39 1.11 1.11 0 0 1-.29.28.92.92 0 0 1-.59.12zm-.9-.06V130H78a1.67 1.67 0 0 1-.13-.65 1.31 1.31 0 0 1 .06-.41.88.88 0 0 1 .07-.23h-.12v-1.43zm1-2.06a.78.78 0 0 0-.35.08.93.93 0 0 0-.23.21.79.79 0 0 0-.12.3 1.25 1.25 0 0 0 0 .7.71.71 0 0 0 .13.32.61.61 0 0 0 .22.2.7.7 0 0 0 .66 0 .58.58 0 0 0 .2-.2 1 1 0 0 0 .14-.3 1.47 1.47 0 0 0 0-.36 1.34 1.34 0 0 0 0-.35.83.83 0 0 0-.13-.3.7.7 0 0 0-.21-.2.62.62 0 0 0-.26-.08zM83.72 127.16a1.87 1.87 0 0 1 .42 0 1.11 1.11 0 0 1 .35.14.88.88 0 0 1 .25.26.83.83 0 0 1 .09.41.78.78 0 0 1 0 .26.89.89 0 0 1-.32.41.64.64 0 0 1-.24.1.82.82 0 0 1 .53.27.84.84 0 0 1 .2.57 1.34 1.34 0 0 1 0 .19 1.15 1.15 0 0 1-.06.2.8.8 0 0 1-.13.22.7.7 0 0 1-.22.19 1.75 1.75 0 0 1-.33.13 2.31 2.31 0 0 1-.49.05h-1.5v-3.45zm0 1.51a1.25 1.25 0 0 0 .35 0 .78.78 0 0 0 .24-.13.52.52 0 0 0 .15-.19.54.54 0 0 0 0-.22c0-.43-.26-.65-.78-.65h-1.08v1.23zm0 1.66a1.9 1.9 0 0 0 .35 0 .69.69 0 0 0 .29-.12.53.53 0 0 0 .2-.22.69.69 0 0 0 .07-.34.59.59 0 0 0-.23-.5 1.18 1.18 0 0 0-.68-.16h-1.13v1.37z" class="cls-1"/>
  <path d="M83.73 130.73h-1.6V127h1.6a2.06 2.06 0 0 1 .44 0 1 1 0 0 1 .39.16.83.83 0 0 1 .29.3 1 1 0 0 1 .1.47 1 1 0 0 1 0 .3.87.87 0 0 1-.15.27.66.66 0 0 1-.19.18 1 1 0 0 1 .29.22 1 1 0 0 1 .22.65 1.48 1.48 0 0 1 0 .2 1.05 1.05 0 0 1-.06.24 1.58 1.58 0 0 1-.15.24.83.83 0 0 1-.26.23 1.93 1.93 0 0 1-.36.14 2.05 2.05 0 0 1-.56.13zm-1.34-.25h1.34a2.09 2.09 0 0 0 .45 0l.3-.12a.47.47 0 0 0 .18-.16 1 1 0 0 0 .12-.19 1 1 0 0 0 0-.17 1.09 1.09 0 0 0 0-.17.68.68 0 0 0-.16-.48.72.72 0 0 0-.35-.22.6.6 0 0 1 .15.1.69.69 0 0 1 .3.6.82.82 0 0 1-.1.4.78.78 0 0 1-.24.26.93.93 0 0 1-.34.13 1.86 1.86 0 0 1-.36 0h-1.21v-1.62h1.26a1.53 1.53 0 0 1 .38 0v-.13a1.44 1.44 0 0 1-.37.05h-1.27v-1.48h1.26c.78 0 .9.48.9.77a.7.7 0 0 1-.06.27.57.57 0 0 1-.12.18l.11-.1a.64.64 0 0 0 .11-.2.78.78 0 0 0 0-.23.75.75 0 0 0-.07-.35.86.86 0 0 0-.2-.22.82.82 0 0 0-.3-.1 1.61 1.61 0 0 0-.4 0H82.4zm.33-.28h1a1.58 1.58 0 0 0 .32 0 .5.5 0 0 0 .24-.09.46.46 0 0 0 .16-.17.55.55 0 0 0 .06-.28.46.46 0 0 0-.18-.4 1.11 1.11 0 0 0-.6-.14h-1zm0-1.65h1a1.55 1.55 0 0 0 .3 0 .55.55 0 0 0 .2-.11.31.31 0 0 0 .11-.14.35.35 0 0 0 0-.17c0-.23-.07-.52-.65-.52h-1zM85.69 128.5a.75.75 0 0 1 .21-.26 1.28 1.28 0 0 1 .3-.15 1.61 1.61 0 0 1 .4 0 1.77 1.77 0 0 1 .33 0 1 1 0 0 1 .3.13.56.56 0 0 1 .2.24.93.93 0 0 1 .09.41v1.32a.16.16 0 0 0 .18.18.16.16 0 0 0 .1 0v.26h-.2a.42.42 0 0 1-.18 0 .27.27 0 0 1-.12-.09.58.58 0 0 1 0-.14v-.18a2.09 2.09 0 0 1-.16.22.9.9 0 0 1-.2.15.64.64 0 0 1-.23.1 1.37 1.37 0 0 1-.31 0 1.14 1.14 0 0 1-.33-.05.68.68 0 0 1-.27-.13.54.54 0 0 1-.17-.22.81.81 0 0 1-.07-.33.65.65 0 0 1 .12-.41.62.62 0 0 1 .3-.22 1.8 1.8 0 0 1 .43-.11l.49-.06a.86.86 0 0 0 .17 0 .28.28 0 0 0 .12 0 .36.36 0 0 0 .07-.1.43.43 0 0 0 0-.17.62.62 0 0 0 0-.26.34.34 0 0 0-.14-.15.67.67 0 0 0-.21-.1h-.25a.74.74 0 0 0-.48.14.55.55 0 0 0-.2.44h-.3a1.06 1.06 0 0 1 0-.48zm1.52.75a.24.24 0 0 1-.11.08h-.15l-.4.06a1.51 1.51 0 0 0-.37.07.75.75 0 0 0-.28.15.37.37 0 0 0-.1.28.46.46 0 0 0 0 .21.44.44 0 0 0 .12.15.81.81 0 0 0 .18.1.51.51 0 0 0 .21 0 1.2 1.2 0 0 0 .34 0 .85.85 0 0 0 .28-.16.75.75 0 0 0 .19-.24.72.72 0 0 0 .07-.33v-.39z" class="cls-1"/>
  <path d="M86.33 130.8a1.5 1.5 0 0 1-.37-.05.77.77 0 0 1-.3-.15.73.73 0 0 1-.22-.27.92.92 0 0 1-.07-.38.72.72 0 0 1 .14-.48.9.9 0 0 1 .36-.27 2.44 2.44 0 0 1 .45-.12h.5a.34.34 0 0 0 .14 0 .12.12 0 0 0 .1 0 .41.41 0 0 0 0-.12.47.47 0 0 0 0-.2.27.27 0 0 0-.1-.1l-.18-.07h-.22a.62.62 0 0 0-.4.12.39.39 0 0 0-.14.34V129h-.55v-.13a1.13 1.13 0 0 1 .1-.42.89.89 0 0 1 .24-.3 1.31 1.31 0 0 1 .37-.17 1.85 1.85 0 0 1 .78 0 1.11 1.11 0 0 1 .34.14.81.81 0 0 1 .25.29 1 1 0 0 1 .1.47V130.26l.19-.12v.57h-.23a.55.55 0 0 1-.24 0 .36.36 0 0 1-.16-.14.2.2 0 0 1 0-.08.87.87 0 0 1-.22.18 1.09 1.09 0 0 1-.27.11 1.22 1.22 0 0 1-.38.02zm-.15-1.43l-.22.07a.61.61 0 0 0-.26.18.62.62 0 0 0-.08.33.57.57 0 0 0 0 .27.37.37 0 0 0 .14.18.51.51 0 0 0 .22.11 1.28 1.28 0 0 0 .55 0 1 1 0 0 1-.48 0 .88.88 0 0 1-.21-.12.51.51 0 0 1-.16-.2.5.5 0 0 1-.06-.26.47.47 0 0 1 .15-.37.92.92 0 0 1 .32-.18zm1.07.68h.1v.12a.81.81 0 0 0 0 .16.14.14 0 0 0 0 .09.33.33 0 0 0 .15 0h.07a.27.27 0 0 1-.27-.3v-1.32a.74.74 0 0 0-.07-.36.53.53 0 0 0-.17-.19.77.77 0 0 0-.25-.1 1.67 1.67 0 0 0-.67 0 1 1 0 0 0-.27.13.62.62 0 0 0-.17.22.53.53 0 0 0-.06.19h.05a.58.58 0 0 1 .23-.41.88.88 0 0 1 .55-.17 2.23 2.23 0 0 1 .27 0 .74.74 0 0 1 .26.1.54.54 0 0 1 .18.21.67.67 0 0 1 .06.3.58.58 0 0 1 0 .21l-.06.1h.09v.52a.85.85 0 0 1-.08.4zm-.16-.6h-.51a2.21 2.21 0 0 0-.35.08.71.71 0 0 0-.23.12.24.24 0 0 0-.06.2.33.33 0 0 0 0 .14.31.31 0 0 0 .09.11.41.41 0 0 0 .14.08.7.7 0 0 0 .47 0 .54.54 0 0 0 .22-.13.6.6 0 0 0 .17-.2.68.68 0 0 0 0-.28zM88.63 128.12v.43a.7.7 0 0 1 .31-.37.91.91 0 0 1 .48-.13 1.37 1.37 0 0 1 .44.06.73.73 0 0 1 .28.19.77.77 0 0 1 .15.3 1.73 1.73 0 0 1 0 .41v1.6H90v-1.55a1.36 1.36 0 0 0 0-.29.58.58 0 0 0-.1-.24.49.49 0 0 0-.19-.16.75.75 0 0 0-.3-.06.7.7 0 0 0-.34.07.81.81 0 0 0-.24.17 1.75 1.75 0 0 0-.16.27 1.27 1.27 0 0 0-.05.34v1.46h-.3v-2.49z" class="cls-1"/>
  <path d="M90.47 130.73h-.55v-1.68a1.18 1.18 0 0 0 0-.27.64.64 0 0 0-.08-.2.44.44 0 0 0-.15-.11.72.72 0 0 0-.52 0 .43.43 0 0 0-.2.15.74.74 0 0 0-.14.23.94.94 0 0 0 0 .3v1.57h-.63V128h.55v.18l.13-.1a1.24 1.24 0 0 1 1-.07.8.8 0 0 1 .33.22.92.92 0 0 1 .17.36 1.81 1.81 0 0 1 0 .43zm-.3-.25V129a1.48 1.48 0 0 0 0-.38.64.64 0 0 0-.12-.25.61.61 0 0 0-.23-.15 1 1 0 0 0-.51 0 .91.91 0 0 1 .46.07.59.59 0 0 1 .24.2.65.65 0 0 1 .12.28 1.65 1.65 0 0 1 0 .32zm-1.72 0v-1.33a1.51 1.51 0 0 1 .07-.38.42.42 0 0 1 0-.1h-.09v-.43zM91.42 127.16v2.17l1.38-1.21h.41l-1.07.92 1.14 1.57h-.38l-1-1.35-.49.4v1h-.3v-3.44z" class="cls-1"/>
  <path d="M93.52 130.73h-.69l-.94-1.3-.34.29v1H91V127h.56v2l1.2-1.06h.79l-1.23 1.07zm-.56-.25H93L92 129l.89-.78-1.6 1.38v-2.31h-.05v3.19h.06v-.88l.64-.53zM96.7 127.16l1.35 3.45h-.35l-.42-1.06h-1.57l-.41 1.07H95l1.38-3.44zm.47 2.1l-.67-1.77-.69 1.77z" class="cls-1"/>
  <path d="M98.23 130.73h-.62l-.42-1.07h-1.4l-.41 1.07h-.62l1.49-3.73h.53zm-.45-.25h.08l-1.25-3.19.79 2.09h-1.77l.82-2.09-1.3 3.19h.09l.42-1.07h1.73zM96 129.13h1l-.49-1.29zM101.27 130.61v-.63a1 1 0 0 1-.21.32 1.08 1.08 0 0 1-.28.21 1.33 1.33 0 0 1-.33.13 2.21 2.21 0 0 1-.37 0 1.61 1.61 0 0 1-.71-.15 1.54 1.54 0 0 1-.51-.39 1.68 1.68 0 0 1-.3-.58 2.15 2.15 0 0 1-.1-.68 2.24 2.24 0 0 1 .1-.68 1.73 1.73 0 0 1 .3-.57 1.54 1.54 0 0 1 .51-.39 1.61 1.61 0 0 1 .71-.15 1.77 1.77 0 0 1 .52.07 1.2 1.2 0 0 1 .42.22 1.22 1.22 0 0 1 .32.36 1.29 1.29 0 0 1 .18.5h-.33a.71.71 0 0 0-.1-.31 1.13 1.13 0 0 0-.22-.28 1.27 1.27 0 0 0-.34-.2 1.25 1.25 0 0 0-.45-.08 1.16 1.16 0 0 0-.58.13 1.25 1.25 0 0 0-.41.34 1.69 1.69 0 0 0-.23.49 2.08 2.08 0 0 0-.07.55 2 2 0 0 0 .07.55 1.48 1.48 0 0 0 .23.48 1.18 1.18 0 0 0 1 .48 1.19 1.19 0 0 0 .51-.1.92.92 0 0 0 .38-.26 1.05 1.05 0 0 0 .23-.4 1.35 1.35 0 0 0 .07-.5H100v-.28h1.46v1.75z" class="cls-1"/>
  <path d="M100 130.8a1.67 1.67 0 0 1-.76-.16 1.57 1.57 0 0 1-.55-.43 1.64 1.64 0 0 1-.33-.6 2.38 2.38 0 0 1 0-1.43 1.68 1.68 0 0 1 .33-.62 1.47 1.47 0 0 1 .55-.42 1.67 1.67 0 0 1 .76-.13 1.92 1.92 0 0 1 .55.08 1.4 1.4 0 0 1 .47.24 1.47 1.47 0 0 1 .55.93v.15H101v-.11a.67.67 0 0 0-.09-.26.76.76 0 0 0-.2-.24 1 1 0 0 0-.3-.18 1.12 1.12 0 0 0-.92 0 1.12 1.12 0 0 0-.37.31 1.17 1.17 0 0 0-.21.45 1.7 1.7 0 0 0-.07.51 1.77 1.77 0 0 0 .07.52 1.33 1.33 0 0 0 .21.45 1.19 1.19 0 0 0 .36.31 1.12 1.12 0 0 0 .53.11 1 1 0 0 0 .46-.08.93.93 0 0 0 .34-.23.91.91 0 0 0 .2-.36 1.14 1.14 0 0 0 .07-.34h-1.16v-.53h1.71v2h-.48v-.38a1 1 0 0 1-.31.24 1.42 1.42 0 0 1-.36.14 1.81 1.81 0 0 1-.48.07zm0-3.59a1.48 1.48 0 0 0-.65.14 1.31 1.31 0 0 0-.47.36 1.42 1.42 0 0 0-.28.53 2.13 2.13 0 0 0 0 1.29 1.42 1.42 0 0 0 .28.53 1.58 1.58 0 0 0 .47.36 1.48 1.48 0 0 0 .65.13 1.27 1.27 0 0 0 .34 0 1 1 0 0 0 .3-.11l.19-.13a1.17 1.17 0 0 1-.27.15 1.34 1.34 0 0 1-.56.1 1.31 1.31 0 0 1-.64-.14 1.27 1.27 0 0 1-.45-.38 1.72 1.72 0 0 1-.25-.53 2.27 2.27 0 0 1-.08-.59 2.2 2.2 0 0 1 .08-.58 1.52 1.52 0 0 1 .25-.53 1.27 1.27 0 0 1 .45-.38 1.29 1.29 0 0 1 .64-.15 1.26 1.26 0 0 1 .49.09 1.37 1.37 0 0 1 .38.23 1.22 1.22 0 0 1 .25.31.82.82 0 0 1 .1.24h.07a1.26 1.26 0 0 0-.13-.31 1.28 1.28 0 0 0-.3-.32 1.2 1.2 0 0 0-.38-.2 1.85 1.85 0 0 0-.48-.1zm1.17 2.65h.14v.55-1.4h-1.21 1.17v.12a1.57 1.57 0 0 1-.08.54 1.34 1.34 0 0 1 0 .2zM106.18 127.16v.29l-2.26 2.88h2.31v.28h-2.68v-.29l2.27-2.88h-2.12v-.28z" class="cls-1"/>
  <path d="M106.36 130.73h-2.93v-.45l2.13-2.71h-2V127h2.73v.45l-2.13 2.71h2.18zm-2.68-.25h2.43-2.43zm0-.12v.08l2.38-3v-.07zm.15-3h2.23-2.23zM108.52 130.61v-.45a.86.86 0 0 1-.35.38 1 1 0 0 1-.51.14 1.15 1.15 0 0 1-.4-.07.77.77 0 0 1-.27-.19.67.67 0 0 1-.16-.29 1.25 1.25 0 0 1 0-.4v-1.6h.3v1.61a.81.81 0 0 0 .16.51.62.62 0 0 0 .5.17.65.65 0 0 0 .35-.08.72.72 0 0 0 .23-.23 1 1 0 0 0 .13-.31 1.61 1.61 0 0 0 0-.37v-1.31h.32v2.49z" class="cls-1"/>
  <path d="M107.65 130.8a1.25 1.25 0 0 1-.45-.07 1.07 1.07 0 0 1-.32-.22.82.82 0 0 1-.17-.35 1.35 1.35 0 0 1-.06-.43V128h.56v1.75a.67.67 0 0 0 .12.43.53.53 0 0 0 .41.13.54.54 0 0 0 .47-.25.7.7 0 0 0 .12-.28 1.48 1.48 0 0 0 0-.34V128h.56v2.74h-.53v-.21a1.18 1.18 0 0 1-.18.13 1.1 1.1 0 0 1-.53.14zm-.75-2.56v1.49a1.38 1.38 0 0 0 0 .37.6.6 0 0 0 .12.24.46.46 0 0 0 .23.15.83.83 0 0 0 .41.06.75.75 0 0 1-.57-.22.94.94 0 0 1-.18-.59v-1.5zm1.75 2.24v-2.24h-.06v1.19a1.84 1.84 0 0 1 0 .39 1 1 0 0 1-.08.21h.14v.45zM109.85 128.12v.58a.95.95 0 0 1 .94-.62v.3a1.06 1.06 0 0 0-.37.06.86.86 0 0 0-.3.2.84.84 0 0 0-.2.28 1 1 0 0 0-.05.36v1.33h-.31v-2.49z" class="cls-1"/>
  <path d="M110 130.73h-.55V128h.55v.29a.8.8 0 0 1 .17-.15 1 1 0 0 1 .66-.17h.12v.55h-.13a.85.85 0 0 0-.33.05.72.72 0 0 0-.25.16.78.78 0 0 0-.16.24.83.83 0 0 0-.06.32zm-.3-.25v-1.2a1.07 1.07 0 0 1 .08-.41v-.05h-.12v-.58zm1-2.27a.73.73 0 0 0-.39.14l-.12.1a1 1 0 0 1 .21-.11.94.94 0 0 1 .3-.07zM111.6 127.16v.49h-.31v-.5zm0 1v2.49h-.31v-2.49z" class="cls-1"/>
  <path d="M111.72 130.73h-.55V128h.55zm-.3-.25v-2.24zm.3-2.71h-.55V127h.55zm-.3-.25v-.23zM113.9 128.46a.67.67 0 0 0-.47-.16.79.79 0 0 0-.38.09.9.9 0 0 0-.27.23 1.06 1.06 0 0 0-.16.34 1.3 1.3 0 0 0 0 .78 1 1 0 0 0 .16.34.78.78 0 0 0 .27.24.79.79 0 0 0 .38.1.81.81 0 0 0 .27 0 .66.66 0 0 0 .22-.16.73.73 0 0 0 .16-.22.9.9 0 0 0 .08-.28h.3a1.18 1.18 0 0 1-.33.7 1 1 0 0 1-.7.26 1.15 1.15 0 0 1-.5-.1 1 1 0 0 1-.37-.29 1.22 1.22 0 0 1-.23-.42 1.7 1.7 0 0 1-.08-.5 1.75 1.75 0 0 1 .08-.52 1.09 1.09 0 0 1 .23-.4 1.06 1.06 0 0 1 .37-.3 1.15 1.15 0 0 1 .5-.1 1.1 1.1 0 0 1 .68.21.89.89 0 0 1 .33.64h-.31a.72.72 0 0 0-.23-.49z" class="cls-1"/>
  <path d="M113.43 130.8a1.2 1.2 0 0 1-.55-.12 1.18 1.18 0 0 1-.42-.31 1.58 1.58 0 0 1-.25-.46 1.92 1.92 0 0 1-.08-.55 1.85 1.85 0 0 1 .08-.54 1.41 1.41 0 0 1 .25-.47 1.26 1.26 0 0 1 1-.43 1.18 1.18 0 0 1 .75.24 1 1 0 0 1 .38.73v.14h-.6v-.1a.72.72 0 0 0-.19-.38.57.57 0 0 0-.39-.13.69.69 0 0 0-.32.08.79.79 0 0 0-.24.21.88.88 0 0 0-.13.3 1 1 0 0 0 0 .35 1.12 1.12 0 0 0 0 .36.81.81 0 0 0 .14.3.74.74 0 0 0 .23.2.6.6 0 0 0 .72-.09.46.46 0 0 0 .18-.13.72.72 0 0 0 .07-.25v-.11h.57v.14a1.31 1.31 0 0 1-.38.78 1.09 1.09 0 0 1-.83.24zm0-2.63a1.06 1.06 0 0 0-.45.1.92.92 0 0 0-.32.25 1.12 1.12 0 0 0-.2.37 1.45 1.45 0 0 0-.08.46 1.37 1.37 0 0 0 .07.47 1.09 1.09 0 0 0 .21.38.87.87 0 0 0 .32.25 1.06 1.06 0 0 0 .45.09.85.85 0 0 0 .61-.22 1 1 0 0 0 .27-.49.65.65 0 0 1-.07.21.7.7 0 0 1-.19.26.8.8 0 0 1-.25.18.85.85 0 0 1-.76-.05 1 1 0 0 1-.31-.27 1.18 1.18 0 0 1-.18-.38 1.31 1.31 0 0 1-.06-.43 1.52 1.52 0 0 1 .06-.42 1.27 1.27 0 0 1 .17-.38 1.06 1.06 0 0 1 .32-.28.93.93 0 0 1 .44-.11.8.8 0 0 1 .56.2.88.88 0 0 1 .24.4h.06a.68.68 0 0 0-.26-.41.92.92 0 0 0-.65-.2zM115.38 127.16v1.39a.7.7 0 0 1 .31-.37.92.92 0 0 1 .49-.13 1.35 1.35 0 0 1 .43.06.86.86 0 0 1 .29.19.77.77 0 0 1 .15.3 2.48 2.48 0 0 1 0 .41v1.6h-.3v-1.55a1.37 1.37 0 0 0 0-.3.59.59 0 0 0-.12-.23.43.43 0 0 0-.19-.16.68.68 0 0 0-.3-.06.66.66 0 0 0-.33.07.61.61 0 0 0-.24.17.92.92 0 0 0-.16.27 1 1 0 0 0-.06.34v1.46h-.3v-3.45z" class="cls-1"/>
  <path d="M117.22 130.73h-.55v-1.68a1.12 1.12 0 0 0 0-.27.43.43 0 0 0-.08-.2.33.33 0 0 0-.14-.11.75.75 0 0 0-.53 0 .48.48 0 0 0-.2.15.58.58 0 0 0-.13.23.94.94 0 0 0 0 .3v1.57h-.6V127h.56v1.13a.58.58 0 0 1 .12-.1 1.24 1.24 0 0 1 1-.07.8.8 0 0 1 .33.22.9.9 0 0 1 .18.35 2.06 2.06 0 0 1 0 .44zm-.3-.25V129a1.53 1.53 0 0 0 0-.38.53.53 0 0 0-.12-.25.61.61 0 0 0-.23-.15 1 1 0 0 0-.5 0 .79.79 0 0 1 .44.07.63.63 0 0 1 .26.2.94.94 0 0 1 .12.28 1.58 1.58 0 0 1 0 .32zm-1.72 0h.06v-1.33a1.26 1.26 0 0 1 .06-.38v-.1h-.1v-1.38h-.06zM34.78 131.13h-.36a.37.37 0 0 1-.37-.36V127a.38.38 0 0 1 .37-.37h.36v.3h-.36a.07.07 0 0 0-.07.07v3.8a.07.07 0 0 0 .07.07h.36z" class="cls-1"/>
  <path d="M34.91 131.26h-.49a.49.49 0 0 1-.5-.49V127a.5.5 0 0 1 .5-.49h.49v.49h-.43v3.7h.43zm-.49-4.53a.24.24 0 0 0-.24.24v3.8a.24.24 0 0 0 .24.24h.24-.24a.2.2 0 0 1-.2-.2V127a.2.2 0 0 1 .2-.2h.24zM118.89 131.13h-.36v-.29h.36a.07.07 0 0 0 .07-.07V127a.07.07 0 0 0-.07-.07h-.37v-.3h.37a.37.37 0 0 1 .36.37v3.8a.36.36 0 0 1-.36.33z" class="cls-1"/>
  <path d="M118.89 131.26h-.49v-.54h.43V127h-.43v-.54h.49a.49.49 0 0 1 .49.49v3.8a.49.49 0 0 1-.49.5zm-.24-.25h.24a.24.24 0 0 0 .24-.24V127a.24.24 0 0 0-.24-.24h-.24.24a.2.2 0 0 1 .19.2v3.8a.2.2 0 0 1-.19.2h-.24zM188.51 76.76h6.61c.19 0 .22-.1.19-.21l-3.24-8.88c0-.15-.07-.33-.19-.33s-.18.18-.21.33l-3.3 8.84c-.05.15 0 .25.14.25M204.68 88zm6.7-25v8.8c0 .29.1.37.25.4a9 9 0 0 0 1.69.11 3.62 3.62 0 0 0 2.59-.69 4.7 4.7 0 0 0 1.47-3.81c0-2.41-1.4-5.58-4.49-5.58a5.25 5.25 0 0 0-1.19.08c-.25.08-.32.23-.32.62m8.23 18.91a8.54 8.54 0 0 0-3.48-7.15 5.12 5.12 0 0 0-3-.86h-1.54c-.15 0-.22.07-.22.25v8.53c0 2.37.1 3 1.25 3.44a6.44 6.44 0 0 0 2.62.44c1.63 0 4.36-.87 4.36-4.61M179.84 87a1.22 1.22 0 0 0 .67 0c1.1-.46 1.65-1.55 2.24-3l9-22.58c.44-1 .66-1.44 1-1.44s.55.32.91 1.15c.86 2 6.61 16.65 8.91 22.09 1.05 2.48 1.91 3.35 2.6 3.72a1.43 1.43 0 0 0 1.06 0 3 3 0 0 0 .62-1.77c.18-1.51.18-4.35.18-7.66v-6.32c0-5.46 0-6.47-.08-7.62s-.35-1.8-1.53-2a7.75 7.75 0 0 0-1.41-.11c-.39 0-.61-.07-.61-.32s.24-.33.79-.33c1.9 0 4.17.11 4.89.11 1.77 0 3.16-.11 4.38-.11 6.5 0 7.66 3.49 7.66 5.4 0 3-1.68 4.71-3.67 6.3 3 1 6.55 3.56 6.55 7.77 0 3.85-2.93 7.77-9.55 7.77h-9.9c-1.35 0-3.13 0-5.12-.06h-.62c-.4 0-.62-.1-.62-.3s.14-.28.5-.31a.59.59 0 0 0 .32-.83l-2.88-7.63a.34.34 0 0 0-.35-.25h-8c-.18 0-.25.08-.33.3L185.52 84a7 7 0 0 0-.54 2.2c0 .64.34 1.11 1.44 1.11h.58c.43 0 .53.07.53.28s-.22.37-.61.37H170.7c-.57 0-.85-.12-.85-.4s.16-.33.65-.33a6.18 6.18 0 0 0 1.47-.17c.81-.16 1-1.06 1.18-2.23.2-1.72.2-4.93.2-8.69v-3.58a.23.23 0 0 0-.24-.24h-15.56a.21.21 0 0 0-.24.24v3.58c0 3.76 0 7 .2 8.73.13 1.13.36 2 1.59 2.19a15.63 15.63 0 0 0 2.08.17c.45 0 .65.12.65.32s-.32.41-.81.41c-2.65 0-5.22-.12-6.36-.12-.93 0-3.5.12-5.13.12-.54 0-.82-.12-.82-.41s.17-.32.65-.32a6.11 6.11 0 0 0 1.47-.17c.82-.16 1-1.06 1.19-2.23.2-1.72.2-4.93.2-8.69V69c0-6.19 0-7.33-.07-8.64s-.41-2-1.76-2.32a9.45 9.45 0 0 0-1.6-.12c-.44 0-.68-.08-.68-.36s.29-.37.86-.37c2.2 0 4.77.12 5.86.12s3.55-.13 5.14-.13c.57 0 .86.08.86.37s-.25.36-.74.36a8.69 8.69 0 0 0-1.18.12c-1.1.21-1.44.9-1.51 2.32s-.08 2.45-.08 8.64v.86a.25.25 0 0 0 .24.28h15.57c.12 0 .24-.08.24-.28V69c0-6.19 0-7.33-.07-8.64s-.4-2-1.75-2.32a9.55 9.55 0 0 0-1.6-.12c-.43 0-.68-.08-.68-.36s.28-.37.86-.37c2.2 0 4.76.12 5.86.12s3.54-.13 5.14-.13c.56 0 .85.08.85.37s-.25.36-.73.36A9 9 0 0 0 180 58c-1.09.21-1.42.9-1.5 2.32s-.09 2.45-.09 8.64v7.17c0 3.76 0 7 .21 8.73.11 1 .31 1.81 1.19 2.1m48.58-9.45V71.2c0-5.46 0-6.47-.07-7.62s-.43-1.84-1.23-2a5.43 5.43 0 0 0-1.29-.14c-.36 0-.58-.07-.58-.36s.29-.29.87-.29c1.37 0 3.64.11 4.68.11s3-.11 4.39-.11c.46 0 .75.07.75.29s-.22.36-.59.36a6.06 6.06 0 0 0-1.06.11c-1 .18-1.27.79-1.34 2s-.07 2.16-.07 7.62v6.33c0 3.49 0 6.33.14 7.87.1 1 .36 1.62 1.44 1.76a13.69 13.69 0 0 0 1.83.15c.39 0 .58.1.58.28s-.29.37-.68.37c-2.38 0-4.64-.1-5.61-.1s-3.1.1-4.53.1c-.46 0-.73-.1-.73-.37s.14-.28.57-.28a5.3 5.3 0 0 0 1.29-.15c.73-.14.95-.75 1.05-1.79.18-1.51.18-4.35.18-7.84m12.77 0v-6.3c0-5.46 0-6.47-.07-7.62s-.36-1.8-1.54-2a7.55 7.55 0 0 0-1.4-.11c-.39 0-.62-.07-.62-.32s.26-.33.8-.33c1.9 0 4.16.11 4.9.11 1.75 0 3.15-.11 4.37-.11 6.51 0 7.66 3.49 7.66 5.4 0 3-1.69 4.71-3.67 6.3 3 1 6.55 3.56 6.55 7.77 0 3.85-3 7.84-9.6 7.84-.44 0-1.48-.08-2.52-.1s-2.15-.12-2.69-.12h-2.05c-.86 0-1.77.07-2.49.07-.46 0-.72-.1-.72-.37s.15-.28.58-.28a5.24 5.24 0 0 0 1.3-.15c.72-.14.9-.93 1-2 .17-1.51.17-4.35.17-7.66m4.32-14.6v8.9c0 .29.11.37.25.4a8.84 8.84 0 0 0 1.7.11 3.62 3.62 0 0 0 2.58-.69 4.66 4.66 0 0 0 1.47-3.81c0-2.41-1.4-5.58-4.49-5.58a5.25 5.25 0 0 0-1.19.08c-.25.08-.32.23-.32.62m8.23 18.91a8.57 8.57 0 0 0-3.49-7.15 5.12 5.12 0 0 0-3-.86h-1.54c-.15 0-.22.07-.22.25v8.53c0 2.37.11 3 1.26 3.44a6.43 6.43 0 0 0 2.63.44c1.61 0 4.34-.87 4.34-4.61" class="cls-1"/>
  <path d="M371.46 86.65c2.52 0 8.34-1.22 8.34-11.61C379.8 67 375.17 62 369.27 62c-4.13 0-8.85 2.3-8.85 11.26 0 7.48 4.13 13.41 11 13.41M370 88.45c-10.32 0-14.49-7.73-14.49-14.1 0-6.15 4.07-14.09 14.85-14.09 8.95 0 14.53 5.21 14.53 13.44S379.08 88.45 370 88.45m-70.39-10.93v-6.33c0-5.47 0-6.47-.08-7.63s-.36-1.8-1.55-2a6.71 6.71 0 0 0-1.4-.11c-.39 0-.6-.08-.6-.33s.24-.32.78-.32h2.91c.91 0 1.77.07 2.27.07h9a14.76 14.76 0 0 0 1.54-.21 3.06 3.06 0 0 1 .58-.14c.18 0 .21.14.21.32a21.67 21.67 0 0 0-.28 2.34c0 .36-.1 1.93-.18 2.37 0 .17-.1.39-.36.39s-.33-.18-.33-.5a3.61 3.61 0 0 0-.22-1.29c-.24-.65-.6-1.08-2.4-1.3-.6-.07-4.39-.14-5.1-.14-.19 0-.25.1-.25.36v9.09c0 .26 0 .4.24.4.8 0 4.93 0 5.75-.07s1.42-.19 1.73-.55.4-.47.58-.47.25.07.25.29-.14.8-.28 2.62c0 .72-.15 2.16-.15 2.41s0 .7-.33.7a.29.29 0 0 1-.32-.34 11.45 11.45 0 0 0-.14-1.29c-.18-.72-.69-1.26-2-1.41-.69-.07-4.24-.1-5.1-.1-.19 0-.22.14-.22.36v8.25c.06 2.48.64 3 4.3 3a9.18 9.18 0 0 0 3.4-.43c.93-.43 1.35-1.19 1.6-2.66.08-.4.15-.54.4-.54s.3.29.3.65a28 28 0 0 1-.48 4c-.25.93-.58.93-1.94.93h-22.71c-.92 0-1.18-.3-1.18-.69 0-.2.16-.33.45-.45s.37-.69.2-1.83L286 67.14h-.17L277 85.64c-.93 1.91-1.13 2.28-1.5 2.28s-.77-.82-1.43-2c-1-1.87-4.19-8.11-4.69-9.25-.36-.85-2.81-6-4.23-9H265l-2.14 16.13a16.34 16.34 0 0 0-.12 1.92c0 .77.53 1.14 1.21 1.3a8.26 8.26 0 0 0 1.72.21c.33 0 .61.08.61.28 0 .37-.37.44-1 .44-1.72 0-3.55-.11-4.28-.11s-2.74.1-4 .1c-.4 0-.73-.06-.73-.43 0-.2.24-.27.65-.27a4.9 4.9 0 0 0 1.22-.13c1.14-.24 1.47-1.83 1.67-3.21l4-26.57c.11-.69.36-1.06.7-1.06s.56.2 1.1 1.27l11.11 23 11.08-23.26c.33-.65.53-1 .9-1s.61.4.74 1.27l3.7 25c.37 2.57.77 3.75 2 4.12a8.21 8.21 0 0 0 2.52.4h.25a3.91 3.91 0 0 0 .44-.08c.72-.14.9-.93 1-2 .19-1.51.19-4.18.19-7.49m22 0V62.76l-2.52.15c-2.09.07-2.94.25-3.48 1a4.17 4.17 0 0 0-.61 1.26c-.07.29-.18.43-.41.43s-.31-.18-.31-.58c0-.57.69-3.84.76-4.13.1-.46.2-.68.42-.68a8.38 8.38 0 0 0 1.53.43c1 .11 2.41.18 3.6.18h8.56a17.64 17.64 0 0 0 2.48-.18 8 8 0 0 1 1-.18c.24 0 .28.22.28.75 0 .76-.1 3.24-.1 4.18 0 .35-.12.57-.33.57s-.35-.18-.39-.72v-.39c-.08-.94-1.05-1.94-4.25-2l-1.69-.11v14.77c0 3.31 0 6.14.18 7.69.12 1 .33 1.8 1.41 1.94a13.55 13.55 0 0 0 1.83.15c.4 0 .58.1.58.28s-.29.36-.69.36c-2.37 0-4.64-.1-5.64-.1-.83 0-3.09.1-4.53.1-.47 0-.72-.1-.72-.36s.14-.28.57-.28a5.39 5.39 0 0 0 1.3-.15c.71-.14.93-.93 1-2 .18-1.51.18-4.34.18-7.65m15.8 0v-6.31c0-5.47 0-6.47-.06-7.63s-.36-1.8-1.54-2a6.94 6.94 0 0 0-1.4-.11c-.4 0-.62-.08-.62-.33s.25-.32.79-.32c1.9 0 4.17.11 4.92.11 1.23 0 4-.11 5.08-.11a11.39 11.39 0 0 1 6.61 1.55 6.23 6.23 0 0 1 2.44 4.92c0 2.66-1.1 5.11-4.74 8 3.2 4 5.68 7.24 7.8 9.46a7.19 7.19 0 0 0 4 2.45 5.83 5.83 0 0 0 1 .1c.28 0 .43.1.43.29s-.26.36-.69.36H358a7.36 7.36 0 0 1-3.85-.68c-1.54-.82-2.91-2.52-4.93-5.28-1.44-2-3.1-4.43-3.56-5a.72.72 0 0 0-.64-.25l-3.13-.08c-.18 0-.29.08-.29.3v.5c0 3.35 0 6.18.18 7.69.11 1 .33 1.84 1.4 2a14.93 14.93 0 0 0 1.76.15c.29 0 .43.1.43.28s-.25.36-.72.36c-2.08 0-4.74-.1-5.28-.1s-2.95.1-4.38.1c-.47 0-.72-.1-.72-.36s.14-.28.57-.28a5.39 5.39 0 0 0 1.3-.15c.72-.14.9-.93 1-2 .17-1.51.17-4.34.17-7.65m4.25-14.42V74c0 .39.08.54.33.65a9.47 9.47 0 0 0 2.72.36 3.54 3.54 0 0 0 2.55-.62c1.09-.78 2.13-2.45 2.13-5.39 0-5.11-3.38-6.58-5.5-6.58a7.73 7.73 0 0 0-1.9.14c-.26.08-.34.22-.34.51" class="cls-1"/>
</svg>
