<svg xmlns="http://www.w3.org/2000/svg" viewBox="0 0 713 96"><g><path fill="#009B85" d="M107.43 83.41V.11h57c20.13 0 24.35 11.59 24.35 21.3a17.17 17.17 0 0 1-9.45 16.8 20 20 0 0 1 13.2 20.25c0 9.27-6 25-28.67 25l-56.43-.04zm19.17-14.9l31.84.01c8.8 0 14.25-1.7 14.25-10.37 0-8-6.39-9.65-11.75-9.65h-28.89l16-16h10.85c6.1 0 10.73-2.34 10.73-9.1 0-5-2.19-8.33-12.9-8.33H126.6V68.5zM0 83.42V.11h19.2v83.31H0zm208.32 0V.11h19.17v66.53h56.7L267.4 83.4l-59.07.01zm-141 0V48.47H24.64l16.7-16.75h26V.12h19.19v83.3H67.32z"/><path fill="#656668" d="M486.72 95.59l3.63-6.18h8.2l-3.62 6.18h-8.2zm-18.22 0l3.62-6.18h8.22l-3.62 6.18h-8.22zm-11.65 0l3.6-6.18h8.22L465 95.6h-8.15zm249.33-38.87l6.2-6.2v33.6l-6.2 6.21V56.71v.01zm-75.36 27.15l3.64-6.2h4V55.53l6.2-6.21v28.35h7.05l.01-22.14 6.22-6.21c0 3-.06 26.07.1 28.4h13.26V72.9l6.2-6.2v11h6.27v-4.81l6.24-6.2v11h6.1v-4.8l6.22-6.2v17.16H630.9l-.08.02zm-32.36 0H517c-.1-2.73-.2-8.42-.15-11.1l6.19-6.22v11h52.73v-22.4H582v22.38l21.53-.07V64.2h20.52V80.1l-3.6 3.75-22 .01zm11.35-6.25h7.46v-7.14h-7.46v7.14zM302.28 83.8c-.09-2.72-.2-8.41-.16-11.1l6.2-6.21v10.99h52.75V55.07h6.2v22.38h26.08v-4.77l6.2-6.2v11h25.53v-22.4h6.23v22.37h25.9v-4.77l6.24-6.2v11h14.16v-4.8l6.19-6.2v11H498v-4.8l6.2-6.2v11l-6.9 6.32H302.29zm138-18.6l3.6-6.2h8.2l-3.6 6.2h-8.2zm-64 0l3.57-6.2H388l-3.6 6.2h-8.12zm198.86-11.28l6.2-6.21h37.83L613 53.9h-37.86zm-150.73-.08l6.24-6.2h37.82l-6.2 6.2H424.4zm-63.99 0l6.23-6.2h37.83l-6.2 6.2h-37.84zm.01-8.54l6.23-6.2h37.83l-6.2 6.2h-37.84zm335.87-15.24c-13.48 1.26-20.17-16.81-10.72-25.67 6.77-7.74 24-4 26 3.77l-6.26 2.05c-3.73-9.06-17.61-4.17-17.09 4.88-.64 9.6 14.83 14.05 16.9 3.53h-7.18l2.87-4.9h11.63v15.54h-3.73l-1-3.3A14.51 14.51 0 0 1 696.26 30v.06zm-384.2-8.78l6.62-2.17c-1.32 10.82 27.81 3.77 9.75-.8l-6.85-1.52c-14.81-2.6-10.64-18.2 5.18-16.66 5.63.17 13.22 1 13.71 9h-7.1c-.68-7.86-23.3-1.94-9.87 1.8l9.27 2.07c6.2 1.32 8.8 4.18 8.68 8 1.9 10.8-29.32 13.45-29.4.2v.08zm145 1.6C445.73 3.05 478.14-9.85 486.43 9.7l-7.17 1.93C477 1.3 461.33 5.4 461.93 15.08c-.6 9.9 15.63 13.8 17.75 3.3h7.18c-1.38 13.8-23.5 15.76-29.86 4.5h.06zm63.4 5.54h-18.72V.1h18.88c9.48-.1 10.65 9.36 5.06 12.9 8.76 3.42 3.32 17-5.27 15.37l.06.05zm-12.14-5.06c3.38-.7 15.7 2.29 15.14-3.54.15-5.48-10.72-2.61-13.82-3.3l3.18-5.43c2.8-.5 9.54 1.7 9.6-3.1.77-4.62-11.44-2.28-14.1-2.82v18.2zm-74.1 5.1V9.44h-.07l-7.94 19h-5.94l-7.93-19h-.08v19h-6.52V.1h8.47l9 20.6 9-20.6h8.5v28.35h-6.49zm-89.23 0V.1h6.52v23h17l-3.1 5.3-20.42.05zm100.17 0V.1h6.53v28.33h-6.53v.02zm-50.28 0l-2.2-5.85h-10.93l2.88-5.15h6l-4.16-11.21-8.37 22.2h-7.63L382.3.12h8.33l11.84 28.33h-7.65.05zm275.28 0L655.47 8.7h-.07v19.75h-6.53V.1h7.93l14.1 19.75h.1V.1h6.5v28.32h-7.36l.02.03zm-80.55 0L574.9 8.7h-.06v19.75h-6.52V.1h7.9l14.1 19.75h.07V.1h6.5v28.32h-7.35l.05.03zm-32.85 0l-2.17-5.84h-10.94l2.87-5.16h6.07l-4.2-11.22-8.34 22.2h-7.66L544.21.15h8.36l11.8 28.3h-7.6zm67.4 0L615 15.85l-4.27 3.85v8.74h-6.92V.1h6.92v12.18L623.18.1h9.5l-12.33 11.4 13.27 16.93h-9.51l.05.03zm13.3 0V.1h6.5v28.3h-6.5v.05zm-335.25 0V.1h6.5v28.3h-6.5v.05z"/></g></svg>
