<?xml version="1.0" encoding="utf-8"?>
<!-- Generator: Adobe Illustrator 25.4.1, SVG Export Plug-In . SVG Version: 6.00 Build 0)  -->
<svg version="1.1" id="Layer_1" xmlns="http://www.w3.org/2000/svg" xmlns:xlink="http://www.w3.org/1999/xlink" x="0px" y="0px"
	 viewBox="0 0 512 512" style="enable-background:new 0 0 512 512;" xml:space="preserve">
<style type="text/css">
	.st0{fill:#E4132B;}
	.st1{fill:none;stroke:#E4132B;stroke-miterlimit:10;}
	.st2{fill:#FFFFFF;stroke:#FFFFFF;stroke-miterlimit:10;}
</style>
<g>
	<g>
		
			<image style="overflow:visible;opacity:0.15;" width="467" height="259" xlink:href="FB98D34.png"  transform="matrix(1 0 0 1 4 102.3023)">
		</image>
		<g>
			<path class="st0" d="M11.8,317.5l192.1-201.4c0,0,19.3-17,44,0s87.2,71,87.2,71s17,20.1,30.9,1.5s62.5-80.1,62.5-80.1l35.5,30.7
				l-76.4,97.2c0,0-37.8,20.1-63.3,0c-25.5-20.1-74.8-63.3-74.8-63.3s-18.5-20.1-35.5,0S56.5,349.9,56.5,349.9S4.8,367.7,11.8,317.5
				z"/>
			<path class="st1" d="M11.8,317.5l192.1-201.4c0,0,19.3-17,44,0s87.2,71,87.2,71s17,20.1,30.9,1.5s62.5-80.1,62.5-80.1l35.5,30.7
				l-76.4,97.2c0,0-37.8,20.1-63.3,0c-25.5-20.1-74.8-63.3-74.8-63.3s-18.5-20.1-35.5,0S56.5,349.9,56.5,349.9S4.8,367.7,11.8,317.5
				z"/>
		</g>
	</g>
	<g>
		
			<image style="overflow:visible;opacity:0.15;" width="115" height="131" xlink:href="FB98D35.png"  transform="matrix(1 0 0 1 389 37.3023)">
		</image>
		<g>
			<polygon class="st0" points="426.1,103 396.8,77.6 497.1,43.6 497.1,160.1 			"/>
			<polygon class="st1" points="426.1,103 396.8,77.6 497.1,43.6 497.1,160.1 			"/>
		</g>
	</g>
	<g>
		
			<image style="overflow:visible;opacity:0.15;" width="82" height="157" xlink:href="FB98D33.png"  transform="matrix(1 0 0 1 99 309.3023)">
		</image>
		<g>
			<rect x="105.9" y="315.2" class="st0" width="68.1" height="143.5"/>
			<rect x="105.9" y="315.2" class="st1" width="68.1" height="143.5"/>
		</g>
	</g>
	<g>
		
			<image style="overflow:visible;opacity:0.15;" width="89" height="232" xlink:href="FB98D3C.png"  transform="matrix(1 0 0 1 188 234.3023)">
		</image>
		<g>
			<rect x="195.4" y="240" class="st0" width="74.6" height="218.7"/>
			<rect x="195.4" y="240" class="st1" width="74.6" height="218.7"/>
		</g>
	</g>
	<g>
		
			<image style="overflow:visible;opacity:0.15;" width="91" height="198" xlink:href="FB98D3F.png"  transform="matrix(1 0 0 1 283 271.3023)">
		</image>
		<g>
			<rect x="290.3" y="277.6" class="st0" width="77" height="184"/>
			<rect x="290.3" y="277.6" class="st1" width="77" height="184"/>
		</g>
	</g>
	<path class="st2" d="M244.8,310.4h-24.2c-0.3,0-0.5-0.2-0.5-0.5v-24.2c0-0.3,0.2-0.5,0.5-0.5h24.2c0.3,0,0.5,0.2,0.5,0.5v24.2
		C245.3,310.2,245.1,310.4,244.8,310.4z"/>
	<path class="st2" d="M244.8,368.9h-24.2c-0.3,0-0.5-0.2-0.5-0.5v-24.2c0-0.3,0.2-0.5,0.5-0.5h24.2c0.3,0,0.5,0.2,0.5,0.5v24.2
		C245.3,368.7,245.1,368.9,244.8,368.9z"/>
	<path class="st2" d="M244.8,427.4h-24.2c-0.3,0-0.5-0.2-0.5-0.5v-24.2c0-0.3,0.2-0.5,0.5-0.5h24.2c0.3,0,0.5,0.2,0.5,0.5v24.2
		C245.3,427.2,245.1,427.4,244.8,427.4z"/>
</g>
</svg>
