<?xml version="1.0" encoding="utf-8"?>
<!-- Generator: Adobe Illustrator 25.4.1, SVG Export Plug-In . SVG Version: 6.00 Build 0)  -->
<svg version="1.1" id="Layer_1" xmlns="http://www.w3.org/2000/svg" xmlns:xlink="http://www.w3.org/1999/xlink" x="0px" y="0px"
	 viewBox="0 0 512 512" style="enable-background:new 0 0 512 512;" xml:space="preserve">
<style type="text/css">
	.st0{fill:#FFFFFF;stroke:#E4132B;stroke-width:13;stroke-miterlimit:10;}
	.st1{fill:#E4132B;}
	.st2{fill:#666666;}
</style>
<g>
	<path class="st0" d="M424.3,212.1v148c0,0,3,25.2-37.2,27.4c-40.3,2.2-240.6,0-240.6,0s-30.7,7.7-30.7-20.8s0-152.5,0-152.5
		L270,39.3L424.3,212.1z"/>
	<g>
		<path class="st1" d="M348.9,38.6c0,0,30.7-19.7,56.9,0v105.1l-56.9-56.9V38.6z"/>
		<g>
			<g>
				<path class="st1" d="M127.8,224.8L246,104.3c0,0,17.5-30.7,41.6,0s127,120.4,127,120.4s39.4,0,41.6-30.7l-173-173
					c0,0-19.7-8.8-30.7,0C241.6,29.9,84,185.3,84,185.3S79.6,237.9,127.8,224.8z"/>
			</g>
		</g>
	</g>
	<g>
		<g>
			<polygon class="st1" points="185.3,480.8 185.3,463.3 333.2,463.3 333.2,443.5 315.1,443.5 350.7,388.9 389.5,443.5 369.3,443.5 
				368.7,480.8 			"/>
		</g>
	</g>
	<g>
		<g>
			<g>
				<path class="st2" d="M210.1,434.6c0-36.4-29.6-66-66-66s-66,29.6-66,66s29.6,66,66,66S210.1,470.9,210.1,434.6z M148.2,462.6
					c0,2.2-1.8,4-4,4s-4-1.8-4-4c0-13.2-10.8-24-24-24v24c0,2.2-1.8,4-4,4s-4-1.8-4-4v-60c0-2.2,1.8-4,4-4h16c11,0,20,9,20,20
					c0,8.4-5.2,15.6-12.6,18.6C143.2,443,148.2,452.2,148.2,462.6L148.2,462.6z M170.2,438.6h4c7.7,0,14,6.3,14,14s-6.3,14-14,14
					h-14c-2.2,0-4-1.8-4-4s1.8-4,4-4h14c3.3,0,6-2.7,6-6s-2.7-6-6-6h-4c-7.7,0-14-6.3-14-14s6.3-14,14-14h14c2.2,0,4,1.8,4,4
					s-1.8,4-4,4h-14c-3.3,0-6,2.7-6,6S166.9,438.6,170.2,438.6L170.2,438.6z"/>
			</g>
		</g>
		<path class="st2" d="M128.2,406.6h-12v24h12c6.6,0,12-5.4,12-12S134.8,406.6,128.2,406.6L128.2,406.6z"/>
	</g>
</g>
</svg>
