<svg xmlns="http://www.w3.org/2000/svg" width="135" height="40" viewBox="0 0 135 40"><defs><style>.a{fill:none;}.b{fill:#0a3e90;}.c{fill:#e95422;}.d{fill:#f8a81b;}</style></defs><rect class="a" width="135" height="40"/><g transform="translate(3.038 8.08)"><path class="b" d="M143.628,14.74v9.1a2.324,2.324,0,0,1-.941,2.183c-.588.348-1.083.372-1.083.906,0,.255.188.418.565.418.565,0,1.6-.186,2.99-.186.683,0,2.071.186,4.143.186,2,0,3.484-.209,4.755-1.324A4.95,4.95,0,0,0,155.7,22.31a3.949,3.949,0,0,0-3.837-4.134c1.789-.627,2.66-1.672,2.66-3.321,0-2.392-1.954-3.995-5.556-3.995-1.483,0-2.9.163-4.19.163a32.033,32.033,0,0,1-3.225-.162c-.4,0-.612.186-.612.488,0,.766,1.2.232,2.048,1C143.6,12.9,143.628,13.6,143.628,14.74Zm2.8,2.09V13.95c0-1.463.235-2.113,1.6-2.113a3.523,3.523,0,0,1,3.767,3.67c0,1.858-.754,2.555-2.707,2.555C146.9,18.06,146.429,17.944,146.429,16.83Zm0,3.878c0-1.393.094-1.672,1.766-1.672,2.825,0,4.544,1.417,4.544,3.647A3.387,3.387,0,0,1,149,26.305c-2.166,0-2.566-.627-2.566-2.485Zm12.765,3.275a4.671,4.671,0,0,1-1.46,2.16c-.471.3-.989.255-.989.743,0,.3.188.465.518.465a14.407,14.407,0,0,1,2.048-.209c1.507,0,2.542.232,3.037.232.353,0,.541-.162.541-.488,0-.371-.377-.418-.942-.534-1.083-.209-1.624-.627-1.624-1.323a2.229,2.229,0,0,1,.188-.79l.636-1.765c.377-1,.777-1,1.836-1H166.3c.942,0,1.224.046,1.625,1l.659,1.556a2.628,2.628,0,0,1,.235,1.022c0,1.393-1.7,1.161-1.7,1.811,0,.279.165.488.377.488a21.635,21.635,0,0,1,2.99-.232c1.577,0,2.707.209,3.319.209.33,0,.424-.047.424-.442,0-.488-.235-.441-.871-.65a2.247,2.247,0,0,1-1.412-1.486l-6-13.842c-.118-.256-.283-.418-.447-.418-.235,0-.283.116-.377.325l-5.933,13.169Zm4.19-3.67c-.754,0-1.06-.047-1.06-.348a1.827,1.827,0,0,1,.165-.581l1.766-4.087c.094-.232.235-.348.353-.348.094,0,.235.139.353.441l1.672,3.925a2.679,2.679,0,0,1,.212.7c0,.186-.235.3-.753.3Zm14.173.767c0,2.624-.283,4.2-.706,4.714-.541.674-1.53.465-1.53,1,0,.348.141.557.447.557.4,0,1.295-.209,2.66-.209a22.79,22.79,0,0,1,2.472.232c.447,0,.612-.046.612-.488,0-.766-1.389-.325-2.1-1.022-.754-.766-.777-2.3-.777-4.738V15.715q0-.975.282-.976a1.332,1.332,0,0,1,.565.441l10.086,11.288c.565.65,1.012,1.069,1.46,1.069.212,0,.306-.325.306-.976V14.553c.023-1.347-.071-1.858.659-2.415.588-.465,1.2-.3,1.2-.859,0-.325-.141-.418-.471-.418-.636,0-1.648.186-2.919.186-.942,0-1.578-.163-2.142-.163-.353,0-.518.139-.518.418,0,.65.942.256,2.072.976.8.511.918,1.486.918,2.9V21.1c0,.743-.094,1.115-.33,1.115-.165,0-.494-.232-.942-.767L180.36,11.86c-.636-.743-.8-.976-1.459-.976-.636,0-1.318.116-2.025.116-.518,0-.989-.116-1.413-.116-.33,0-.471.093-.471.488,0,.79.942.093,1.86,1.022.518.511.706,1.44.706,2.857Zm19.13,2.253c0,1.161-.047,1.9-.636,2.462-.565.558-1.389.488-1.389,1.138,0,.255.188.418.565.418.589,0,1.7-.209,3.225-.209,1.342,0,2.331.209,2.872.209.377,0,.518-.116.518-.511,0-.651-.847-.418-1.483-.86-.777-.534-.824-1.417-.824-2.81V21.544c0-.488.024-.836.306-1.069l.753-.65c.212-.186.33-.255.377-.255.094,0,.165.093.306.279l4.873,6.712a1.362,1.362,0,0,0,.989.7c.33,0,.777-.116,1.295-.116.565,0,1.177.139,1.813.139.4,0,.565-.139.565-.534,0-.488-.447-.162-1.248-.72a7.827,7.827,0,0,1-1.648-1.765l-4.4-5.876a1.394,1.394,0,0,1-.376-.767q0-.209.494-.7l2.519-2.369a18.373,18.373,0,0,1,3.131-2.462c.777-.395,1.319-.232,1.319-.79,0-.325-.188-.418-.565-.418-.494,0-1.248.162-2.307.162-.989,0-1.836-.139-2.542-.139-.353,0-.471.093-.471.325,0,.581.306.465.824.558a.624.624,0,0,1,.565.6c0,.511-1.059,1.9-3.2,3.9L200.22,18.8a.75.75,0,0,1-.448.232c-.212,0-.235-.186-.235-.65V14.3c0-.952.024-1.579.612-2.09.588-.534,1.318-.372,1.318-.929a.406.406,0,0,0-.447-.441,32.68,32.68,0,0,1-3.343.209c-1.577,0-2.613-.186-3.06-.186-.4,0-.612.209-.612.488,0,.766,1.2.232,2.048,1,.612.558.636,1.254.636,2.392Z" transform="translate(-85.246 -6.671)"/><path class="b" d="M68.819,26.645a1.523,1.523,0,0,1-.3-.655l-1.109-3.452a2.17,2.17,0,0,1-.138-.431c0-.36.1-.551.693-.551.388,0,.5.225.744.687a8.453,8.453,0,0,0,.989,1.542,7.726,7.726,0,0,0,5.858,2.829c2.634,0,4.749-1.2,4.749-3.164,0-1.777-1.817-2.32-5.152-3.317l-.532-.159-.038-.011c-4.207-1.24-6.825-2.012-6.825-5.118,0-2.421,2.669-4.579,6.829-4.579a12.927,12.927,0,0,1,3.571.521,6.575,6.575,0,0,0,1.628.294,2.613,2.613,0,0,0,1.042-.206,1.168,1.168,0,0,1,.414-.106c.485,0,.624.168.624.528a3.065,3.065,0,0,1-.032.384,3.605,3.605,0,0,0-.037.455,7.993,7.993,0,0,0,.268,1.753,6.438,6.438,0,0,1,.218,1.339c0,.359-.1.5-.52.5-.541,0-.62-.2-.788-.63a5.029,5.029,0,0,0-.979-1.623,7.663,7.663,0,0,0-5.581-2.206c-2.288,0-3.848,1.055-3.848,2.349,0,1.486,1.595,2.229,4.853,3.092.327.088.644.171.953.252a15.474,15.474,0,0,1,4.489,1.617A4.349,4.349,0,0,1,82.94,22.3c0,3.308-3.189,5.418-7.591,5.418a15.4,15.4,0,0,1-3.7-.521,13.623,13.623,0,0,0-1.641-.318c-.735-.082-1.025-.086-1.192-.232Zm-7.17-.727V14.154c0-1.076-.031-1.734-.836-2.261a3.731,3.731,0,0,0-1.7-.465c-.569-.058-1-.1-1-.479,0-.285.279-.461.805-.461.175,0,.441.02.8.045.718.052,1.8.131,3.228.131,1.779,0,2.953-.107,3.572-.163.222-.021.372-.034.454-.034.34,0,.5.154.5.439,0,.3-.255.38-.588.483a2.384,2.384,0,0,0-.805.373c-.682.526-.682,1.185-.682,2.173V24.206a4.911,4.911,0,0,1-1.827,3.666A6.405,6.405,0,0,1,59.3,30c-1.425,0-2.385-.439-2.385-1.185,0-1.251.372-2.063.867-2.063a2.525,2.525,0,0,1,1.323.768,2.586,2.586,0,0,0,1.371.79c.9,0,1.177-.812,1.177-2.392Z" transform="translate(-34.47 -6.536)"/><path class="c" d="M4.675,39.182,18.158,25.7a2.831,2.831,0,0,1,2.25-.859h3.13L10.306,38.073a3.648,3.648,0,0,1-1.935,1.109h-3.7Zm9.693-2.762,6.585-6.585a2.828,2.828,0,0,1,2.25-.859h3.131L20,35.312a3.646,3.646,0,0,1-1.935,1.109h-3.7Z" transform="translate(-2.908 -15.343)"/><path class="d" d="M2.97,16.821,18.09,1.7A2.831,2.831,0,0,1,20.34.842h3.131L8.6,15.712a3.648,3.648,0,0,1-1.935,1.109H2.971Zm-2.761-4.1L6.794,6.131a2.829,2.829,0,0,1,2.25-.859h3.13L5.84,11.608A3.647,3.647,0,0,1,3.9,12.717H.209Z" transform="translate(-0.209 -0.842)"/></g></svg>