<svg xmlns="http://www.w3.org/2000/svg" width="688.1" height="577.5" viewBox="0 0 516.1 433.1"><defs><clipPath id="b"><path d="M3 0h510v433.1H3z"/></clipPath><clipPath id="a"><path d="M354 277h162.1v103H354z"/></clipPath></defs><g clip-path="url(#b)"><path fill="#008f34" fill-rule="evenodd" d="M5.7 401.6h505.8v31.5H5.7zm-1-149.3L4 114.7c92.2-5.3 237.3 28.2 239.8 88.2v49.5zm10-160.7A142.1 142.1 0 0 1 45.3 56c56.8-3.2 153.5 20.2 213 55 59.3-34.8 156-58.2 212.8-55 11.9 10 22.2 21.7 30.4 35.5-81-2.7-198 19.4-243.3 71.5C212.7 111 95.8 88.9 14.8 91.6zm497.5 23l-.7 137.8H272.4v-49.6c2.5-60 147.6-93.5 239.8-88.2zM74.8 36C130.2 5.8 203.2 0 258 0c55 0 127.9 5.8 183.3 36a327.2 327.2 0 0 0-183.3 45.7A327.2 327.2 0 0 0 74.8 36z"/></g><g clip-path="url(#a)"><path fill="#0f2a82" fill-rule="evenodd" d="M469.8 325.4c13.6.7 24 2.5 31.1 5.5 10.2 4.3 15.3 11 15.3 20.4 0 11.6-7.3 19.7-22 24.3-8.1 2.6-21.6 4-40.3 4h-99.8v-5.3l4.7-.4c2.7-.3 5.1-.8 7.4-1.6 2.2-.8 3.7-1.6 4.6-2.4 1.3-1.5 2-4.8 2-10v-62.3c0-5.3-.7-8.6-2-10-.9-.9-2.4-1.7-4.7-2.5a33 33 0 0 0-7.3-1.6l-4.7-.4v-5.2h107.5c15.8 0 27.5 1.5 34.9 4.6 9.4 4 14.1 9.8 14.1 17.8 0 14-13.6 22.3-40.8 25zM421 323h11.8a42 42 0 0 0 21.7-4.7c5.6-3.5 8.4-8.6 8.4-15.3 0-12.7-10-19.1-30.2-19.1h-11.7zm0 50h12.6c9 0 16.7-1.6 23.2-4.6 4-2 7-4.9 9-9 1.3-2.8 2-6 2-9a18 18 0 0 0-8.2-16.2 45.3 45.3 0 0 0-24.7-5.5h-14z"/></g><path fill="#0f2a82" fill-rule="evenodd" d="M6.8 285.8v-8h64.5l43 61.2 37-61.1h61.1v7.9h-5c-8.6 0-11.3 3.2-11.2 7.7v69.7c0 5.5 2.9 8.5 9.2 8.6h7.8v8h-78.9v-8h7.4c5.9-.2 9-2 9.2-8.5v-67l-50.5 83.4H89.8L37 297.5v59.2c0 9.8 4.5 14.8 12.5 15.1H65v8H0v-8h16.2c8.8-.2 12.5-5.7 12.5-14.9v-62.6c0-6.4-4-8.2-10.8-8.5z"/><path fill="#0f2a82" fill-rule="evenodd" d="M201.6 328.8c-.6 29.5 33.4 54.8 88 53 18.2-.7 34.5-6.4 52.3-9.8 3.4-.4 4.8 4.4 5.3 7.8l8.6-.2-.3-43.6H347c-7.6 19.7-33.9 40.7-56.7 38.9-19.3-1.5-34.5-15.3-35.2-46.1.7-30.8 16-44.6 35.2-46 22.8-2 49.1 19 56.7 38.7h8.4l.3-43.5-8.6-.2c-.5 3.4-1.9 8.2-5.3 7.8-17.8-3.4-34-9-52.2-9.7-54.7-2-88.7 23.4-88 52.9z"/></svg>