<?xml version="1.0" encoding="UTF-8"?>
<!DOCTYPE svg PUBLIC "-//W3C//DTD SVG 1.1//EN" "http://www.w3.org/Graphics/SVG/1.1/DTD/svg11.dtd">
<!-- Creator: CorelDRAW 2021 (64-Bit) -->
<svg xmlns="http://www.w3.org/2000/svg" xml:space="preserve" width="3.32838in" height="3.33578in" version="1.1" style="shape-rendering:geometricPrecision; text-rendering:geometricPrecision; image-rendering:optimizeQuality; fill-rule:evenodd; clip-rule:evenodd"
viewBox="0 0 6097.22 6110.78"
 xmlns:xlink="http://www.w3.org/1999/xlink"
 xmlns:xodm="http://www.corel.com/coreldraw/odm/2003">
 <defs>
  <style type="text/css">
   <![CDATA[
    .fil0 {fill:#E5132B}
    .fil4 {fill:#E8BC7D}
    .fil3 {fill:#F4C37D}
    .fil1 {fill:#F75E70}
    .fil2 {fill:#FEFEFE}
    .fil5 {fill:white}
   ]]>
  </style>
 </defs>
 <g id="Layer_x0020_1">
  <metadata id="CorelCorpID_0Corel-Layer"/>
  <g id="_1952597613504">
   <path class="fil0" d="M1039.08 4248.89c29.13,-42.71 112.75,-126.06 155.26,-155.6 88.9,73.83 215.56,240.76 305.12,290.46 91.75,-51.55 214.38,-215.94 305.17,-290.56 42.85,30.25 125.64,112.56 155.21,155.75 -72.3,81.37 -244.85,221.44 -290.7,304.9 49.26,87.48 216.59,219.04 290.7,304.86 -29.75,42.98 -112.53,125.43 -155.38,155.52 -87.28,-74 -216.47,-241.33 -304.99,-290.74 -91.96,51.03 -216.18,215.17 -305,290.66 -42.6,-29.49 -125.95,-112.75 -155.42,-155.32 74.31,-87.05 240.82,-216.53 290.69,-304.98 -46.66,-84.64 -217.92,-222.18 -290.64,-304.95zm-77.95 -2779.54c23.45,-14.68 -26.77,-6.89 43.06,-15l379.04 0.94c0,-60.25 -15.38,-374.35 13.99,-422.24l219.01 0c13.59,22.18 7.02,-24.93 14.66,43.18l-0.68 379.06 392 0.65c29.17,4.72 15.36,4.17 30.11,13.41l-0.25 218.67c-45.82,28.31 -148.97,14.04 -203.48,14.04 -72.82,-0.01 -145.64,0 -218.46,-0.01l0.89 379.27c-7.72,67.56 -1.18,20.98 -14.73,42.7l-219.16 0c-13.54,-21.72 -7,24.86 -14.72,-42.7l0.89 -379.27c-72.81,0.01 -145.64,0.01 -218.46,0.01 -54.5,0 -157.66,14.27 -203.47,-14.04l-0.25 -218.67zm2080.74 4641.16l0 -3026.35 -3011.76 0 -14.22 -57.53 -14.88 0 3025.99 0 14.87 0 0 -3026.35c-509.28,-0.46 -1018.59,-0.03 -1527.87,-0.03 -254.3,0 -470.46,-8.48 -696.72,74.2 -351.78,128.54 -631.58,412.02 -753.51,774.75 -76.47,227.47 -62.83,443.99 -62.83,693.2l0 3040.53c0,261.66 -12.28,466.11 70.41,700.57 32.71,92.75 77.49,179.24 123.99,254.42 83.55,135.04 249.84,301.48 387.12,383.87 338.79,203.35 551.05,188.74 946.08,188.74 504.43,0 1008.89,0.42 1513.32,-0.04z"/>
   <path class="fil0" d="M4045.36 1462.83l1091.02 -0.01 -0.06 231.56 -378.11 -0.16 -101.84 1.12 -130.93 0.14 -101.84 -1.13 -378.08 0.1 -0.17 -231.63zm2051.3 1563.8c0.45,-504.43 0.03,-1008.89 0.03,-1513.32 0,-257.81 11.3,-454.09 -70.43,-686.01 -89.77,-254.73 -279.44,-490.92 -492.94,-627.27 -312.5,-199.57 -558.11,-199.78 -935.14,-199.78 -499.59,0 -999.19,-0.42 -1498.77,0.03l0 3026.35 14.88 0 2982.37 0z"/>
   <polygon class="fil1" points="3041.87,6110.51 3099.73,6110.48 3099.69,5826.76 3099.69,5463.06 3099.69,5143 3099.69,4866.59 3099.65,4432.56 3099.69,4153.74 3099.65,3855.47 3099.69,3673.65 3099.73,3448.2 3099.73,3084.41 6096.66,3084.41 6096.66,3026.63 3114.29,3026.63 3099.41,3026.63 3099.41,0.28 3041.87,0.28 3041.87,3026.63 3027,3026.63 1.01,3026.63 15.89,3026.63 30.11,3084.16 3041.87,3084.16 "/>
   <polygon class="fil2" points="961.13,1469.35 961.38,1688.02 1396.07,1694.72 1397.15,2124.02 1616.31,2124.02 1617.38,1694.72 2052.08,1688.02 2052.33,1469.35 1617.03,1462.8 1616.24,1033.06 1397.23,1033.06 1390.76,1468.23 "/>
   <path class="fil2" d="M1804.45 5014.22c42.85,-30.08 125.63,-112.54 155.38,-155.52 -74.11,-85.82 -241.44,-217.37 -290.7,-304.86 45.85,-83.46 218.4,-223.53 290.7,-304.9 -29.57,-43.19 -112.35,-125.5 -155.21,-155.75 -90.79,74.62 -213.41,239 -305.17,290.56 -89.56,-49.69 -216.21,-216.62 -305.12,-290.46 -42.52,29.53 -126.13,112.88 -155.26,155.6 72.73,82.77 243.99,220.31 290.64,304.95 -49.86,88.45 -216.38,217.93 -290.69,304.98 29.48,42.57 112.83,125.83 155.42,155.32 88.82,-75.5 213.05,-239.64 305,-290.66 88.52,49.41 217.71,216.73 304.99,290.74z"/>
   <polygon class="fil2" points="4045.52,1694.46 4423.61,1694.36 4525.44,1695.49 4656.37,1695.35 4758.21,1694.23 5136.32,1694.39 5136.38,1462.83 4045.36,1462.83 "/>
   <path class="fil3" d="M961.13 1469.35l429.63 -1.13 6.47 -435.17c-29.37,47.9 -13.99,361.99 -13.99,422.24l-379.04 -0.94c-69.84,8.11 -19.61,0.32 -43.06,15z"/>
   <path class="fil4" d="M1616.31 2124.02c13.54,-21.72 7,24.86 14.73,-42.7l-0.89 -379.27c72.82,0.01 145.64,0.01 218.46,0.01 54.51,0 157.66,14.27 203.48,-14.04l-434.7 6.7 -1.07 429.3z"/>
   <path class="fil4" d="M1397.15 2124.02l-1.07 -429.3 -434.69 -6.7c45.81,28.31 148.97,14.04 203.47,14.04 72.82,-0.01 145.65,0 218.46,-0.01l-0.89 379.27c7.72,67.56 1.18,20.98 14.72,42.7z"/>
   <path class="fil3" d="M2052.33 1469.35c-14.75,-9.24 -0.94,-8.69 -30.11,-13.41l-392 -0.65 0.68 -379.06c-7.64,-68.11 -1.07,-21 -14.66,-43.18l0.79 429.74 435.3 6.56z"/>
   <path class="fil0" d="M6096.66 3084.22c0.45,504.43 0.03,1008.89 0.03,1513.32 0,257.8 11.3,454.09 -70.43,686 -89.77,254.73 -279.44,490.92 -492.94,627.27 -312.5,199.57 -558.11,199.79 -935.14,199.79 -499.59,0 -999.19,0.42 -1498.77,-0.04l0 -3026.34 14.88 0 2982.37 0z"/>
   <polygon class="fil5" points="4059.02,4684.85 4060.04,4914.34 5147.37,4916 5151.88,4684.85 "/>
   <polygon class="fil5" points="5151.86,4190.22 4059.05,4190.22 4060.35,4419.62 5147.37,4421.29 "/>
  </g>
 </g>
</svg>
