<?xml version="1.0" encoding="UTF-8"?>
<!DOCTYPE svg PUBLIC "-//W3C//DTD SVG 1.1//EN" "http://www.w3.org/Graphics/SVG/1.1/DTD/svg11.dtd">
<!-- Creator: CorelDRAW 2021 (64-Bit) -->
<svg xmlns="http://www.w3.org/2000/svg" xml:space="preserve" width="2.80077in" height="2.77991in" version="1.1" style="shape-rendering:geometricPrecision; text-rendering:geometricPrecision; image-rendering:optimizeQuality; fill-rule:evenodd; clip-rule:evenodd"
viewBox="0 0 444.4 441.09"
 xmlns:xlink="http://www.w3.org/1999/xlink"
 xmlns:xodm="http://www.corel.com/coreldraw/odm/2003">
 <defs>
  <style type="text/css">
   <![CDATA[
    .fil0 {fill:#E5132B}
    .fil1 {fill:#F75E70}
   ]]>
  </style>
 </defs>
 <g id="Layer_x0020_1">
  <metadata id="CorelCorpID_0Corel-Layer"/>
  <g id="_1952077032816">
   <path class="fil0" d="M-0 208.11l67.08 -0.02c-0.25,53.94 -0.87,113.02 0.11,165.74l112 0.14c-0.51,-2.4 -21.21,-27.56 -23.66,-30.47 -26.51,-31.45 -54.81,-66.83 -54.63,-113.28 0.48,-65.67 53.95,-119.42 120.18,-120.18 66.08,-0.76 122.51,53 122.51,121.29 0,45.39 -28.68,81.27 -54.74,112.17 -2.44,2.89 -23.15,28.07 -23.66,30.24l111.7 0.22 0.51 -165.83 66.98 0.01c-2.7,-5.02 -59.02,-54.95 -64.51,-61.19 -4.36,-4.95 -30.43,-25.9 -31.47,-31.07 -1.67,-8.32 -0.39,-51.73 -0.08,-62.9l-52.42 -0.53 -0.04 15.14c-20.82,-14.77 -55.18,-50.42 -73.69,-67.6 -6.04,3.91 -34.37,31.85 -41.55,38.76l-138.91 129.8c-5.4,4.79 -39.93,36.28 -41.74,39.55z"/>
   <polygon class="fil0" points="225.86,227.47 256.26,227.77 256.49,197.28 226.03,197.1 "/>
   <polygon class="fil0" points="187.91,227.56 218.29,227.62 218.5,197.46 188.15,197.18 "/>
   <polygon class="fil0" points="225.89,265.33 256.27,265.65 256.37,235.22 226.23,235.15 "/>
   <polygon class="fil0" points="188,265.47 218.49,265.64 218.44,235.46 188.3,235.16 "/>
   <g>
    <path class="fil1" d="M146.8 149.35c-11.46,11.47 -19.2,20.52 -26.46,36.25 -7.36,15.96 -9.89,30 -10.03,46.46 -0.02,2.47 -0.31,4.28 0,6.74 1.06,8.44 1.61,17.08 5,26.61 13.03,36.65 37.26,61.57 75.09,73.09 4.61,1.4 9.52,1.83 13.64,3.14 -0.13,3.72 -0.62,17.63 -0.06,20.29l38.63 -0c0.44,-2.8 0.15,-7.33 0.16,-10.41 0.01,-3.38 0.47,-7.12 -0.95,-10.47 7.72,-3.59 22.15,-2.89 45.94,-20.91 41.86,-31.71 55.8,-89.54 33.19,-135.71 -24.55,-50.13 -80.45,-73.2 -128.38,-59.52 -7.75,2.21 -15.03,4.76 -22.86,8.91 -3.61,1.91 -7.69,4.29 -11.23,6.75 -3.02,2.1 -9.17,7.77 -11.7,8.8zm136.75 9.88c-19.3,-16.47 -36.67,-21.61 -59.5,-23.19 -27.16,-1.87 -57.43,11.48 -76.19,33.57 -32.84,38.66 -31.68,99.34 10.76,135.54 38.59,32.91 99.5,31.32 135.47,-11.02 32.66,-38.43 31.3,-99.18 -10.55,-134.9z"/>
    <path class="fil1" d="M282.33 162.27c-14.81,-12.86 -31.12,-20.05 -49.28,-22.47 -30.44,-4.05 -61.13,7.36 -81.99,30.85 -32.78,36.93 -31.42,96.12 8.67,131.3 37.05,32.51 96.05,31.41 131.15,-8.82 32.19,-36.89 31.55,-96.04 -8.56,-130.87zm-3.77 2.17c-36.18,-30.39 -92.03,-29.35 -125.62,10.3 -30.22,35.68 -28.43,92.15 10.91,125.35 35.33,29.81 91.59,28.47 124.82,-10.68 30.06,-35.41 28.9,-92.21 -10.11,-124.97z"/>
    <polygon class="fil1" points="203.99,375.21 203.87,414.03 242.75,414.05 242.61,375.21 "/>
    <path class="fil1" d="M274.03 296.25c-9.05,3.31 -9.82,7.14 -28.19,11.24 -9.54,2.13 -19.6,2.18 -28.46,0.94 -19.17,-2.69 -40.18,-12.16 -55.43,-32.19 -14.73,-19.35 -19.16,-43.32 -16.82,-59.93 3.22,-22.87 10.26,-36.19 27.27,-53.68 -7.96,3.33 -20.99,20.22 -25.11,27.83 -35.39,65.33 24.44,141.22 96.31,121.69 8.94,-2.43 22.79,-8.44 30.43,-15.9z"/>
    <path class="fil1" d="M203.98 418.41c-0.29,2.09 -0.16,5.56 -0.09,7.85 0.08,2.78 0.67,5.49 3.25,8.41 9.89,11.19 35.37,7.32 35.72,-8.42 0.05,-2.18 0.25,-6.41 -0.4,-8.22 -5.89,0.42 -12.84,-0 -19.02,0.03 -3.71,0.02 -17.02,-0.45 -19.45,0.34z"/>
    <path class="fil1" d="M203.89 364.81c-0.18,1.51 -0.05,2.2 -0.07,3.76 -0.01,2.01 -0.41,2.44 0.53,4.35l38.01 -0.15c0.8,-1.95 0.77,-6.51 0,-8.47 -3.83,0.08 -35.91,-0.6 -38.48,0.51z"/>
   </g>
  </g>
 </g>
</svg>
