<?xml version="1.0" encoding="UTF-8"?>
<!DOCTYPE svg PUBLIC "-//W3C//DTD SVG 1.1//EN" "http://www.w3.org/Graphics/SVG/1.1/DTD/svg11.dtd">
<!-- Creator: CorelDRAW 2021 (64-Bit) -->
<svg xmlns="http://www.w3.org/2000/svg" xml:space="preserve" width="3.77343in" height="3.12327in" version="1.1" style="shape-rendering:geometricPrecision; text-rendering:geometricPrecision; image-rendering:optimizeQuality; fill-rule:evenodd; clip-rule:evenodd"
viewBox="0 0 2915.9 2413.5"
 xmlns:xlink="http://www.w3.org/1999/xlink"
 xmlns:xodm="http://www.corel.com/coreldraw/odm/2003">
 <defs>
  <style type="text/css">
   <![CDATA[
    .fil0 {fill:#E5132B}
    .fil1 {fill:#F75E70}
   ]]>
  </style>
 </defs>
 <g id="Layer_x0020_1">
  <metadata id="CorelCorpID_0Corel-Layer"/>
  <g id="_1916169380704">
   <path class="fil0" d="M1272.73 1672.98l220.63 0 0 482.87 -220.63 0 0 -482.87zm-501 231.42l220.63 0 0 240.69 -220.63 0 0 -240.69zm-501 0l220.63 0 0 240.69 -220.63 0 0 -240.69zm501 -498.59l220.63 0 0 240.69 -220.63 0 0 -240.69zm-501 0l220.63 0 0 240.69 -220.63 0 0 -240.69zm1001.99 -498.59l220.63 0 0 240.69 -220.63 0 0 -240.69zm-501 0l220.63 0 0 240.69 -220.63 0 0 -240.69zm-501 0l220.63 0 0 240.69 -220.63 0 0 -240.69zm-270.74 -702.01l0 2025.8c0,142.29 53.27,180.52 190.51,180.52l1383.97 0c148.66,0 195.62,-29.85 195.62,-180.52l0 -2045.85c0,-172.51 -66.52,-175.45 -215.68,-175.45 -461.32,0 -922.65,0 -1383.96,0 -136.59,0 -170.45,53.68 -170.45,195.5z"/>
   <path class="fil1" d="M2020.68 946.12c103.65,-44.9 125.78,-168.25 254.67,-180.09 530.74,-48.73 635.75,151.6 633.07,-300.04 -0.72,-121.97 35.61,-353.81 -45.72,-426.51 -46.64,-41.69 -747.34,-69.9 -813.18,19.42 -54.48,73.91 -28.84,743.19 -28.84,887.22zm262.75 -659.09c0,-30.8 6.81,-53.59 20.38,-68.43 13.56,-14.85 31.93,-22.31 55.11,-22.31 23.99,0 42.77,7.38 56.32,22.14 13.56,14.76 20.3,37.63 20.3,68.59 0,30.81 -6.74,53.6 -20.3,68.44 -13.56,14.85 -32.01,22.31 -55.2,22.31 -23.99,0 -42.68,-7.38 -56.24,-22.14 -13.56,-14.77 -20.38,-37.63 -20.38,-68.6zm51.5 0c0,22.23 2.57,37.15 7.79,44.77 3.93,5.61 9.39,8.42 16.28,8.42 7.06,0 12.6,-2.81 16.53,-8.42 5.05,-7.62 7.54,-22.55 7.54,-44.77 0,-22.22 -2.49,-37.06 -7.54,-44.52 -3.93,-5.77 -9.47,-8.66 -16.53,-8.66 -6.9,0 -12.35,2.81 -16.28,8.42 -5.21,7.62 -7.79,22.55 -7.79,44.77zm74.38 273.67l-48.86 0 183.49 -364.41 47.82 0 -182.44 364.41zm106.63 -90.9c0,-30.89 6.82,-53.76 20.38,-68.68 13.56,-14.93 32.09,-22.38 55.6,-22.38 23.67,0 42.29,7.46 55.84,22.38 13.56,14.92 20.3,37.79 20.3,68.68 0,31.13 -6.74,54.07 -20.3,68.99 -13.55,14.93 -32.01,22.39 -55.2,22.39 -23.99,0 -42.68,-7.46 -56.24,-22.39 -13.56,-14.92 -20.38,-37.86 -20.38,-68.99zm51.51 0.16c0,22.46 2.57,37.47 7.78,44.93 3.93,5.86 9.39,8.74 16.29,8.74 7.06,0 12.52,-2.81 16.29,-8.5 5.21,-7.62 7.78,-22.71 7.78,-45.17 0,-22.46 -2.49,-37.55 -7.54,-45.17 -3.93,-5.7 -9.46,-8.5 -16.52,-8.5 -7.06,0 -12.52,2.81 -16.29,8.5 -5.21,7.62 -7.78,22.71 -7.78,45.17z"/>
   <path class="fil1" d="M2025.7 2401.55l70 11.94 742.38 -1.98 70.62 -7.25 -0.36 -165.79c-87.4,-23.9 -795.25,-23.9 -882.65,0l0 163.07z"/>
   <polygon class="fil1" points="2025.81,1609.22 2031.48,1684.67 2908.29,1684.5 2909.74,1609.36 2908.25,1503.99 2025.77,1503.99 "/>
   <polygon class="fil1" points="2025.81,1970.25 2031.48,2045.7 2903.28,2045.54 2909.74,1970.4 2908.25,1865.02 2025.77,1865.02 "/>
   <polygon class="fil1" points="2035.69,1308.46 2898.37,1308.46 2898.37,1147.9 2035.69,1147.9 "/>
  </g>
 </g>
</svg>
